<?xml version="1.0" encoding="UTF-8" standalone="no"?>
<!-- Created with Inkscape (http://www.inkscape.org/) -->

<svg
   xmlns:dc="http://purl.org/dc/elements/1.1/"
   xmlns:cc="http://creativecommons.org/ns#"
   xmlns:rdf="http://www.w3.org/1999/02/22-rdf-syntax-ns#"
   xmlns:svg="http://www.w3.org/2000/svg"
   xmlns="http://www.w3.org/2000/svg"
   xmlns:sodipodi="http://sodipodi.sourceforge.net/DTD/sodipodi-0.dtd"
   xmlns:inkscape="http://www.inkscape.org/namespaces/inkscape"
   width="55mm"
   height="20mm"
   viewBox="0 0 55 20"
   version="1.1"
   id="svg3033"
   inkscape:version="0.92.3 (2405546, 2018-03-11)"
   sodipodi:docname="sheba-green.svg"
   inkscape:export-filename="/home/shipu/Desktop/logos-msdbl/masudgroup.png"
   inkscape:export-xdpi="96"
   inkscape:export-ydpi="96">
  <defs
     id="defs3027">
    <clipPath
       clipPathUnits="userSpaceOnUse"
       id="clipPath660">
      <path
         d="m 185.345,508.313 c 4.223,9.378 4.258,18.372 0,27.695 v 0 c -4.258,-9.323 -4.223,-18.317 0,-27.695"
         id="path658"
         inkscape:connector-curvature="0" />
    </clipPath>
    <linearGradient
       x1="0"
       y1="0"
       x2="1"
       y2="0"
       gradientUnits="userSpaceOnUse"
       gradientTransform="matrix(-6.363236,-6e-7,-6e-7,6.363236,188.52637,522.16064)"
       spreadMethod="pad"
       id="linearGradient672">
      <stop
         style="stop-opacity:1;stop-color:#176fc1"
         offset="0"
         id="stop666" />
      <stop
         style="stop-opacity:1;stop-color:#66cef5"
         offset="0.79"
         id="stop668" />
      <stop
         style="stop-opacity:1;stop-color:#33bdf2"
         offset="1"
         id="stop670" />
    </linearGradient>
    <clipPath
       clipPathUnits="userSpaceOnUse"
       id="clipPath638">
      <path
         d="m 185.345,507.59 c 5.615,12.47 5.662,24.429 0,36.828 v 0 c -5.662,-12.399 -5.615,-24.358 0,-36.828"
         id="path636"
         inkscape:connector-curvature="0" />
    </clipPath>
    <linearGradient
       x1="0"
       y1="0"
       x2="1"
       y2="0"
       gradientUnits="userSpaceOnUse"
       gradientTransform="matrix(-1.6e-6,36.828125,36.828125,1.6e-6,185.34521,507.58984)"
       spreadMethod="pad"
       id="linearGradient650">
      <stop
         style="stop-opacity:1;stop-color:#0994dc"
         offset="0"
         id="stop644" />
      <stop
         style="stop-opacity:1;stop-color:#0994dc"
         offset="0.61"
         id="stop646" />
      <stop
         style="stop-opacity:1;stop-color:#ed1c24"
         offset="1"
         id="stop648" />
    </linearGradient>
    <clipPath
       clipPathUnits="userSpaceOnUse"
       id="clipPath614">
      <path
         d="m 185.345,506.867 c 8.078,17.943 8.146,35.149 0,52.988 v 0 c -8.147,-17.839 -8.079,-35.045 0,-52.988"
         id="path612"
         inkscape:connector-curvature="0" />
    </clipPath>
    <linearGradient
       x1="0"
       y1="0"
       x2="1"
       y2="0"
       gradientUnits="userSpaceOnUse"
       gradientTransform="matrix(-2.2e-6,50.867813,50.867813,2.2e-6,185.34521,507.92725)"
       spreadMethod="pad"
       id="linearGradient628">
      <stop
         style="stop-opacity:1;stop-color:#2056ae"
         offset="0"
         id="stop620" />
      <stop
         style="stop-opacity:1;stop-color:#2056ae"
         offset="0.45"
         id="stop622" />
      <stop
         style="stop-opacity:1;stop-color:#ed1c24"
         offset="0.79"
         id="stop624" />
      <stop
         style="stop-opacity:1;stop-color:#f47216"
         offset="1"
         id="stop626" />
    </linearGradient>
    <clipPath
       clipPathUnits="userSpaceOnUse"
       id="clipPath592">
      <path
         d="m 150.994,501.582 c 0,-12.499 10.137,-22.635 22.634,-22.635 v 0 c 8.036,0 15.096,4.191 19.112,10.505 v 0 16.208 h -12.148 -2.016 v -9.588 c 0.111,0.04 0.224,0.08 0.342,0.12 v 0 c 2.945,1.001 8.112,1.889 9.028,-3.728 v 0 c -0.029,-0.251 -0.063,-0.5 -0.105,-0.746 v 0 c -1.08,-6.298 -6.778,-11.104 -13.644,-11.104 v 0 c -7.637,0 -13.83,5.945 -13.83,13.274 v 0 c 0,7.329 6.193,13.274 13.83,13.274 v 0 c 0.052,0 0.104,-10e-4 0.156,-10e-4 v 0 17.043 c -0.241,0.007 -0.482,0.011 -0.725,0.011 v 0 c -12.497,0 -22.634,-10.136 -22.634,-22.633 m 27.582,-5.51 v -0.204 0.204 c 0,0 0,0 0,0"
         id="path590"
         inkscape:connector-curvature="0" />
    </clipPath>
    <linearGradient
       x1="0"
       y1="0"
       x2="1"
       y2="0"
       gradientUnits="userSpaceOnUse"
       gradientTransform="matrix(-41.746582,-3.6e-6,-3.6e-6,41.746582,192.74072,501.58105)"
       spreadMethod="pad"
       id="linearGradient604">
      <stop
         style="stop-opacity:1;stop-color:#176fc1"
         offset="0"
         id="stop598" />
      <stop
         style="stop-opacity:1;stop-color:#66cef5"
         offset="0.79"
         id="stop600" />
      <stop
         style="stop-opacity:1;stop-color:#33bdf2"
         offset="1"
         id="stop602" />
    </linearGradient>
    <linearGradient
       x1="0"
       y1="0"
       x2="1"
       y2="0"
       gradientUnits="userSpaceOnUse"
       gradientTransform="matrix(-2.1166666e-7,-4.630036,4.630036,-2.1166666e-7,24.631896,290.02226)"
       spreadMethod="pad"
       id="linearGradient882">
      <stop
         style="stop-opacity:1;stop-color:#2e3192"
         offset="0"
         id="stop878" />
      <stop
         style="stop-opacity:1;stop-color:#00adef"
         offset="1"
         id="stop880" />
    </linearGradient>
    <linearGradient
       x1="0"
       y1="0"
       x2="1"
       y2="0"
       gradientUnits="userSpaceOnUse"
       gradientTransform="matrix(-2.1166666e-7,-4.630036,4.630036,-2.1166666e-7,18.623304,290.02226)"
       spreadMethod="pad"
       id="linearGradient862">
      <stop
         style="stop-opacity:1;stop-color:#2e3192"
         offset="0"
         id="stop858" />
      <stop
         style="stop-opacity:1;stop-color:#00adef"
         offset="1"
         id="stop860" />
    </linearGradient>
    <linearGradient
       x1="0"
       y1="0"
       x2="1"
       y2="0"
       gradientUnits="userSpaceOnUse"
       gradientTransform="matrix(-2.1166666e-7,-4.630036,4.630036,-2.1166666e-7,12.038866,290.02226)"
       spreadMethod="pad"
       id="linearGradient842">
      <stop
         style="stop-opacity:1;stop-color:#2e3192"
         offset="0"
         id="stop838" />
      <stop
         style="stop-opacity:1;stop-color:#00adef"
         offset="1"
         id="stop840" />
    </linearGradient>
    <linearGradient
       x1="0"
       y1="0"
       x2="1"
       y2="0"
       gradientUnits="userSpaceOnUse"
       gradientTransform="matrix(-2.1166666e-7,-4.630036,4.630036,-2.1166666e-7,5.6706065,290.02226)"
       spreadMethod="pad"
       id="linearGradient822">
      <stop
         style="stop-opacity:1;stop-color:#2e3192"
         offset="0"
         id="stop818" />
      <stop
         style="stop-opacity:1;stop-color:#00adef"
         offset="1"
         id="stop820" />
    </linearGradient>
    <radialGradient
       fx="0"
       fy="0"
       cx="0"
       cy="0"
       r="1"
       gradientUnits="userSpaceOnUse"
       gradientTransform="matrix(15.745126,0,0,15.745126,15.16822,273.00693)"
       spreadMethod="pad"
       id="radialGradient802">
      <stop
         style="stop-opacity:1;stop-color:#00adef"
         offset="0"
         id="stop798" />
      <stop
         style="stop-opacity:1;stop-color:#2e3192"
         offset="1"
         id="stop800" />
    </radialGradient>
    <radialGradient
       fx="0"
       fy="0"
       cx="0"
       cy="0"
       r="1"
       gradientUnits="userSpaceOnUse"
       gradientTransform="matrix(12.905043,0,0,12.905043,15.168393,272.61281)"
       spreadMethod="pad"
       id="radialGradient762">
      <stop
         style="stop-opacity:1;stop-color:#00adef"
         offset="0"
         id="stop758" />
      <stop
         style="stop-opacity:1;stop-color:#2e3192"
         offset="1"
         id="stop760" />
    </radialGradient>
  </defs>
  <sodipodi:namedview
     id="base"
     pagecolor="#ffffff"
     bordercolor="#666666"
     borderopacity="1.0"
     inkscape:pageopacity="0.0"
     inkscape:pageshadow="2"
     inkscape:zoom="1.979899"
     inkscape:cx="128.47425"
     inkscape:cy="139.22686"
     inkscape:document-units="mm"
     inkscape:current-layer="layer1"
     showgrid="false"
     inkscape:window-width="1879"
     inkscape:window-height="1059"
     inkscape:window-x="41"
     inkscape:window-y="21"
     inkscape:window-maximized="1" />
  <metadata
     id="metadata3030">
    <rdf:RDF>
      <cc:Work
         rdf:about="">
        <dc:format>image/svg+xml</dc:format>
        <dc:type
           rdf:resource="http://purl.org/dc/dcmitype/StillImage" />
        <dc:title></dc:title>
      </cc:Work>
    </rdf:RDF>
  </metadata>
  <g
     inkscape:label="Layer 1"
     inkscape:groupmode="layer"
     id="layer1"
     transform="translate(0,-277)">
    <path
       d="m 4.7164772,295.12804 c 0,0 5.7040628,0.68157 8.8028628,-2.52307 3.0988,-3.20463 1.400175,-4.70358 1.400175,-4.70358 l -5.0069748,-5.76757 c 0,0 -2.0676293,0.35984 0,-1.15323 2.0672778,-1.51271 4.6012798,-1.88806 4.6012798,-1.88806 0,0 -3.609269,-0.47802 -7.1853761,1.28199 -3.5754028,1.7593 -3.629025,1.81293 -3.629025,1.81293 l 1.0174111,6.6495 3.8297559,2.78836 v 2.25248 l -1.8587864,0.8255 z"
       style="fill:#ffffff;fill-opacity:1;fill-rule:evenodd;stroke:none;stroke-width:0.35277775"
       id="path1048"
       inkscape:connector-curvature="0" />
    <path
       d="m 4.7166545,295.12804 c 1.5024806,-0.38488 2.6458334,-0.81351 2.7823584,-1.35608 H 2.6123351 v -13.39779 h 4.7162858 c 0,0 -1.8637248,0.84173 -2.6588859,2.92276 -0.7948083,2.08104 1.5903221,3.74086 3.2734249,4.98017 1.683456,1.23966 4.4192461,2.85291 3.0166021,4.4898 -1.4029961,1.63653 -4.4192465,2.15088 -6.2431075,2.36114"
       style="fill:#99d420;fill-opacity:1;fill-rule:evenodd;stroke:none;stroke-width:0.35277775"
       id="path1052"
       inkscape:connector-curvature="0" />
    <path
       d="m 5.6490461,281.68527 c 0.8060973,-0.91687 1.6795748,-1.31128 1.6795748,-1.31128 H 2.6123351 l 0.026458,1.31128 z"
       style="fill:#80cc28;fill-opacity:1;fill-rule:evenodd;stroke:none;stroke-width:0.35277775"
       id="path1056"
       inkscape:connector-curvature="0" />
    <path
       d="m 14.513963,279.09249 c -1.502481,0.38523 -2.645834,0.81386 -2.782359,1.35643 h 4.886678 v 13.39744 h -4.716286 c 0,0 1.863725,-0.84137 2.658533,-2.92276 0.795161,-2.08069 -1.589969,-3.74086 -3.273425,-4.98017 -1.6834541,-1.2393 -4.4192458,-2.85256 -3.0162481,-4.48945 1.402997,-1.63653 4.4192451,-2.15088 6.2431071,-2.36149"
       style="fill:#008940;fill-opacity:1;fill-rule:evenodd;stroke:none;stroke-width:0.35277775"
       id="path1060"
       inkscape:connector-curvature="0" />
    <path
       d="m 14.552732,280.52565 c -1.50248,0.38523 -2.645833,0.81386 -2.782358,1.35643 h 4.847872 v 11.96446 H 13.72441 c 0.333728,-0.40146 0.648053,-0.89465 0.875241,-1.48943 0.216253,-0.56656 0.196498,-1.10243 0.01976,-1.6069 0.60325,-1.9999 -1.695803,-3.60222 -3.332339,-4.80695 -1.086555,-0.79975 -2.6116131,-1.75578 -3.1788791,-2.77354 0.05433,-0.0938 0.121003,-0.18803 0.201789,-0.28257 1.402643,-1.63619 4.4192451,-2.15089 6.2427531,-2.3615"
       style="fill:#00a650;fill-opacity:1;fill-rule:evenodd;stroke:none;stroke-width:0.35277775"
       id="path1064"
       inkscape:connector-curvature="0" />
    <path
       d="m 10.965194,292.75988 c 1.389591,-1.63442 -1.3405551,-3.24485 -3.0218941,-4.48275 -1.2477746,-0.91863 -2.8811356,-2.06798 -3.3192856,-3.44911 -0.5538611,1.97803 1.722261,3.56517 3.3457446,4.76038 1.113366,0.81915 2.6856961,1.80199 3.2183901,2.84692 -0.05433,0.10231 -0.122766,0.20461 -0.208138,0.30692 z"
       style="fill:#80cc28;fill-opacity:1;fill-rule:evenodd;stroke:none;stroke-width:0.35277775"
       id="path1068"
       inkscape:connector-curvature="0" />
    <path
       d="m 18.054156,281.93849 h 34.6583 l -1.943452,6.92326 H 18.054156 Z"
       style="fill:#009748;fill-opacity:1;fill-rule:evenodd;stroke:none;stroke-width:0.35277775"
       id="path1072"
       inkscape:connector-curvature="0" />
    <path
       d="m 19.201533,287.88198 0.374297,-1.47214 h 3.636786 c 0.109714,0 0.179564,-0.0589 0.20955,-0.17674 0.02011,-0.067 0.0187,-0.1136 -0.0039,-0.13864 -0.02222,-0.0254 -0.06103,-0.0381 -0.116064,-0.0381 h -2.798585 c -0.259291,-0.12877 -0.432858,-0.29986 -0.519994,-0.51294 -0.08749,-0.21308 -0.09631,-0.45438 -0.02646,-0.72355 l 0.134761,-0.51329 c 0.03528,-0.1457 0.107597,-0.29986 0.216958,-0.46249 0.110067,-0.16263 0.245886,-0.31292 0.407811,-0.45015 0.162278,-0.13723 0.340783,-0.25117 0.535164,-0.34078 0.194733,-0.0896 0.396522,-0.13441 0.606072,-0.13441 h 4.198408 l -0.374297,1.47214 h -3.636766 c -0.115005,0 -0.187325,0.0589 -0.217311,0.17639 -0.01976,0.0734 -0.01729,0.12065 0.0078,0.14323 0.02505,0.0222 0.06456,0.0335 0.119592,0.0335 h 2.791178 c 0.259644,0.12912 0.430389,0.30304 0.512586,0.52176 0.08255,0.21872 0.09102,0.4572 0.02646,0.71473 l -0.134761,0.51329 c -0.03493,0.14605 -0.107244,0.30022 -0.216958,0.46285 -0.109714,0.16263 -0.243417,0.31291 -0.400403,0.45014 -0.157339,0.13723 -0.333375,0.25083 -0.527756,0.34078 -0.19438,0.0896 -0.396522,0.13441 -0.606072,0.13441 z"
       style="fill:#ffffff;fill-opacity:1;fill-rule:nonzero;stroke:none;stroke-width:0.35277775"
       id="path1096"
       inkscape:connector-curvature="0" />
    <path
       d="m 28.488124,282.91861 -0.463902,1.82563 h 1.998133 l 0.463902,-1.82563 h 1.8034 l -1.264708,4.96323 h -1.8034 l 0.464256,-1.82527 h -1.998486 l -0.46355,1.82527 h -1.803753 l 1.264708,-4.96323 z"
       style="fill:#ffffff;fill-opacity:1;fill-rule:nonzero;stroke:none;stroke-width:0.35277775"
       id="path1100"
       inkscape:connector-curvature="0" />
    <path
       d="m 32.903384,282.91861 h 5.170665 l -0.373943,1.47214 h -3.367617 l -0.08996,0.35349 h 3.001078 l -0.336901,1.31233 h -3.000727 l -0.08996,0.35313 h 3.367617 l -0.373946,1.47214 h -5.171017 z"
       style="fill:#ffffff;fill-opacity:1;fill-rule:nonzero;stroke:none;stroke-width:0.35277775"
       id="path1104"
       inkscape:connector-curvature="0" />
    <path
       d="m 40.109645,284.38243 -0.08996,0.37006 h 2.110316 l 0.0374,-0.11782 c 0.01482,-0.0617 0.01376,-0.11924 -0.0035,-0.17216 -0.01765,-0.0536 -0.05609,-0.0801 -0.116062,-0.0801 z m -0.516467,2.03588 h 1.938163 c 0.05997,0 0.111125,-0.0254 0.153458,-0.0755 0.04233,-0.0508 0.07126,-0.1069 0.08608,-0.16863 l 0.02999,-0.12594 h -2.110317 z m 3.405013,-3.49956 c 0.20461,0 0.381704,0.0434 0.531283,0.13018 0.149577,0.0871 0.269521,0.19755 0.359127,0.33232 0.08961,0.13476 0.148519,0.28328 0.175684,0.44591 0.02752,0.16263 0.02151,0.31679 -0.01871,0.46249 l -0.127,0.50482 c -0.01516,0.0561 -0.04621,0.11501 -0.09349,0.17675 -0.04762,0.0617 -0.09983,0.12065 -0.157339,0.17674 -0.05715,0.0561 -0.113594,0.10654 -0.168275,0.15169 -0.05468,0.0448 -0.09984,0.078 -0.134761,0.1009 0.01516,0.0279 0.03881,0.0642 0.07091,0.109 0.03281,0.0448 0.06385,0.0956 0.09384,0.15135 0.02963,0.0561 0.05468,0.115 0.07479,0.17674 0.01976,0.0617 0.02222,0.12065 0.0074,0.17674 l -0.127352,0.49636 c -0.03951,0.15169 -0.114652,0.30691 -0.224367,0.46672 -0.109714,0.16016 -0.243064,0.30762 -0.400401,0.44168 -0.156988,0.13476 -0.332672,0.24589 -0.527405,0.33267 -0.194733,0.0868 -0.394052,0.13017 -0.598662,0.13017 h -4.302832 l 1.264709,-4.96323 z"
       style="fill:#ffffff;fill-opacity:1;fill-rule:nonzero;stroke:none;stroke-width:0.35277775"
       id="path1108"
       inkscape:connector-curvature="0" />
    <path
       d="m 48.692765,282.91861 1.279525,4.96323 h -3.120318 l -0.396523,-1.38783 0.02223,-0.0843 h 1.317273 l -0.351719,-1.43863 -2.2225,2.91077 h -1.968148 l 3.808942,-4.96323 z"
       style="fill:#ffffff;fill-opacity:1;fill-rule:nonzero;stroke:none;stroke-width:0.35277775"
       id="path1112"
       inkscape:connector-curvature="0" />
    <path
       d="m 19.700571,292.28169 h -1.256242 c -0.09102,0 -0.16898,-0.0261 -0.234244,-0.079 -0.06491,-0.0526 -0.117122,-0.11924 -0.155928,-0.20002 -0.03916,-0.0808 -0.06456,-0.16863 -0.07655,-0.26423 -0.01199,-0.0956 -0.01023,-0.18556 0.0046,-0.27164 l 0.244122,-1.28411 c 0.01552,-0.0854 0.04692,-0.17604 0.09454,-0.27164 0.04763,-0.0953 0.106892,-0.18345 0.177447,-0.26423 0.07056,-0.0804 0.147814,-0.14746 0.232481,-0.20003 0.08467,-0.0529 0.172508,-0.079 0.263878,-0.079 h 1.860902 l -0.16263,0.86431 h -1.623836 c -0.02363,0.007 -0.04445,0.0303 -0.06138,0.072 -0.01764,0.0409 -0.03175,0.0794 -0.04269,0.11607 l -0.146402,0.78034 c -0.0042,0.0194 -0.0064,0.0409 -0.0064,0.0639 v 0.0691 c 0.0021,0.0233 0.006,0.043 0.01129,0.0593 0.0053,0.0166 0.01482,0.025 0.02787,0.025 h 0.760941 c 0.02222,0 0.04304,-0.0201 0.06385,-0.0593 0.02046,-0.0395 0.03634,-0.0776 0.04692,-0.1136 l 0.0067,-0.0349 h -0.54363 l -0.198261,-0.72108 0.0095,-0.0494 h 1.285522 c 0.112889,0.0759 0.18803,0.1771 0.22613,0.3041 0.03775,0.12664 0.04198,0.26881 0.01129,0.42721 l -0.05856,0.29598 c -0.01517,0.0861 -0.04657,0.17604 -0.09419,0.27164 -0.04798,0.0956 -0.106538,0.18344 -0.175683,0.26423 -0.0695,0.0808 -0.146403,0.14746 -0.231069,0.20003 -0.08467,0.0529 -0.17145,0.079 -0.26035,0.079"
       style="fill:#231f20;fill-opacity:1;fill-rule:nonzero;stroke:none;stroke-width:0.35277775"
       id="path1116"
       inkscape:connector-curvature="0" />
    <path
       d="m 21.747105,290.23222 h 0.836436 c 0.01305,0 0.02293,0.007 0.02928,0.0219 0.0064,0.0148 0.01058,0.0332 0.01305,0.0547 0.0021,0.0212 0.0028,0.0437 0.0014,0.0667 -7.15e-4,0.0233 -0.0025,0.0444 -0.0049,0.0642 -0.0018,0.0166 -0.0071,0.036 -0.01447,0.0593 -0.0078,0.0229 -0.01658,0.0462 -0.02787,0.0691 -0.01058,0.0233 -0.02258,0.0427 -0.03563,0.0593 -0.01305,0.0166 -0.02575,0.0243 -0.03916,0.0243 h -0.836084 z m -1.171222,2.04964 h 0.784225 l 0.143227,-0.76553 h 0.507647 l 0.344664,0.76553 h 0.855839 l -0.403578,-1.01741 c 0.08043,-0.0131 0.1524,-0.0427 0.216606,-0.0889 0.06385,-0.0462 0.119592,-0.10301 0.167217,-0.17074 0.04798,-0.0674 0.08749,-0.1397 0.118886,-0.21696 0.0314,-0.0776 0.05468,-0.15558 0.0702,-0.2346 l 0.07126,-0.37077 c 0.01517,-0.0854 0.01764,-0.17603 0.0067,-0.27128 -0.01094,-0.0956 -0.03528,-0.1838 -0.07302,-0.26423 -0.0381,-0.0808 -0.08961,-0.14747 -0.15487,-0.20038 -0.06491,-0.0526 -0.142875,-0.0787 -0.234244,-0.0787 h -1.871134 z"
       style="fill:#231f20;fill-opacity:1;fill-rule:nonzero;stroke:none;stroke-width:0.35277775"
       id="path1120"
       inkscape:connector-curvature="0" />
    <path
       d="m 23.872063,289.36785 h 2.248606 l -0.162983,0.8643 h -1.464028 l -0.03916,0.20744 h 1.304925 l -0.146402,0.77046 h -1.304925 l -0.03916,0.20779 h 1.464381 l -0.162631,0.86395 h -2.248605 z"
       style="fill:#231f20;fill-opacity:1;fill-rule:nonzero;stroke:none;stroke-width:0.35277775"
       id="path1124"
       inkscape:connector-curvature="0" />
    <path
       d="m 26.390579,289.36785 h 2.248606 l -0.162631,0.8643 h -1.46438 l -0.03916,0.20744 h 1.304925 l -0.146402,0.77046 h -1.304925 l -0.03916,0.20779 h 1.464381 l -0.162631,0.86395 h -2.248605 z"
       style="fill:#231f20;fill-opacity:1;fill-rule:nonzero;stroke:none;stroke-width:0.35277775"
       id="path1128"
       inkscape:connector-curvature="0" />
    <path
       d="m 28.909129,289.36785 h 0.615246 l 0.809977,1.49648 0.283281,-1.49648 h 0.784225 l -0.549981,2.91394 h -0.640998 l -0.7874,-1.43686 -0.270227,1.43686 h -0.794103 z"
       style="fill:#231f20;fill-opacity:1;fill-rule:nonzero;stroke:none;stroke-width:0.35277775"
       id="path1132"
       inkscape:connector-curvature="0" />
    <path
       d="m 32.939545,289.36785 h 0.784225 l -0.38735,2.04999 h 1.226963 l -0.162632,0.86395 h -2.011185 z"
       style="fill:#231f20;fill-opacity:1;fill-rule:nonzero;stroke:none;stroke-width:0.35277775"
       id="path1136"
       inkscape:connector-curvature="0" />
    <path
       d="m 35.21743,289.36785 h 0.79093 l -0.549982,2.91394 h -0.790927 z"
       style="fill:#231f20;fill-opacity:1;fill-rule:nonzero;stroke:none;stroke-width:0.35277775"
       id="path1140"
       inkscape:connector-curvature="0" />
    <path
       d="m 36.275094,289.36785 h 0.614892 l 0.810331,1.49648 0.282927,-1.49648 h 0.78458 l -0.549982,2.91394 h -0.64135 l -0.787048,-1.43686 -0.270227,1.43686 h -0.794102 z"
       style="fill:#231f20;fill-opacity:1;fill-rule:nonzero;stroke:none;stroke-width:0.35277775"
       id="path1144"
       inkscape:connector-curvature="0" />
    <path
       d="m 39.03445,289.36785 h 2.248606 l -0.162631,0.8643 h -1.464379 l -0.03916,0.20744 h 1.304925 l -0.146405,0.77046 h -1.304925 l -0.03916,0.20779 h 1.464381 l -0.162631,0.86395 h -2.248604 z"
       style="fill:#231f20;fill-opacity:1;fill-rule:nonzero;stroke:none;stroke-width:0.35277775"
       id="path1148"
       inkscape:connector-curvature="0" />
    <path
       d="m 42.821979,289.36785 h 0.784225 l -0.38735,2.04999 h 1.226962 l -0.162631,0.86395 H 42.272 Z"
       style="fill:#231f20;fill-opacity:1;fill-rule:nonzero;stroke:none;stroke-width:0.35277775"
       id="path1152"
       inkscape:connector-curvature="0" />
    <path
       d="m 44.396884,289.36785 -0.162276,0.8643 h 0.819501 l -0.386995,2.04964 h 0.780695 l 0.38735,-2.04964 h 0.817034 l 0.162631,-0.8643 z"
       style="fill:#231f20;fill-opacity:1;fill-rule:nonzero;stroke:none;stroke-width:0.35277775"
       id="path1156"
       inkscape:connector-curvature="0" />
    <path
       d="m 47.702975,290.23222 -0.224367,1.18534 h 0.845963 c 0.024,-0.006 0.04551,-0.0335 0.06491,-0.0815 0.01976,-0.048 0.03281,-0.09 0.03916,-0.1263 l 0.146402,-0.77011 c 0.0024,-0.0166 0.0039,-0.037 0.0049,-0.0617 0.0011,-0.0247 0,-0.048 -0.0032,-0.0691 -0.0032,-0.0215 -0.0081,-0.0399 -0.01482,-0.0547 -0.0063,-0.0145 -0.01516,-0.0219 -0.02611,-0.0219 z m 0.699558,2.04964 h -1.870779 l 0.549627,-2.91394 h 1.871134 c 0.09102,0 0.168981,0.0261 0.234243,0.0787 0.06526,0.0529 0.116771,0.11959 0.154871,0.20038 0.03775,0.0804 0.06209,0.16862 0.07303,0.26423 0.01058,0.0952 0.0085,0.18591 -0.0067,0.27128 l -0.243769,1.28447 c -0.01516,0.0857 -0.04692,0.17603 -0.09454,0.27163 -0.04762,0.0956 -0.106188,0.18345 -0.175683,0.26424 -0.0695,0.0808 -0.146404,0.14746 -0.231071,0.20002 -0.08467,0.0526 -0.17145,0.079 -0.26035,0.079"
       style="fill:#231f20;fill-opacity:1;fill-rule:nonzero;stroke:none;stroke-width:0.35277775"
       id="path1160"
       inkscape:connector-curvature="0" />
    <path
       d="m 49.404846,291.61508 -0.08784,0.45931 c -0.0046,0.0166 -0.0071,0.037 -0.0081,0.0621 -0.0011,0.0243 0,0.0473 0.0032,0.0688 0.0032,0.0212 0.0081,0.0395 0.01447,0.0543 0.0067,0.0148 0.01553,0.0222 0.02611,0.0222 h 0.627944 c 0.01304,0 0.02574,-0.007 0.0374,-0.0222 0.01198,-0.0148 0.02294,-0.0332 0.03281,-0.0543 0.0095,-0.0215 0.01834,-0.0444 0.02612,-0.0688 0.0074,-0.0251 0.01341,-0.0455 0.01765,-0.0621 l 0.08819,-0.45931 c 0.0019,-0.0166 0.0035,-0.0367 0.0046,-0.0617 0.0011,-0.0247 7.94e-4,-0.048 -0.0019,-0.0691 -0.0019,-0.0215 -0.0056,-0.0395 -0.0113,-0.0543 -0.0053,-0.0148 -0.01447,-0.0222 -0.02752,-0.0222 h -0.627944 c -0.01093,0 -0.02257,0.007 -0.03422,0.0222 -0.01199,0.0148 -0.02328,0.0328 -0.03422,0.0543 -0.01093,0.0212 -0.02045,0.0444 -0.02928,0.0691 -0.0088,0.0251 -0.0141,0.0452 -0.01622,0.0617"
       style="fill:#231f20;fill-opacity:1;fill-rule:nonzero;stroke:none;stroke-width:0.35277775"
       id="path1164"
       inkscape:connector-curvature="0" />
  </g>
</svg>
