<?xml version="1.0" encoding="UTF-8" standalone="no"?>
<svg
   xmlns:dc="http://purl.org/dc/elements/1.1/"
   xmlns:cc="http://creativecommons.org/ns#"
   xmlns:rdf="http://www.w3.org/1999/02/22-rdf-syntax-ns#"
   xmlns:svg="http://www.w3.org/2000/svg"
   xmlns="http://www.w3.org/2000/svg"
   id="svg3033"
   version="1.1"
   viewBox="0 0 45 35"
   height="35mm"
   width="45mm">
  <defs
     id="defs3027">
    <clipPath
       id="clipPath660"
       clipPathUnits="userSpaceOnUse">
      <path
         id="path658"
         d="m 185.345,508.313 c 4.223,9.378 4.258,18.372 0,27.695 v 0 c -4.258,-9.323 -4.223,-18.317 0,-27.695" />
    </clipPath>
    <linearGradient
       id="linearGradient672"
       spreadMethod="pad"
       gradientTransform="matrix(-6.363236,-6e-7,-6e-7,6.363236,188.52637,522.16064)"
       gradientUnits="userSpaceOnUse"
       y2="0"
       x2="1"
       y1="0"
       x1="0">
      <stop
         id="stop666"
         offset="0"
         style="stop-opacity:1;stop-color:#176fc1" />
      <stop
         id="stop668"
         offset="0.79"
         style="stop-opacity:1;stop-color:#66cef5" />
      <stop
         id="stop670"
         offset="1"
         style="stop-opacity:1;stop-color:#33bdf2" />
    </linearGradient>
    <clipPath
       id="clipPath638"
       clipPathUnits="userSpaceOnUse">
      <path
         id="path636"
         d="m 185.345,507.59 c 5.615,12.47 5.662,24.429 0,36.828 v 0 c -5.662,-12.399 -5.615,-24.358 0,-36.828" />
    </clipPath>
    <linearGradient
       id="linearGradient650"
       spreadMethod="pad"
       gradientTransform="matrix(-1.6e-6,36.828125,36.828125,1.6e-6,185.34521,507.58984)"
       gradientUnits="userSpaceOnUse"
       y2="0"
       x2="1"
       y1="0"
       x1="0">
      <stop
         id="stop644"
         offset="0"
         style="stop-opacity:1;stop-color:#0994dc" />
      <stop
         id="stop646"
         offset="0.61"
         style="stop-opacity:1;stop-color:#0994dc" />
      <stop
         id="stop648"
         offset="1"
         style="stop-opacity:1;stop-color:#ed1c24" />
    </linearGradient>
    <clipPath
       id="clipPath614"
       clipPathUnits="userSpaceOnUse">
      <path
         id="path612"
         d="m 185.345,506.867 c 8.078,17.943 8.146,35.149 0,52.988 v 0 c -8.147,-17.839 -8.079,-35.045 0,-52.988" />
    </clipPath>
    <linearGradient
       id="linearGradient628"
       spreadMethod="pad"
       gradientTransform="matrix(-2.2e-6,50.867813,50.867813,2.2e-6,185.34521,507.92725)"
       gradientUnits="userSpaceOnUse"
       y2="0"
       x2="1"
       y1="0"
       x1="0">
      <stop
         id="stop620"
         offset="0"
         style="stop-opacity:1;stop-color:#2056ae" />
      <stop
         id="stop622"
         offset="0.45"
         style="stop-opacity:1;stop-color:#2056ae" />
      <stop
         id="stop624"
         offset="0.79"
         style="stop-opacity:1;stop-color:#ed1c24" />
      <stop
         id="stop626"
         offset="1"
         style="stop-opacity:1;stop-color:#f47216" />
    </linearGradient>
    <clipPath
       id="clipPath592"
       clipPathUnits="userSpaceOnUse">
      <path
         id="path590"
         d="m 150.994,501.582 c 0,-12.499 10.137,-22.635 22.634,-22.635 v 0 c 8.036,0 15.096,4.191 19.112,10.505 v 0 16.208 h -12.148 -2.016 v -9.588 c 0.111,0.04 0.224,0.08 0.342,0.12 v 0 c 2.945,1.001 8.112,1.889 9.028,-3.728 v 0 c -0.029,-0.251 -0.063,-0.5 -0.105,-0.746 v 0 c -1.08,-6.298 -6.778,-11.104 -13.644,-11.104 v 0 c -7.637,0 -13.83,5.945 -13.83,13.274 v 0 c 0,7.329 6.193,13.274 13.83,13.274 v 0 c 0.052,0 0.104,-10e-4 0.156,-10e-4 v 0 17.043 c -0.241,0.007 -0.482,0.011 -0.725,0.011 v 0 c -12.497,0 -22.634,-10.136 -22.634,-22.633 m 27.582,-5.51 v -0.204 0.204 c 0,0 0,0 0,0" />
    </clipPath>
    <linearGradient
       id="linearGradient604"
       spreadMethod="pad"
       gradientTransform="matrix(-41.746582,-3.6e-6,-3.6e-6,41.746582,192.74072,501.58105)"
       gradientUnits="userSpaceOnUse"
       y2="0"
       x2="1"
       y1="0"
       x1="0">
      <stop
         id="stop598"
         offset="0"
         style="stop-opacity:1;stop-color:#176fc1" />
      <stop
         id="stop600"
         offset="0.79"
         style="stop-opacity:1;stop-color:#66cef5" />
      <stop
         id="stop602"
         offset="1"
         style="stop-opacity:1;stop-color:#33bdf2" />
    </linearGradient>
    <linearGradient
       id="linearGradient1282"
       spreadMethod="pad"
       gradientTransform="matrix(-2.4694444e-6,-56.334657,56.334657,-2.4694444e-6,25.20399,303.63666)"
       gradientUnits="userSpaceOnUse"
       y2="0"
       x2="1"
       y1="0"
       x1="0">
      <stop
         id="stop1278"
         offset="0"
         style="stop-opacity:1;stop-color:#fbc707" />
      <stop
         id="stop1280"
         offset="1"
         style="stop-opacity:1;stop-color:#fff200" />
    </linearGradient>
    <linearGradient
       id="linearGradient1324"
       spreadMethod="pad"
       gradientTransform="matrix(-6.7027776e-7,-15.424704,15.424704,-6.7027776e-7,18.365131,288.37729)"
       gradientUnits="userSpaceOnUse"
       y2="0"
       x2="1"
       y1="0"
       x1="0">
      <stop
         id="stop1320"
         offset="0"
         style="stop-opacity:1;stop-color:#00a650" />
      <stop
         id="stop1322"
         offset="1"
         style="stop-opacity:1;stop-color:#99d420" />
    </linearGradient>
    <linearGradient
       id="linearGradient1304"
       spreadMethod="pad"
       gradientTransform="matrix(-2.2930555e-6,-52.503038,52.503038,-2.2930555e-6,22.253268,299.1408)"
       gradientUnits="userSpaceOnUse"
       y2="0"
       x2="1"
       y1="0"
       x1="0">
      <stop
         id="stop1298"
         offset="0"
         style="stop-opacity:1;stop-color:#ed1c24" />
      <stop
         id="stop1300"
         offset="0.24"
         style="stop-opacity:1;stop-color:#ed1c24" />
      <stop
         id="stop1302"
         offset="1"
         style="stop-opacity:1;stop-color:#fff200" />
    </linearGradient>
  </defs>
  <metadata
     id="metadata3030">
    <rdf:RDF>
      <cc:Work
         rdf:about="">
        <dc:format>image/svg+xml</dc:format>
        <dc:type
           rdf:resource="http://purl.org/dc/dcmitype/StillImage" />
        <dc:title></dc:title>
      </cc:Work>
    </rdf:RDF>
  </metadata>
  <g
     transform="translate(0,-262)"
     id="layer1">
    <path
       id="path1168"
       style="fill:#00a650;fill-opacity:1;fill-rule:nonzero;stroke:none;stroke-width:0.35277775"
       d="m 4.8073057,291.96915 c -0.2074333,0 -0.40005,-0.025 -0.5799667,-0.0758 -0.1792111,-0.0515 -0.3312583,-0.11183 -0.4554361,-0.18204 l -0.1647472,0.16722 H 3.4036029 l -0.030692,-1.227 h 0.2049642 c 0.046214,0.11677 0.1051278,0.23883 0.1770945,0.3683 0.071967,0.12876 0.1552222,0.24483 0.2490611,0.34678 0.097014,0.10689 0.2060222,0.19367 0.3263194,0.26035 0.1202973,0.067 0.2617612,0.10054 0.422275,0.10054 0.2173111,0 0.3831167,-0.0533 0.4988278,-0.1584 0.1153583,-0.10618 0.1732139,-0.23988 0.1732139,-0.40111 0,-0.13229 -0.049389,-0.24306 -0.1471083,-0.33372 -0.09772,-0.09 -0.2497667,-0.16722 -0.4554361,-0.23284 -0.1340556,-0.043 -0.257175,-0.0829 -0.3700639,-0.11994 -0.1114778,-0.0367 -0.2180167,-0.0741 -0.3164417,-0.11254 -0.2278944,-0.0907 -0.3979333,-0.22048 -0.508,-0.38982 -0.111125,-0.16862 -0.1665111,-0.35806 -0.1665111,-0.56726 0,-0.13229 0.028575,-0.25859 0.085725,-0.381 0.057856,-0.12171 0.1411111,-0.23107 0.2515306,-0.32914 0.1051277,-0.0907 0.2398888,-0.16475 0.4039305,-0.22225 0.1640417,-0.0571 0.3429,-0.0864 0.5358695,-0.0864 0.1883833,0 0.3647722,0.0261 0.5291666,0.0787 0.1640417,0.0512 0.2928056,0.10337 0.3866444,0.15628 l 0.14605,-0.14358 h 0.2081389 l 0.01905,1.15782 H 5.8222473 c -0.048331,-0.12488 -0.1044222,-0.25153 -0.1693333,-0.38206 -0.064205,-0.12982 -0.1326444,-0.23777 -0.2046111,-0.3242 -0.077611,-0.0921 -0.168275,-0.16545 -0.2702278,-0.22119 -0.1019527,-0.0547 -0.2211916,-0.0825 -0.3584222,-0.0825 -0.1721555,0 -0.3129139,0.0494 -0.422275,0.14605 -0.1093611,0.097 -0.1640417,0.21801 -0.1640417,0.36124 0,0.13617 0.047625,0.2466 0.1428751,0.33302 0.094897,0.0857 0.2427111,0.16158 0.4434416,0.22684 0.1181806,0.0402 0.2384778,0.0801 0.3608917,0.11995 0.1231194,0.0395 0.2328333,0.0776 0.3280833,0.1143 0.2314222,0.0896 0.4067528,0.21237 0.5274028,0.36971 0.1199443,0.15698 0.1806223,0.35207 0.1806223,0.5849 0,0.14711 -0.034572,0.28893 -0.1030113,0.42616 -0.068439,0.13688 -0.1608666,0.25047 -0.277636,0.34184 -0.127,0.10054 -0.2748139,0.17745 -0.4423834,0.23213 -0.1675694,0.054 -0.3626555,0.0808 -0.5863166,0.0808" />
    <path
       id="path1172"
       style="fill:#00a650;fill-opacity:1;fill-rule:nonzero;stroke:none;stroke-width:0.35277775"
       d="M 10.70635,291.87856 H 8.8715531 v -0.18697 c 0.04022,-0.002 0.09807,-0.007 0.174977,-0.0138 0.07655,-0.007 0.128764,-0.0166 0.158045,-0.0286 0.05891,-0.0247 0.09984,-0.0557 0.122061,-0.0949 0.02187,-0.0392 0.03351,-0.0889 0.03351,-0.14923 v -1.17016 h -1.449564 v 1.1437 c 0,0.054 0.01129,0.10301 0.03457,0.1457 0.02258,0.043 0.06279,0.0765 0.118181,0.10019 0.03034,0.013 0.08255,0.0268 0.155927,0.0409 0.07267,0.0148 0.132998,0.0236 0.178859,0.0261 v 0.18697 H 6.5636805 v -0.18697 c 0.039864,-8e-4 0.098778,-0.007 0.1753306,-0.0155 0.077964,-0.008 0.1340557,-0.0187 0.1689807,-0.0317 0.057503,-0.0215 0.097367,-0.0522 0.1199443,-0.0949 0.022225,-0.0423 0.033867,-0.0921 0.033867,-0.14923 v -2.40136 c 0,-0.0561 -0.010583,-0.10265 -0.030339,-0.14111 -0.02046,-0.0385 -0.061383,-0.072 -0.123472,-0.10054 -0.046214,-0.0212 -0.106539,-0.0399 -0.1816807,-0.0564 -0.074436,-0.0173 -0.1291167,-0.0268 -0.1626306,-0.03 v -0.18627 h 1.8344443 v 0.18627 c -0.04904,0.003 -0.108655,0.0113 -0.177094,0.0247 -0.06844,0.012 -0.121003,0.0244 -0.157692,0.0356 -0.06209,0.0205 -0.102658,0.0533 -0.123119,0.0988 -0.0194,0.0455 -0.02963,0.0938 -0.02963,0.14464 v 1.01494 h 1.449563 v -0.9906 c 0,-0.0561 -0.01093,-0.10265 -0.03104,-0.14111 -0.02152,-0.0385 -0.06209,-0.072 -0.12453,-0.10054 -0.04128,-0.0194 -0.09666,-0.0374 -0.166511,-0.054 -0.06914,-0.0169 -0.124531,-0.0275 -0.166511,-0.0325 v -0.18627 h 1.8347969 v 0.18627 c -0.0508,0.003 -0.10795,0.01 -0.172156,0.0205 -0.06385,0.0106 -0.121003,0.0236 -0.171803,0.0399 -0.06103,0.0205 -0.101952,0.0533 -0.122061,0.0977 -0.02082,0.0441 -0.03104,0.0931 -0.03104,0.1457 v 2.40418 c 0,0.0575 0.01023,0.10654 0.03104,0.1457 0.02011,0.0399 0.06103,0.0734 0.122061,0.10019 0.03775,0.0162 0.09313,0.031 0.165806,0.0434 0.07267,0.0127 0.132292,0.0212 0.178153,0.0236 z" />
    <path
       id="path1176"
       style="fill:#00a650;fill-opacity:1;fill-rule:nonzero;stroke:none;stroke-width:0.35277775"
       d="m 14.046377,289.3502 h -0.182386 c -0.04621,-0.12912 -0.125236,-0.25964 -0.238831,-0.39193 -0.113594,-0.1323 -0.225425,-0.21097 -0.337255,-0.23425 -0.04833,-0.012 -0.1143,-0.018 -0.200025,-0.0208 -0.08502,-0.002 -0.155928,-0.004 -0.211314,-0.004 H 12.38409 v 1.31163 h 0.348543 c 0.08819,0 0.167569,-0.0106 0.239183,-0.0314 0.07197,-0.0208 0.137231,-0.0603 0.19685,-0.11995 0.03598,-0.0363 0.07373,-0.10125 0.110773,-0.19297 0.0381,-0.0924 0.06138,-0.17357 0.07303,-0.24201 h 0.182033 v 1.41676 h -0.182038 c -0.0099,-0.0681 -0.03387,-0.15205 -0.07303,-0.25329 -0.03881,-0.10125 -0.07655,-0.17075 -0.110773,-0.2092 -0.05327,-0.0571 -0.115005,-0.097 -0.187325,-0.11818 -0.07161,-0.0212 -0.153811,-0.0321 -0.248708,-0.0321 h -0.348543 v 0.9786 c 0,0.10195 0.0074,0.18239 0.02223,0.24201 0.01552,0.0596 0.0441,0.10654 0.08467,0.13829 0.03986,0.03 0.09454,0.0494 0.164041,0.0596 0.0695,0.01 0.164042,0.0138 0.283281,0.0138 0.0568,0 0.123472,-7.9e-4 0.201083,-0.002 0.07832,-7.9e-4 0.146756,-0.006 0.20567,-0.0138 0.06703,-0.008 0.129821,-0.0204 0.187677,-0.036 0.05891,-0.0166 0.102305,-0.0392 0.130527,-0.0695 0.07691,-0.0783 0.162631,-0.1972 0.258234,-0.35772 0.09631,-0.1598 0.159103,-0.2801 0.189441,-0.35983 h 0.174625 l -0.06456,1.05728 h -3.18417 v -0.18697 c 0.04515,-0.002 0.105481,-0.009 0.182034,-0.0187 0.07691,-0.01 0.130527,-0.0208 0.16263,-0.0335 0.06033,-0.0254 0.100895,-0.0582 0.121708,-0.0974 0.02117,-0.0385 0.03175,-0.0889 0.03175,-0.14923 v -2.39395 c 0,-0.0578 -0.0092,-0.10512 -0.02681,-0.14252 -0.01729,-0.0381 -0.05962,-0.0716 -0.126647,-0.10125 -0.04163,-0.0197 -0.09948,-0.037 -0.174978,-0.0533 -0.07514,-0.0155 -0.131233,-0.0261 -0.169686,-0.031 v -0.18627 h 3.009546 z" />
    <path
       id="path1180"
       style="fill:#00a650;fill-opacity:1;fill-rule:nonzero;stroke:none;stroke-width:0.35277775"
       d="m 16.964345,290.92909 c 0,-0.23601 -0.0702,-0.41733 -0.210961,-0.54292 -0.140053,-0.12595 -0.341842,-0.18945 -0.605014,-0.18945 -0.02963,0 -0.07091,0.002 -0.120297,0.004 -0.0508,0.002 -0.08749,0.004 -0.111478,0.005 v 1.24213 c 0.01411,0.0589 0.05891,0.1083 0.134056,0.14958 0.07444,0.0406 0.165805,0.06 0.27305,0.06 0.189089,0 0.343252,-0.0635 0.462491,-0.19121 0.118534,-0.127 0.178153,-0.30691 0.178153,-0.53763 m -0.167569,-1.62877 c 0,-0.18874 -0.05292,-0.33479 -0.159103,-0.44027 -0.106186,-0.10513 -0.265289,-0.15804 -0.477308,-0.15804 -0.03034,0 -0.06985,0.001 -0.118534,0.004 -0.04833,0.002 -0.08996,0.004 -0.125236,0.006 v 1.25801 h 0.124531 c 0.25788,0 0.448733,-0.0603 0.5715,-0.18027 0.122414,-0.12065 0.18415,-0.28328 0.18415,-0.48895 m 0.770113,1.02094 c 0.101953,0.0705 0.185209,0.15875 0.249062,0.26387 0.06385,0.10619 0.0956,0.23143 0.0956,0.37501 0,0.17215 -0.03704,0.3175 -0.108655,0.43673 -0.07267,0.11819 -0.177095,0.21238 -0.312914,0.28082 -0.142875,0.0734 -0.308681,0.12523 -0.496358,0.15522 -0.18662,0.03 -0.407106,0.0455 -0.661106,0.0455 h -1.76283 v -0.18697 c 0.05009,-0.004 0.11183,-0.0113 0.186972,-0.0208 0.07408,-0.0102 0.127705,-0.0208 0.157339,-0.0339 0.05891,-0.0236 0.09984,-0.0554 0.121002,-0.0949 0.02117,-0.0381 0.03281,-0.0889 0.03281,-0.15134 v -2.39184 c 0,-0.0578 -0.0088,-0.10512 -0.02716,-0.14358 -0.01693,-0.0381 -0.05962,-0.0716 -0.126647,-0.10019 -0.04939,-0.0215 -0.106539,-0.0385 -0.172156,-0.0519 -0.06526,-0.0138 -0.122061,-0.0244 -0.172155,-0.0321 v -0.18662 h 1.844322 c 0.463903,0 0.798336,0.0639 1.004358,0.19121 0.205669,0.12735 0.308328,0.31609 0.308328,0.56515 0,0.1143 -0.02258,0.21519 -0.06914,0.30198 -0.04586,0.0871 -0.112183,0.16228 -0.198614,0.22613 -0.07726,0.0589 -0.171449,0.11006 -0.280105,0.15346 -0.107597,0.0427 -0.224014,0.0783 -0.348544,0.10689 v 0.0459 c 0.12453,0.013 0.253294,0.0399 0.38735,0.0822 0.133702,0.043 0.250472,0.0974 0.349249,0.16404" />
    <path
       id="path1184"
       style="fill:#00a650;fill-opacity:1;fill-rule:nonzero;stroke:none;stroke-width:0.35277775"
       d="m 20.181043,290.50533 -0.492477,-1.22942 -0.485423,1.22942 z m 1.782586,1.37337 h -1.849261 v -0.18733 c 0.08643,-0.005 0.187678,-0.0208 0.303389,-0.0466 0.11677,-0.0243 0.174625,-0.0554 0.174625,-0.091 0,-0.013 -7.14e-4,-0.0279 -0.0032,-0.0434 -0.0025,-0.0162 -0.0088,-0.0378 -0.02011,-0.0646 l -0.289983,-0.70379 h -1.171575 c -0.02681,0.0653 -0.05715,0.14217 -0.08996,0.23001 -0.03281,0.0875 -0.06138,0.16581 -0.08467,0.2346 -0.03034,0.0889 -0.04833,0.15346 -0.05397,0.19332 -0.0056,0.0399 -0.0085,0.0681 -0.0085,0.084 0,0.0508 0.03881,0.0942 0.116064,0.13018 0.07761,0.0356 0.205669,0.0617 0.386292,0.0773 v 0.18733 h -1.392062 v -0.18733 c 0.05221,-0.002 0.111831,-0.0113 0.178153,-0.0243 0.06597,-0.0138 0.118534,-0.0328 0.156634,-0.0561 0.06526,-0.0388 0.121002,-0.0857 0.166511,-0.14146 0.04515,-0.0557 0.08325,-0.12171 0.113594,-0.19826 0.18415,-0.44839 0.369711,-0.89747 0.555978,-1.34726 0.185914,-0.44909 0.390878,-0.94545 0.615597,-1.48767 h 0.478367 c 0.312561,0.76906 0.557741,1.37654 0.734836,1.82316 0.177447,0.44591 0.327378,0.81633 0.451555,1.10948 0.02117,0.0483 0.04727,0.0917 0.07937,0.13053 0.0314,0.0388 0.07726,0.0762 0.136173,0.11148 0.0448,0.0251 0.09631,0.0448 0.155927,0.0572 0.05891,0.0127 0.111831,0.0208 0.160161,0.0233 z" />
    <path
       id="path1188"
       style="fill:#00a650;fill-opacity:1;fill-rule:nonzero;stroke:none;stroke-width:0.35277775"
       d="m 27.017133,290.49877 c -0.04904,0.004 -0.09313,0.01 -0.131233,0.0162 -0.03845,0.006 -0.08643,0.0198 -0.143581,0.0385 -0.06562,0.0205 -0.109008,0.0547 -0.129469,0.10266 -0.02011,0.0483 -0.03069,0.0981 -0.03069,0.15029 v 0.39511 c 0,0.0804 7.15e-4,0.14358 0.0021,0.19261 0.0018,0.0483 0.0042,0.10901 0.0078,0.18063 -0.160161,0.0956 -0.395464,0.1852 -0.70732,0.27022 -0.311855,0.085 -0.598311,0.12665 -0.859366,0.12665 -0.246239,0 -0.47625,-0.0378 -0.691797,-0.11218 -0.215548,-0.0748 -0.404284,-0.18768 -0.566561,-0.33796 -0.163337,-0.14782 -0.290689,-0.33197 -0.384881,-0.55175 -0.09278,-0.22048 -0.139347,-0.47166 -0.139347,-0.756 0,-0.26458 0.0441,-0.50941 0.131586,-0.73413 0.08819,-0.22507 0.214489,-0.41875 0.380294,-0.58103 0.162631,-0.16157 0.360892,-0.2861 0.594431,-0.37324 0.233539,-0.0882 0.492125,-0.13229 0.776464,-0.13229 0.192616,0 0.371122,0.024 0.535516,0.0709 0.164042,0.0466 0.299861,0.0974 0.406753,0.15205 l 0.148167,-0.13159 h 0.208491 l 0.02117,1.23896 h -0.210608 c -0.121003,-0.37183 -0.266347,-0.6477 -0.434975,-0.82727 -0.169334,-0.18062 -0.383117,-0.27058 -0.64135,-0.27058 -0.305859,0 -0.542925,0.13406 -0.709084,0.40182 -0.166511,0.26811 -0.249766,0.63711 -0.249766,1.10737 0,0.49953 0.08149,0.8897 0.244828,1.17228 0.163336,0.28257 0.395111,0.42298 0.694619,0.42298 0.140406,0 0.265642,-0.0212 0.37465,-0.0628 0.109714,-0.0427 0.194381,-0.0914 0.255058,-0.14675 v -0.68968 c 0,-0.0579 -0.01058,-0.10584 -0.03104,-0.14429 -0.02152,-0.0392 -0.06244,-0.0734 -0.124883,-0.10195 -0.04727,-0.0219 -0.10795,-0.0409 -0.178859,-0.0547 -0.07197,-0.0148 -0.132291,-0.0254 -0.179564,-0.031 v -0.18697 h 1.762478 z" />
    <path
       id="path1192"
       style="fill:#00a650;fill-opacity:1;fill-rule:nonzero;stroke:none;stroke-width:0.35277775"
       d="m 29.46005,289.355 c 0,-0.22649 -0.06385,-0.39194 -0.190147,-0.49636 -0.127353,-0.10478 -0.307975,-0.15699 -0.54222,-0.15699 H 28.5393 v 1.4217 h 0.180975 c 0.234244,0 0.41663,-0.0621 0.545394,-0.18486 0.128764,-0.12241 0.194381,-0.3175 0.194381,-0.58349 m 1.628774,2.52342 h -1.301396 c -0.225425,-0.34431 -0.412045,-0.61913 -0.560917,-0.82303 -0.149225,-0.20391 -0.334433,-0.43992 -0.555978,-0.70803 H 28.5393 v 1.03117 c 0,0.0575 0.01058,0.10654 0.0314,0.1457 0.02152,0.0402 0.06315,0.0734 0.123472,0.10054 0.03034,0.013 0.07761,0.0261 0.14217,0.0399 0.06456,0.013 0.119944,0.0229 0.166511,0.0268 v 0.18697 h -1.811161 v -0.18697 c 0.04692,-0.004 0.107244,-0.0113 0.183091,-0.0198 0.0762,-0.009 0.129823,-0.0194 0.161925,-0.0321 0.06032,-0.0257 0.100895,-0.0582 0.121709,-0.0977 0.02081,-0.0381 0.0314,-0.0889 0.0314,-0.14922 v -2.39396 c 0,-0.0578 -0.0088,-0.10512 -0.02681,-0.14358 -0.01729,-0.0381 -0.05962,-0.0716 -0.126295,-0.10018 -0.0508,-0.0215 -0.111477,-0.0388 -0.180622,-0.0533 -0.0695,-0.0141 -0.123825,-0.0243 -0.164394,-0.0307 v -0.18662 h 1.904294 c 0.426156,0 0.749654,0.0663 0.969787,0.19932 0.221544,0.13335 0.33161,0.33479 0.33161,0.60431 0,0.23742 -0.06844,0.42828 -0.204965,0.57327 -0.136525,0.14463 -0.343603,0.25682 -0.622651,0.33796 0.108302,0.1404 0.23495,0.30268 0.379589,0.48789 0.143579,0.18556 0.293862,0.3743 0.450496,0.56691 0.04904,0.0632 0.116771,0.13865 0.201438,0.22825 0.08608,0.09 0.160866,0.14535 0.226483,0.16686 0.03634,0.0106 0.0829,0.0205 0.140052,0.0286 0.0568,0.008 0.09666,0.013 0.121002,0.0138 z" />
    <path
       id="path1196"
       style="fill:#00a650;fill-opacity:1;fill-rule:nonzero;stroke:none;stroke-width:0.35277775"
       d="m 34.107508,289.3502 h -0.182385 c -0.04621,-0.12912 -0.12559,-0.25964 -0.238832,-0.39193 -0.113945,-0.1323 -0.225777,-0.21097 -0.337254,-0.23425 -0.04833,-0.012 -0.114654,-0.018 -0.200379,-0.0208 -0.08467,-0.002 -0.155575,-0.004 -0.21096,-0.004 h -0.492477 v 1.31163 h 0.348191 c 0.08819,0 0.167569,-0.0106 0.239536,-0.0314 0.07161,-0.0208 0.137231,-0.0603 0.19685,-0.11995 0.03563,-0.0363 0.07338,-0.10125 0.110773,-0.19297 0.03775,-0.0924 0.06138,-0.17357 0.07267,-0.24201 h 0.182034 v 1.41676 h -0.182034 c -0.0095,-0.0681 -0.03351,-0.15205 -0.07267,-0.25329 -0.03916,-0.10125 -0.07655,-0.17075 -0.110773,-0.2092 -0.05327,-0.0571 -0.115007,-0.097 -0.187325,-0.11818 -0.07162,-0.0212 -0.154165,-0.0321 -0.24906,-0.0321 h -0.348192 v 0.9786 c 0,0.10195 0.0074,0.18239 0.02188,0.24201 0.01553,0.0596 0.0441,0.10654 0.08502,0.13829 0.03986,0.03 0.09454,0.0494 0.164042,0.0596 0.06949,0.01 0.164041,0.0138 0.282927,0.0138 0.0568,0 0.123473,-7.9e-4 0.201435,-0.002 0.07796,-7.9e-4 0.146756,-0.006 0.205671,-0.0138 0.06668,-0.008 0.129469,-0.0204 0.187677,-0.036 0.05856,-0.0166 0.101952,-0.0392 0.130527,-0.0695 0.07691,-0.0783 0.162631,-0.1972 0.258233,-0.35772 0.09631,-0.1598 0.159105,-0.2801 0.189442,-0.35983 H 34.3467 l -0.06456,1.05728 h -3.184182 v -0.18697 c 0.0448,-0.002 0.105479,-0.009 0.182034,-0.0187 0.07655,-0.01 0.130527,-0.0208 0.162277,-0.0335 0.06068,-0.0254 0.101248,-0.0582 0.121708,-0.0974 0.02151,-0.0385 0.0321,-0.0889 0.0321,-0.14923 v -2.39395 c 0,-0.0578 -0.0092,-0.10512 -0.02716,-0.14252 -0.01693,-0.0381 -0.05962,-0.0716 -0.126648,-0.10125 -0.04163,-0.0197 -0.09948,-0.037 -0.174625,-0.0533 -0.07514,-0.0155 -0.131234,-0.0261 -0.169686,-0.031 v -0.18627 h 3.009546 z" />
    <path
       id="path1200"
       style="fill:#00a650;fill-opacity:1;fill-rule:nonzero;stroke:none;stroke-width:0.35277775"
       d="m 37.640084,289.3502 h -0.182033 c -0.04621,-0.12912 -0.125587,-0.25964 -0.239183,-0.39193 -0.113594,-0.1323 -0.225425,-0.21097 -0.336902,-0.23425 -0.04833,-0.012 -0.114652,-0.018 -0.200377,-0.0208 -0.08502,-0.002 -0.15593,-0.004 -0.211315,-0.004 h -0.492477 v 1.31163 h 0.348544 c 0.08819,0 0.167568,-0.0106 0.239183,-0.0314 0.07197,-0.0208 0.137583,-0.0603 0.197202,-0.11995 0.03563,-0.0363 0.07338,-0.10125 0.110773,-0.19297 0.03775,-0.0924 0.06103,-0.17357 0.07267,-0.24201 h 0.182034 v 1.41676 h -0.182034 c -0.0099,-0.0681 -0.03387,-0.15205 -0.07267,-0.25329 -0.03916,-0.10125 -0.07691,-0.17075 -0.110773,-0.2092 -0.05362,-0.0571 -0.115358,-0.097 -0.187325,-0.11818 -0.07197,-0.0212 -0.154162,-0.0321 -0.24906,-0.0321 h -0.348544 v 0.9786 c 0,0.10195 0.0074,0.18239 0.02222,0.24201 0.01553,0.0596 0.0441,0.10654 0.08467,0.13829 0.03986,0.03 0.09454,0.0494 0.164394,0.0596 0.06914,0.01 0.163689,0.0138 0.282926,0.0138 0.0568,0 0.123473,-7.9e-4 0.201084,-0.002 0.07832,-7.9e-4 0.147108,-0.006 0.205671,-0.0138 0.06703,-0.008 0.12982,-0.0204 0.187677,-0.036 0.05891,-0.0166 0.102306,-0.0392 0.130527,-0.0695 0.07691,-0.0783 0.162631,-0.1972 0.258233,-0.35772 0.09631,-0.1598 0.159105,-0.2801 0.189442,-0.35983 h 0.174979 l -0.06491,1.05728 h -3.183818 v -0.18697 c 0.0448,-0.002 0.105127,-0.009 0.181681,-0.0187 0.0769,-0.01 0.130527,-0.0208 0.162629,-0.0335 0.06032,-0.0254 0.101248,-0.0582 0.121708,-0.0974 0.02117,-0.0385 0.03175,-0.0889 0.03175,-0.14923 v -2.39395 c 0,-0.0578 -0.0092,-0.10512 -0.02681,-0.14252 -0.01728,-0.0381 -0.05962,-0.0716 -0.126648,-0.10125 -0.04163,-0.0197 -0.09948,-0.037 -0.174977,-0.0533 -0.07514,-0.0155 -0.131233,-0.0261 -0.169333,-0.031 v -0.18627 h 3.009193 z" />
    <path
       id="path1204"
       style="fill:#00a650;fill-opacity:1;fill-rule:nonzero;stroke:none;stroke-width:0.35277775"
       d="m 42.062894,288.67082 c -0.04515,0.005 -0.108654,0.0138 -0.19191,0.0268 -0.0822,0.012 -0.157692,0.043 -0.224719,0.0931 -0.05891,0.0434 -0.101248,0.11677 -0.12559,0.2212 -0.02434,0.10442 -0.03704,0.25788 -0.03704,0.46037 v 2.425 h -0.426157 l -2.11455,-2.62326 v 1.59315 c 0,0.1972 0.01304,0.34748 0.04057,0.45049 0.02574,0.10266 0.06844,0.1778 0.127,0.22613 0.04339,0.0349 0.111829,0.066 0.206021,0.0928 0.09349,0.0272 0.168629,0.0459 0.225425,0.055 v 0.18697 h -1.459087 v -0.18697 c 0.06209,-0.004 0.132995,-0.0162 0.213783,-0.0342 0.08008,-0.018 0.147812,-0.0466 0.201787,-0.085 0.06174,-0.0466 0.10513,-0.11607 0.128058,-0.2092 0.02257,-0.0938 0.03493,-0.25047 0.03493,-0.47025 v -1.60761 c 0,-0.079 -0.01304,-0.15487 -0.03739,-0.22578 -0.02434,-0.0713 -0.06385,-0.13158 -0.116065,-0.18309 -0.05539,-0.054 -0.119943,-0.0963 -0.192617,-0.12806 -0.07267,-0.031 -0.15522,-0.055 -0.247295,-0.0727 v -0.19121 h 1.276702 l 1.857023,2.29588 v -1.28411 c 0,-0.20426 -0.0141,-0.35631 -0.04127,-0.45579 -0.02681,-0.0995 -0.07021,-0.17286 -0.128765,-0.22119 -0.04657,-0.037 -0.115006,-0.0684 -0.205668,-0.0949 -0.09102,-0.0261 -0.164397,-0.0441 -0.220488,-0.0536 v -0.18627 h 1.457325 z" />
    <path
       id="path1208"
       style="fill:#4f4c4d;fill-opacity:1;fill-rule:nonzero;stroke:none;stroke-width:0.35277775"
       d="M 4.9440768,293.64347 H 4.8396545 c -0.019756,-0.073 -0.059972,-0.15169 -0.1217083,-0.2346 -0.061383,-0.0833 -0.12065,-0.12947 -0.1774472,-0.13793 -0.028222,-0.004 -0.062089,-0.006 -0.1019528,-0.008 -0.039158,-0.002 -0.083608,-0.003 -0.1337028,-0.003 H 3.9739379 v 0.79234 h 0.2264833 c 0.068439,0 0.1213556,-0.007 0.1598083,-0.0212 0.037747,-0.0148 0.070556,-0.0367 0.097014,-0.0663 0.018697,-0.0201 0.035631,-0.0519 0.0508,-0.0949 0.015522,-0.0434 0.025047,-0.0892 0.029986,-0.13864 H 4.64351 v 0.77399 H 4.5380296 c -0.00282,-0.0409 -0.0127,-0.0868 -0.028575,-0.13899 -0.015875,-0.0519 -0.033514,-0.0892 -0.052211,-0.11254 -0.027517,-0.0339 -0.062794,-0.0578 -0.104775,-0.0702 -0.042333,-0.0124 -0.092781,-0.0187 -0.1520472,-0.0187 H 3.9739379 v 0.67945 c 0,0.031 0.006,0.0579 0.017992,0.0822 0.011994,0.024 0.033514,0.0437 0.063853,0.0582 0.013758,0.007 0.043745,0.0145 0.090311,0.0236 0.046567,0.01 0.081844,0.0145 0.1058333,0.0152 v 0.0988 h -0.854781 v -0.0987 c 0.027869,-0.002 0.064911,-0.005 0.111125,-0.009 0.046567,-0.004 0.0762,-0.01 0.090664,-0.0162 0.027517,-0.0117 0.047625,-0.0296 0.059972,-0.0536 0.013053,-0.0233 0.01905,-0.0515 0.01905,-0.0854 v -1.42275 c 0,-0.0307 -0.00529,-0.0575 -0.015169,-0.0811 -0.010231,-0.0236 -0.03175,-0.0427 -0.063853,-0.0579 -0.0254,-0.012 -0.058914,-0.0229 -0.1012472,-0.0317 -0.042333,-0.01 -0.075142,-0.0148 -0.1005417,-0.0166 v -0.0984 h 1.5469306 z" />
    <path
       id="path1212"
       style="fill:#4f4c4d;fill-opacity:1;fill-rule:nonzero;stroke:none;stroke-width:0.35277775"
       d="m 6.9760079,295.1221 h -0.888647 v -0.0988 c 0.0254,-0.002 0.061383,-0.005 0.1086554,-0.008 0.047625,-0.003 0.080786,-0.009 0.1001889,-0.0169 0.030339,-0.0117 0.052917,-0.0282 0.067028,-0.049 0.013758,-0.0208 0.020108,-0.0497 0.020108,-0.0868 v -1.42875 c 0,-0.0321 -0.00459,-0.0593 -0.015169,-0.0811 -0.00988,-0.0215 -0.033867,-0.0399 -0.071967,-0.055 -0.027869,-0.0106 -0.062442,-0.0212 -0.1051277,-0.0314 -0.041981,-0.009 -0.0762,-0.0152 -0.1037166,-0.0169 v -0.0984 h 0.888647 v 0.0984 c -0.028928,10e-4 -0.063147,0.004 -0.103011,0.0106 -0.039864,0.006 -0.074436,0.0138 -0.1044223,0.0226 -0.034925,0.0113 -0.058561,0.0293 -0.070555,0.0543 -0.012348,0.0251 -0.017992,0.0529 -0.017992,0.0836 v 1.42698 c 0,0.0303 0.0067,0.0575 0.019757,0.0811 0.013406,0.0236 0.036336,0.0427 0.068792,0.0561 0.019757,0.008 0.051506,0.0159 0.095603,0.0247 0.043744,0.009 0.080786,0.0138 0.1118304,0.0145 z" />
    <path
       id="path1216"
       style="fill:#4f4c4d;fill-opacity:1;fill-rule:nonzero;stroke:none;stroke-width:0.35277775"
       d="m 9.8009804,294.53575 -0.04163,0.58632 H 8.2184171 v -0.0988 c 0.02187,-0.002 0.05433,-0.005 0.09666,-0.01 0.04198,-0.004 0.07126,-0.0106 0.08819,-0.018 0.02716,-0.0116 0.04798,-0.0293 0.06033,-0.0529 0.0127,-0.0229 0.0187,-0.0522 0.0187,-0.0885 v -1.41217 c 0,-0.031 -0.0053,-0.0593 -0.01587,-0.0833 -0.01058,-0.024 -0.0321,-0.0437 -0.06315,-0.0586 -0.02117,-0.0106 -0.05115,-0.0215 -0.08961,-0.0328 -0.03845,-0.0102 -0.0702,-0.0166 -0.09525,-0.018 v -0.0988 h 0.832203 v 0.0988 c -0.02611,7.9e-4 -0.05927,0.005 -0.100542,0.0138 -0.04128,0.008 -0.07091,0.0155 -0.08961,0.0222 -0.03175,0.0106 -0.05292,0.0296 -0.06526,0.0568 -0.01129,0.0268 -0.01658,0.0554 -0.01658,0.0861 v 1.32433 c 0,0.0614 0.0025,0.10865 0.0088,0.14252 0.0063,0.0335 0.02011,0.0596 0.04198,0.0787 0.02152,0.0166 0.05292,0.0275 0.0956,0.0325 0.04233,0.005 0.100894,0.007 0.177094,0.007 0.03422,0 0.0702,-2.6e-4 0.106892,-0.002 0.03704,-0.002 0.07197,-0.006 0.105833,-0.012 0.0321,-0.005 0.06209,-0.013 0.08961,-0.0222 0.02681,-0.01 0.04763,-0.0226 0.06032,-0.037 0.03775,-0.043 0.08184,-0.10724 0.132645,-0.19367 0.05009,-0.0868 0.08537,-0.15734 0.105127,-0.21061 z" />
    <path
       id="path1220"
       style="fill:#4f4c4d;fill-opacity:1;fill-rule:nonzero;stroke:none;stroke-width:0.35277775"
       d="m 12.51363,294.53575 -0.04163,0.58632 h -1.541285 v -0.0988 c 0.02222,-0.002 0.05468,-0.005 0.09666,-0.01 0.04233,-0.004 0.07161,-0.0106 0.08819,-0.018 0.02752,-0.0116 0.04798,-0.0293 0.06033,-0.0529 0.01305,-0.0229 0.01905,-0.0522 0.01905,-0.0885 v -1.41217 c 0,-0.031 -0.0053,-0.0593 -0.01587,-0.0833 -0.01058,-0.024 -0.0321,-0.0437 -0.0635,-0.0586 -0.02081,-0.0106 -0.0508,-0.0215 -0.0896,-0.0328 -0.0381,-0.0102 -0.06985,-0.0166 -0.09525,-0.018 v -0.0988 h 0.832556 v 0.0988 c -0.02611,7.9e-4 -0.05927,0.005 -0.100542,0.0138 -0.04128,0.008 -0.07091,0.0155 -0.08961,0.0222 -0.03175,0.0106 -0.05327,0.0296 -0.06526,0.0568 -0.01129,0.0268 -0.01658,0.0554 -0.01658,0.0861 v 1.32433 c 0,0.0614 0.0025,0.10865 0.0088,0.14252 0.0063,0.0335 0.01976,0.0596 0.04198,0.0787 0.02152,0.0166 0.05292,0.0275 0.0956,0.0325 0.04233,0.005 0.100894,0.007 0.176742,0.007 0.03457,0 0.0702,-2.6e-4 0.107244,-0.002 0.03704,-0.002 0.07197,-0.006 0.105481,-0.012 0.03245,-0.005 0.06244,-0.013 0.08996,-0.0222 0.02681,-0.01 0.04727,-0.0226 0.06033,-0.037 0.03775,-0.043 0.08184,-0.10724 0.132644,-0.19367 0.05009,-0.0868 0.08537,-0.15734 0.105127,-0.21061 z" />
    <path
       id="path1224"
       style="fill:#4f4c4d;fill-opacity:1;fill-rule:nonzero;stroke:none;stroke-width:0.35277775"
       d="m 14.505236,295.1221 h -0.888647 v -0.0988 c 0.0254,-0.002 0.06138,-0.005 0.109008,-0.008 0.04727,-0.003 0.08079,-0.009 0.09984,-0.0169 0.03034,-0.0117 0.05292,-0.0282 0.06703,-0.049 0.01376,-0.0208 0.02011,-0.0497 0.02011,-0.0868 v -1.42875 c 0,-0.0321 -0.0042,-0.0593 -0.01517,-0.0811 -0.0099,-0.0215 -0.03387,-0.0399 -0.07197,-0.055 -0.02787,-0.0106 -0.06244,-0.0212 -0.104775,-0.0314 -0.04233,-0.009 -0.07655,-0.0152 -0.104069,-0.0169 v -0.0984 h 0.888647 v 0.0984 c -0.02893,10e-4 -0.06315,0.004 -0.103011,0.0106 -0.03951,0.006 -0.07444,0.0138 -0.104423,0.0226 -0.03493,0.0113 -0.05856,0.0293 -0.07056,0.0543 -0.01235,0.0251 -0.01799,0.0529 -0.01799,0.0836 v 1.42698 c 0,0.0303 0.0067,0.0575 0.02011,0.0811 0.01305,0.0236 0.03634,0.0427 0.06844,0.0561 0.01976,0.008 0.05151,0.0159 0.0956,0.0247 0.04375,0.009 0.08079,0.0138 0.111831,0.0145 z" />
    <path
       id="path1228"
       style="fill:#4f4c4d;fill-opacity:1;fill-rule:nonzero;stroke:none;stroke-width:0.35277775"
       d="m 17.770864,293.24899 c -0.02575,0.001 -0.06597,0.008 -0.119592,0.0219 -0.05327,0.0145 -0.09243,0.0286 -0.115005,0.043 -0.03387,0.0233 -0.05609,0.0677 -0.06738,0.13371 -0.01199,0.0656 -0.01764,0.14887 -0.01764,0.24976 v 1.44392 h -0.121002 l -1.194858,-1.6129 v 1.01671 c 0,0.11394 0.0074,0.20179 0.02152,0.26282 0.01411,0.0614 0.03634,0.10512 0.06562,0.13052 0.02152,0.0205 0.06562,0.0392 0.131939,0.0568 0.06703,0.0183 0.111125,0.0272 0.132292,0.0279 v 0.0991 h -0.808567 v -0.0991 c 0.02469,-0.002 0.06703,-0.0106 0.126295,-0.0268 0.05927,-0.0162 0.09631,-0.031 0.111478,-0.0437 0.0321,-0.0258 0.05433,-0.0656 0.06632,-0.11889 0.01235,-0.0533 0.01799,-0.14429 0.01799,-0.27305 v -0.9712 c 0,-0.0427 -0.0071,-0.085 -0.02223,-0.1277 -0.01482,-0.043 -0.03492,-0.0755 -0.05997,-0.0991 -0.03316,-0.0303 -0.07832,-0.0568 -0.135114,-0.0783 -0.0568,-0.0215 -0.103011,-0.0335 -0.138289,-0.0353 v -0.0984 h 0.562681 l 1.109133,1.50318 v -0.93803 c 0,-0.11466 -0.0078,-0.2032 -0.02222,-0.26494 -0.01482,-0.0617 -0.03598,-0.10231 -0.06385,-0.12241 -0.02611,-0.0177 -0.06879,-0.0349 -0.127353,-0.0519 -0.05891,-0.0169 -0.103717,-0.0258 -0.134056,-0.0275 v -0.0984 h 0.801864 z" />
    <path
       id="path1232"
       style="fill:#4f4c4d;fill-opacity:1;fill-rule:nonzero;stroke:none;stroke-width:0.35277775"
       d="m 20.834247,294.33421 c -0.02222,0.003 -0.05221,0.007 -0.08996,0.013 -0.03704,0.006 -0.06773,0.0145 -0.09102,0.0258 -0.02787,0.0138 -0.04727,0.0335 -0.05927,0.0589 -0.01129,0.0257 -0.01693,0.0557 -0.01693,0.0896 v 0.15311 c 0,0.11113 3.44e-4,0.18592 0.0018,0.22507 0.0014,0.0388 0.0028,0.0713 0.0049,0.0956 -0.123825,0.0561 -0.245886,0.0981 -0.3683,0.12805 -0.122414,0.0293 -0.242006,0.0445 -0.359833,0.0445 -0.126295,0 -0.247298,-0.0233 -0.364067,-0.0709 -0.117122,-0.0469 -0.218722,-0.1143 -0.305858,-0.20144 -0.08819,-0.0878 -0.157692,-0.19509 -0.20955,-0.32067 -0.05221,-0.1263 -0.07761,-0.26706 -0.07761,-0.42299 0,-0.14957 0.02434,-0.28927 0.07408,-0.41698 0.04939,-0.12841 0.119944,-0.24024 0.210255,-0.33443 0.08819,-0.0928 0.19297,-0.16475 0.315031,-0.2159 0.122061,-0.0519 0.251883,-0.0776 0.390878,-0.0776 0.111477,0 0.208139,0.0138 0.290689,0.0406 0.08255,0.0272 0.155222,0.0593 0.218369,0.0974 l 0.0568,-0.0942 h 0.110772 l 0.0127,0.68898 h -0.113947 c -0.0194,-0.0759 -0.04374,-0.15099 -0.07232,-0.22437 -0.02893,-0.0741 -0.06562,-0.14005 -0.110772,-0.19862 -0.04551,-0.0582 -0.100895,-0.10442 -0.166512,-0.13934 -0.06526,-0.0346 -0.143227,-0.0522 -0.233891,-0.0522 -0.09913,0 -0.187678,0.0201 -0.265642,0.0603 -0.07796,0.0406 -0.144992,0.10054 -0.202494,0.18027 -0.0568,0.0769 -0.09984,0.17251 -0.130881,0.28751 -0.03034,0.11466 -0.04586,0.24342 -0.04586,0.38489 0,0.12488 0.01517,0.24306 0.04551,0.35348 0.02999,0.11112 0.07338,0.20637 0.131234,0.28716 0.0575,0.0822 0.129116,0.14746 0.215194,0.19473 0.08608,0.0469 0.183797,0.0709 0.293158,0.0709 0.08185,0 0.155928,-0.0124 0.222956,-0.0377 0.06738,-0.0251 0.115006,-0.0515 0.142169,-0.079 0.0078,-0.0483 0.01164,-0.0967 0.01199,-0.14605 3.44e-4,-0.049 0.0011,-0.0907 0.0011,-0.12488 v -0.10866 c 0,-0.0388 -0.0056,-0.0734 -0.01588,-0.10336 -0.01129,-0.03 -0.03281,-0.0522 -0.06632,-0.066 -0.03069,-0.0141 -0.07197,-0.0243 -0.124531,-0.0314 -0.05221,-0.007 -0.09313,-0.0109 -0.122766,-0.013 v -0.1016 h 0.864658 z" />
    <path
       id="path1236"
       style="fill:#4f4c4d;fill-opacity:1;fill-rule:nonzero;stroke:none;stroke-width:0.35277775"
       d="m 24.893235,294.2174 c 0.04163,0.0462 0.07267,0.0967 0.09278,0.1524 0.0194,0.055 0.02963,0.11924 0.02963,0.19227 0,0.17427 -0.06456,0.3175 -0.192969,0.43074 -0.129117,0.11324 -0.289278,0.16969 -0.479778,0.16969 -0.08819,0 -0.176036,-0.0138 -0.26423,-0.0409 -0.08784,-0.0275 -0.163337,-0.0607 -0.227542,-0.0998 l -0.05962,0.1016 h -0.111477 l -0.0194,-0.67557 h 0.112536 c 0.02363,0.084 0.05045,0.1591 0.08149,0.22613 0.0314,0.067 0.07197,0.12982 0.122413,0.18803 0.04868,0.0547 0.105128,0.0981 0.168981,0.13088 0.06456,0.0325 0.139347,0.0487 0.224719,0.0487 0.06385,0 0.119592,-0.008 0.167217,-0.025 0.04798,-0.0169 0.08678,-0.0406 0.116064,-0.0709 0.02999,-0.0307 0.05186,-0.0663 0.06632,-0.1076 0.01447,-0.0413 0.02152,-0.0885 0.02152,-0.14252 0,-0.0783 -0.02223,-0.15205 -0.06668,-0.22048 -0.0448,-0.0677 -0.110772,-0.11924 -0.198967,-0.15452 -0.06033,-0.024 -0.129117,-0.0508 -0.206728,-0.0804 -0.07761,-0.0289 -0.145344,-0.0568 -0.201436,-0.0822 -0.111478,-0.0505 -0.197908,-0.11571 -0.259644,-0.1972 -0.06103,-0.0808 -0.09208,-0.18663 -0.09208,-0.31715 0,-0.0748 0.01517,-0.14499 0.04551,-0.21026 0.03104,-0.0642 0.07444,-0.12206 0.130881,-0.17357 0.05362,-0.048 0.117122,-0.0857 0.1905,-0.11324 0.07303,-0.0268 0.149225,-0.0406 0.228952,-0.0406 0.09102,0 0.172156,0.0138 0.244123,0.0416 0.07161,0.0275 0.13723,0.0603 0.196497,0.0974 l 0.05715,-0.0942 h 0.111125 l 0.01093,0.65405 h -0.112183 c -0.02082,-0.0755 -0.04374,-0.14676 -0.06879,-0.2152 -0.02575,-0.0688 -0.05891,-0.13088 -0.09984,-0.18662 -0.03986,-0.0533 -0.08819,-0.0967 -0.145697,-0.12841 -0.05715,-0.0317 -0.128058,-0.048 -0.211314,-0.048 -0.08749,0 -0.16263,0.0282 -0.225072,0.085 -0.06209,0.0565 -0.09349,0.12524 -0.09349,0.20708 0,0.0854 0.02011,0.15593 0.05997,0.21167 0.04022,0.0561 0.09772,0.10195 0.174272,0.13829 0.06703,0.0328 0.13335,0.0607 0.198967,0.0843 0.06562,0.0233 0.128411,0.049 0.189794,0.0755 0.05539,0.024 0.109361,0.0515 0.160514,0.0818 0.05186,0.031 0.09631,0.0667 0.134056,0.10725" />
    <path
       id="path1240"
       style="fill:#4f4c4d;fill-opacity:1;fill-rule:nonzero;stroke:none;stroke-width:0.35277775"
       d="m 27.860167,293.68517 h -0.0956 c -0.0088,-0.0335 -0.02363,-0.0727 -0.04515,-0.11889 -0.02223,-0.0455 -0.04621,-0.0893 -0.07303,-0.12982 -0.02822,-0.0427 -0.05856,-0.0801 -0.09137,-0.11183 -0.03245,-0.0317 -0.06456,-0.0504 -0.0956,-0.055 -0.02822,-0.004 -0.06421,-0.006 -0.107598,-0.008 -0.04374,-0.002 -0.08431,-0.003 -0.121002,-0.003 h -0.08114 v 1.57727 c 0,0.0307 0.0071,0.0589 0.01976,0.0843 0.0127,0.0251 0.03563,0.0452 0.06809,0.0589 0.01693,0.007 0.05151,0.0152 0.105128,0.0265 0.05327,0.0109 0.09454,0.0173 0.124178,0.018 v 0.0988 h -0.930982 v -0.0988 c 0.02575,-0.002 0.06562,-0.006 0.118886,-0.0106 0.05327,-0.006 0.08996,-0.013 0.11042,-0.0212 0.03034,-0.0124 0.05292,-0.0293 0.06773,-0.0519 0.01411,-0.0229 0.02081,-0.0533 0.02081,-0.0914 v -1.58997 h -0.08043 c -0.02858,0 -0.06456,10e-4 -0.107245,0.002 -0.04198,10e-4 -0.0829,0.005 -0.121708,0.009 -0.03069,0.004 -0.06244,0.0222 -0.09525,0.055 -0.03281,0.0328 -0.06315,0.0698 -0.09137,0.11182 -0.02787,0.0416 -0.05186,0.0857 -0.07338,0.13265 -0.02117,0.0469 -0.03598,0.0854 -0.0448,0.11606 h -0.09701 v -0.53481 h 1.717675 z" />
    <path
       id="path1244"
       style="fill:#4f4c4d;fill-opacity:1;fill-rule:nonzero;stroke:none;stroke-width:0.35277775"
       d="m 30.057089,294.31594 -0.298802,-0.76447 -0.293158,0.76447 z m 0.795163,0.80609 h -0.821267 v -0.0988 c 0.07197,-0.005 0.131937,-0.0134 0.179917,-0.0279 0.04763,-0.0138 0.07161,-0.0307 0.07161,-0.0515 0,-0.008 -0.0011,-0.018 -0.0028,-0.0303 -0.0021,-0.0123 -0.0049,-0.0226 -0.0088,-0.0317 l -0.163335,-0.44168 h -0.690739 c -0.02611,0.0642 -0.04692,0.12065 -0.0635,0.16934 -0.01623,0.048 -0.03104,0.0924 -0.04374,0.13299 -0.01164,0.0399 -0.02046,0.0727 -0.02505,0.0974 -0.0042,0.0251 -0.0067,0.0455 -0.0067,0.061 0,0.0374 0.02893,0.0663 0.08714,0.0864 0.05821,0.0205 0.12453,0.0321 0.197555,0.036 v 0.0988 h -0.741891 v -0.0988 c 0.02399,-0.002 0.05398,-0.007 0.08996,-0.0159 0.03634,-0.008 0.06597,-0.0208 0.08925,-0.0353 0.03704,-0.025 0.06526,-0.0511 0.08573,-0.0787 0.02046,-0.0275 0.04022,-0.0649 0.05997,-0.11359 0.09878,-0.24695 0.208844,-0.52493 0.328083,-0.83362 0.119592,-0.30832 0.225778,-0.58278 0.319617,-0.82408 h 0.111125 l 0.657577,1.70074 c 0.01376,0.0363 0.02928,0.0656 0.04657,0.0882 0.01834,0.0222 0.04269,0.0437 0.07408,0.0649 0.02151,0.013 0.04904,0.024 0.08326,0.0328 0.03422,0.009 0.06315,0.0138 0.08643,0.0145 z" />
    <path
       id="path1248"
       style="fill:#4f4c4d;fill-opacity:1;fill-rule:nonzero;stroke:none;stroke-width:0.35277775"
       d="m 33.520099,293.68517 h -0.0956 c -0.0088,-0.0335 -0.02363,-0.0727 -0.04516,-0.11889 -0.02188,-0.0455 -0.04621,-0.0893 -0.07303,-0.12982 -0.02822,-0.0427 -0.05856,-0.0801 -0.09102,-0.11183 -0.03281,-0.0317 -0.06491,-0.0504 -0.0956,-0.055 -0.02858,-0.004 -0.06456,-0.006 -0.10795,-0.008 -0.04374,-0.002 -0.08432,-0.003 -0.121002,-0.003 h -0.08079 v 1.57727 c 0,0.0307 0.0067,0.0589 0.01939,0.0843 0.0127,0.0251 0.03563,0.0452 0.06844,0.0589 0.01659,0.007 0.05115,0.0152 0.104775,0.0265 0.05327,0.0109 0.09455,0.0173 0.124531,0.018 v 0.0988 H 32.19575 v -0.0988 c 0.02611,-0.002 0.06562,-0.006 0.118885,-0.0106 0.05327,-0.006 0.08996,-0.013 0.110422,-0.0212 0.03034,-0.0124 0.05292,-0.0293 0.06773,-0.0519 0.0141,-0.0229 0.02082,-0.0533 0.02082,-0.0914 v -1.58997 h -0.08008 c -0.02893,0 -0.06491,10e-4 -0.107598,0.002 -0.04198,10e-4 -0.0829,0.005 -0.121357,0.009 -0.03104,0.004 -0.06279,0.0222 -0.0956,0.055 -0.03281,0.0328 -0.06315,0.0698 -0.09137,0.11182 -0.02787,0.0416 -0.05186,0.0857 -0.07338,0.13265 -0.02117,0.0469 -0.03598,0.0854 -0.04445,0.11606 h -0.09701 v -0.53481 h 1.717321 z" />
    <path
       id="path1252"
       style="fill:#4f4c4d;fill-opacity:1;fill-rule:nonzero;stroke:none;stroke-width:0.35277775"
       d="m 35.535483,295.1221 h -0.888646 v -0.0988 c 0.0254,-0.002 0.06138,-0.005 0.108654,-0.008 0.04763,-0.003 0.08079,-0.009 0.10019,-0.0169 0.03034,-0.0117 0.05292,-0.0282 0.06703,-0.049 0.01376,-0.0208 0.02011,-0.0497 0.02011,-0.0868 v -1.42875 c 0,-0.0321 -0.0046,-0.0593 -0.01516,-0.0811 -0.0099,-0.0215 -0.03387,-0.0399 -0.07197,-0.055 -0.02787,-0.0106 -0.06244,-0.0212 -0.104775,-0.0314 -0.04233,-0.009 -0.07655,-0.0152 -0.104069,-0.0169 v -0.0984 h 0.888646 v 0.0984 c -0.02893,10e-4 -0.06315,0.004 -0.103011,0.0106 -0.03986,0.006 -0.07444,0.0138 -0.104423,0.0226 -0.03493,0.0113 -0.05856,0.0293 -0.07055,0.0543 -0.01236,0.0251 -0.01799,0.0529 -0.01799,0.0836 v 1.42698 c 0,0.0303 0.0067,0.0575 0.02011,0.0811 0.01304,0.0236 0.03598,0.0427 0.06844,0.0561 0.01976,0.008 0.05151,0.0159 0.09561,0.0247 0.04374,0.009 0.08078,0.0138 0.111829,0.0145 z" />
    <path
       id="path1256"
       style="fill:#4f4c4d;fill-opacity:1;fill-rule:nonzero;stroke:none;stroke-width:0.35277775"
       d="m 38.163076,294.78139 c 0.05151,-0.0843 0.08996,-0.17992 0.113241,-0.2861 0.024,-0.10654 0.03528,-0.22543 0.03528,-0.35701 0,-0.13512 -0.0127,-0.25965 -0.03916,-0.37254 -0.02681,-0.11289 -0.06527,-0.20955 -0.116417,-0.28892 -0.0508,-0.079 -0.115007,-0.14005 -0.191207,-0.18415 -0.07726,-0.0444 -0.165451,-0.066 -0.264583,-0.066 -0.111125,0 -0.205668,0.0254 -0.282927,0.0765 -0.07796,0.0505 -0.141816,0.11854 -0.190854,0.20426 -0.04586,0.0815 -0.08079,0.17709 -0.103362,0.28575 -0.02294,0.10971 -0.03422,0.22472 -0.03422,0.34502 0,0.13335 0.01236,0.25364 0.03669,0.36089 0.02363,0.10795 0.06138,0.20285 0.113594,0.28681 0.04974,0.0811 0.112889,0.14499 0.188738,0.1912 0.0762,0.0459 0.167216,0.0684 0.272343,0.0684 0.09913,0 0.18909,-0.0229 0.268465,-0.0695 0.07973,-0.0462 0.144637,-0.11147 0.194379,-0.19473 m 0.207433,-1.3977 c 0.08678,0.0907 0.154871,0.20002 0.203906,0.32878 0.04939,0.12806 0.07373,0.27023 0.07373,0.42581 0,0.15663 -0.02469,0.2988 -0.07514,0.42651 -0.04974,0.12805 -0.119591,0.23671 -0.208491,0.32667 -0.08608,0.0885 -0.186267,0.15769 -0.299863,0.20567 -0.1143,0.048 -0.235302,0.0723 -0.364419,0.0723 -0.136877,0 -0.263877,-0.0261 -0.379942,-0.0773 -0.116416,-0.0515 -0.2159,-0.12277 -0.299156,-0.2152 -0.08361,-0.0892 -0.14887,-0.19861 -0.19685,-0.32702 -0.04763,-0.12806 -0.07161,-0.26529 -0.07161,-0.41169 0,-0.16016 0.02506,-0.30304 0.07549,-0.42863 0.04939,-0.12594 0.118886,-0.23424 0.206727,-0.32596 0.08714,-0.0907 0.188032,-0.16052 0.30339,-0.20885 0.115358,-0.0476 0.23636,-0.072 0.36195,-0.072 0.131233,0 0.254352,0.0247 0.36971,0.0734 0.115713,0.0494 0.216255,0.11818 0.300567,0.20744" />
    <path
       id="path1260"
       style="fill:#4f4c4d;fill-opacity:1;fill-rule:nonzero;stroke:none;stroke-width:0.35277775"
       d="m 41.914092,293.24899 c -0.02611,0.001 -0.06597,0.008 -0.119592,0.0219 -0.05362,0.0145 -0.09278,0.0286 -0.115358,0.043 -0.03351,0.0233 -0.05574,0.0677 -0.06703,0.13371 -0.01236,0.0656 -0.01765,0.14887 -0.01765,0.24976 v 1.44392 H 41.47346 l -1.194859,-1.6129 v 1.01671 c 0,0.11394 0.0071,0.20179 0.02151,0.26282 0.0141,0.0614 0.03634,0.10512 0.06562,0.13052 0.02151,0.0205 0.06562,0.0392 0.131939,0.0568 0.06703,0.0183 0.111125,0.0272 0.132292,0.0279 v 0.0991 h -0.808567 v -0.0991 c 0.02469,-0.002 0.06703,-0.0106 0.126294,-0.0268 0.05927,-0.0162 0.09596,-0.031 0.111125,-0.0437 0.03246,-0.0258 0.05468,-0.0656 0.06668,-0.11889 0.01236,-0.0533 0.01765,-0.14429 0.01765,-0.27305 v -0.9712 c 0,-0.0427 -0.0067,-0.085 -0.02223,-0.1277 -0.01447,-0.043 -0.03457,-0.0755 -0.05962,-0.0991 -0.03316,-0.0303 -0.07832,-0.0568 -0.135115,-0.0783 -0.05715,-0.0215 -0.10301,-0.0335 -0.138289,-0.0353 v -0.0984 h 0.562681 l 1.109133,1.50318 v -0.93803 c 0,-0.11466 -0.0078,-0.2032 -0.02257,-0.26494 -0.01447,-0.0617 -0.03598,-0.10231 -0.06385,-0.12241 -0.02574,-0.0177 -0.06844,-0.0349 -0.127352,-0.0519 -0.05856,-0.0169 -0.103365,-0.0258 -0.133702,-0.0275 v -0.0984 h 0.801862 z" />
    <path
       id="path1264"
       style="fill:#1b6e44;fill-opacity:1;fill-rule:evenodd;stroke:none;stroke-width:0.35277775"
       d="m 18.346174,272.90917 c -1.95827,1.16981 -3.270603,3.31046 -3.270603,5.75698 0,3.70099 3.001081,6.70172 6.702072,6.70172 3.700639,0 6.702072,-3.00073 6.702072,-6.70172 0,-3.00214 -1.975908,-5.54355 -4.697236,-6.39622 l 0.06844,0.0797 c 2.204861,2.546 4.210755,4.86269 2.625725,8.83109 -0.942975,2.36043 -4.249914,3.31329 -4.259439,3.31646 l -0.397228,0.11642 0.13335,-0.39158 c 0.0021,-0.007 0.859014,-2.49944 0.472017,-4.39632 -0.441325,-2.16182 -1.626305,-3.6643 -2.7178,-5.0486 -0.496711,-0.62971 -0.974019,-1.23649 -1.361369,-1.86796" />
    <path
       id="path1284"
       style="fill:url(#linearGradient1282);stroke:none;stroke-width:0.35277775"
       d="m 23.872085,271.16659 c 1.435806,1.59561 3.550356,3.74967 3.988859,6.66185 v 0 c 0.439208,2.91183 -1.156406,5.86423 -4.028723,7.02099 v 0 c -2.872316,1.15711 -3.630436,2.03411 -3.630436,2.03411 v 0 c 2.553053,0.51929 5.465234,-0.0395 7.978422,-2.51283 v 0 c 2.513189,-2.47333 2.194279,-6.54227 1.635831,-8.25747 v 0 c -1.618897,-4.97135 -7.602008,-7.73783 -7.739239,-13.36393 v 0 c -1.595614,3.59022 0.359128,6.82131 1.795286,8.41728" />
    <path
       id="path1306"
       style="fill:url(#linearGradient1304);stroke:none;stroke-width:0.35277775"
       d="m 22.635247,279.78318 c 0.398991,1.95475 -0.47872,4.5078 -0.47872,4.5078 v 0 c 0,0 3.217333,-0.92745 4.120444,-3.18876 v 0 c 2.808111,-7.02945 -6.072011,-8.79263 -6.473824,-16.27822 v 0 c -5.620809,7.97242 1.563158,8.74007 2.8321,14.95918" />
    <path
       id="path1326"
       style="fill:url(#linearGradient1324);stroke:none;stroke-width:0.35277775"
       d="m 15.075572,278.66629 c 0,3.26672 2.338916,5.98734 5.432777,6.58072 v 0 c 3.167592,-6.26534 -1.036108,-8.57427 -2.925586,-11.80677 v 0 c -1.528233,1.22837 -2.507191,3.11326 -2.507191,5.22605" />
  </g>
</svg>
