<?xml version="1.0" encoding="UTF-8" standalone="no"?>
<!-- Created with Inkscape (http://www.inkscape.org/) -->

<svg
   xmlns:dc="http://purl.org/dc/elements/1.1/"
   xmlns:cc="http://creativecommons.org/ns#"
   xmlns:rdf="http://www.w3.org/1999/02/22-rdf-syntax-ns#"
   xmlns:svg="http://www.w3.org/2000/svg"
   xmlns="http://www.w3.org/2000/svg"
   xmlns:sodipodi="http://sodipodi.sourceforge.net/DTD/sodipodi-0.dtd"
   xmlns:inkscape="http://www.inkscape.org/namespaces/inkscape"
   width="40mm"
   height="40mm"
   viewBox="0 0 40 40"
   version="1.1"
   id="svg3033"
   inkscape:version="0.92.3 (2405546, 2018-03-11)"
   sodipodi:docname="gas-servicesltd.svg"
   inkscape:export-filename="/home/shipu/Desktop/logos-msdbl/masudgroup.png"
   inkscape:export-xdpi="96"
   inkscape:export-ydpi="96">
  <defs
     id="defs3027">
    <clipPath
       clipPathUnits="userSpaceOnUse"
       id="clipPath660">
      <path
         d="m 185.345,508.313 c 4.223,9.378 4.258,18.372 0,27.695 v 0 c -4.258,-9.323 -4.223,-18.317 0,-27.695"
         id="path658"
         inkscape:connector-curvature="0" />
    </clipPath>
    <linearGradient
       x1="0"
       y1="0"
       x2="1"
       y2="0"
       gradientUnits="userSpaceOnUse"
       gradientTransform="matrix(-6.363236,-6e-7,-6e-7,6.363236,188.52637,522.16064)"
       spreadMethod="pad"
       id="linearGradient672">
      <stop
         style="stop-opacity:1;stop-color:#176fc1"
         offset="0"
         id="stop666" />
      <stop
         style="stop-opacity:1;stop-color:#66cef5"
         offset="0.79"
         id="stop668" />
      <stop
         style="stop-opacity:1;stop-color:#33bdf2"
         offset="1"
         id="stop670" />
    </linearGradient>
    <clipPath
       clipPathUnits="userSpaceOnUse"
       id="clipPath638">
      <path
         d="m 185.345,507.59 c 5.615,12.47 5.662,24.429 0,36.828 v 0 c -5.662,-12.399 -5.615,-24.358 0,-36.828"
         id="path636"
         inkscape:connector-curvature="0" />
    </clipPath>
    <linearGradient
       x1="0"
       y1="0"
       x2="1"
       y2="0"
       gradientUnits="userSpaceOnUse"
       gradientTransform="matrix(-1.6e-6,36.828125,36.828125,1.6e-6,185.34521,507.58984)"
       spreadMethod="pad"
       id="linearGradient650">
      <stop
         style="stop-opacity:1;stop-color:#0994dc"
         offset="0"
         id="stop644" />
      <stop
         style="stop-opacity:1;stop-color:#0994dc"
         offset="0.61"
         id="stop646" />
      <stop
         style="stop-opacity:1;stop-color:#ed1c24"
         offset="1"
         id="stop648" />
    </linearGradient>
    <clipPath
       clipPathUnits="userSpaceOnUse"
       id="clipPath614">
      <path
         d="m 185.345,506.867 c 8.078,17.943 8.146,35.149 0,52.988 v 0 c -8.147,-17.839 -8.079,-35.045 0,-52.988"
         id="path612"
         inkscape:connector-curvature="0" />
    </clipPath>
    <linearGradient
       x1="0"
       y1="0"
       x2="1"
       y2="0"
       gradientUnits="userSpaceOnUse"
       gradientTransform="matrix(-2.2e-6,50.867813,50.867813,2.2e-6,185.34521,507.92725)"
       spreadMethod="pad"
       id="linearGradient628">
      <stop
         style="stop-opacity:1;stop-color:#2056ae"
         offset="0"
         id="stop620" />
      <stop
         style="stop-opacity:1;stop-color:#2056ae"
         offset="0.45"
         id="stop622" />
      <stop
         style="stop-opacity:1;stop-color:#ed1c24"
         offset="0.79"
         id="stop624" />
      <stop
         style="stop-opacity:1;stop-color:#f47216"
         offset="1"
         id="stop626" />
    </linearGradient>
    <clipPath
       clipPathUnits="userSpaceOnUse"
       id="clipPath592">
      <path
         d="m 150.994,501.582 c 0,-12.499 10.137,-22.635 22.634,-22.635 v 0 c 8.036,0 15.096,4.191 19.112,10.505 v 0 16.208 h -12.148 -2.016 v -9.588 c 0.111,0.04 0.224,0.08 0.342,0.12 v 0 c 2.945,1.001 8.112,1.889 9.028,-3.728 v 0 c -0.029,-0.251 -0.063,-0.5 -0.105,-0.746 v 0 c -1.08,-6.298 -6.778,-11.104 -13.644,-11.104 v 0 c -7.637,0 -13.83,5.945 -13.83,13.274 v 0 c 0,7.329 6.193,13.274 13.83,13.274 v 0 c 0.052,0 0.104,-10e-4 0.156,-10e-4 v 0 17.043 c -0.241,0.007 -0.482,0.011 -0.725,0.011 v 0 c -12.497,0 -22.634,-10.136 -22.634,-22.633 m 27.582,-5.51 v -0.204 0.204 c 0,0 0,0 0,0"
         id="path590"
         inkscape:connector-curvature="0" />
    </clipPath>
    <linearGradient
       x1="0"
       y1="0"
       x2="1"
       y2="0"
       gradientUnits="userSpaceOnUse"
       gradientTransform="matrix(-41.746582,-3.6e-6,-3.6e-6,41.746582,192.74072,501.58105)"
       spreadMethod="pad"
       id="linearGradient604">
      <stop
         style="stop-opacity:1;stop-color:#176fc1"
         offset="0"
         id="stop598" />
      <stop
         style="stop-opacity:1;stop-color:#66cef5"
         offset="0.79"
         id="stop600" />
      <stop
         style="stop-opacity:1;stop-color:#33bdf2"
         offset="1"
         id="stop602" />
    </linearGradient>
  </defs>
  <sodipodi:namedview
     id="base"
     pagecolor="#ffffff"
     bordercolor="#666666"
     borderopacity="1.0"
     inkscape:pageopacity="0.0"
     inkscape:pageshadow="2"
     inkscape:zoom="1.979899"
     inkscape:cx="130.99963"
     inkscape:cy="108.92228"
     inkscape:document-units="mm"
     inkscape:current-layer="layer1"
     showgrid="false"
     inkscape:window-width="1879"
     inkscape:window-height="1059"
     inkscape:window-x="41"
     inkscape:window-y="21"
     inkscape:window-maximized="1" />
  <metadata
     id="metadata3030">
    <rdf:RDF>
      <cc:Work
         rdf:about="">
        <dc:format>image/svg+xml</dc:format>
        <dc:type
           rdf:resource="http://purl.org/dc/dcmitype/StillImage" />
        <dc:title></dc:title>
      </cc:Work>
    </rdf:RDF>
  </metadata>
  <g
     inkscape:label="Layer 1"
     inkscape:groupmode="layer"
     id="layer1"
     transform="translate(0,-257)">
    <g
       transform="matrix(0.35277777,0,0,-0.35277777,-40.056637,457.48718)"
       id="g586">
      <g
         id="g588"
         clip-path="url(#clipPath592)">
        <g
           id="g594">
          <g
             id="g596">
            <path
               d="m 150.994,501.582 c 0,-12.499 10.137,-22.635 22.634,-22.635 v 0 c 8.036,0 15.096,4.191 19.112,10.505 v 0 16.208 h -12.148 -2.016 v -9.588 c 0.111,0.04 0.224,0.08 0.342,0.12 v 0 c 2.945,1.001 8.112,1.889 9.028,-3.728 v 0 c -0.029,-0.251 -0.063,-0.5 -0.105,-0.746 v 0 c -1.08,-6.298 -6.778,-11.104 -13.644,-11.104 v 0 c -7.637,0 -13.83,5.945 -13.83,13.274 v 0 c 0,7.329 6.193,13.274 13.83,13.274 v 0 c 0.052,0 0.104,-10e-4 0.156,-10e-4 v 0 17.043 c -0.241,0.007 -0.482,0.011 -0.725,0.011 v 0 c -12.497,0 -22.634,-10.136 -22.634,-22.633 m 27.582,-5.51 v -0.204 0.204 c 0,0 0,0 0,0"
               style="fill:url(#linearGradient604);stroke:none"
               id="path606"
               inkscape:connector-curvature="0" />
          </g>
        </g>
      </g>
    </g>
    <g
       transform="matrix(0.35277777,0,0,-0.35277777,-40.056637,457.23212)"
       id="g608">
      <g
         id="g610"
         clip-path="url(#clipPath614)">
        <g
           id="g616">
          <g
             id="g618">
            <path
               d="m 185.345,506.867 c 8.078,17.943 8.146,35.149 0,52.988 v 0 c -8.147,-17.839 -8.079,-35.045 0,-52.988"
               style="fill:url(#linearGradient628);stroke:none"
               id="path630"
               inkscape:connector-curvature="0" />
          </g>
        </g>
      </g>
    </g>
    <g
       transform="matrix(0.35277777,0,0,-0.35277777,-40.056637,457.48718)"
       id="g632">
      <g
         id="g634"
         clip-path="url(#clipPath638)">
        <g
           id="g640">
          <g
             id="g642">
            <path
               d="m 185.345,507.59 c 5.615,12.47 5.662,24.429 0,36.828 v 0 c -5.662,-12.399 -5.615,-24.358 0,-36.828"
               style="fill:url(#linearGradient650);stroke:none"
               id="path652"
               inkscape:connector-curvature="0" />
          </g>
        </g>
      </g>
    </g>
    <g
       transform="matrix(0.35277777,0,0,-0.35277777,-40.056637,457.48718)"
       id="g654">
      <g
         id="g656"
         clip-path="url(#clipPath660)">
        <g
           id="g662">
          <g
             id="g664">
            <path
               d="m 185.345,508.313 c 4.223,9.378 4.258,18.372 0,27.695 v 0 c -4.258,-9.323 -4.223,-18.317 0,-27.695"
               style="fill:url(#linearGradient672);stroke:none"
               id="path674"
               inkscape:connector-curvature="0" />
          </g>
        </g>
      </g>
    </g>
    <path
       d="m 5.6335849,292.76529 c 0,0.14217 -0.033514,0.3235 -0.1005417,0.54539 -0.067028,0.22296 -0.1964972,0.42122 -0.3887611,0.5962 -0.1919111,0.17568 -0.4194527,0.26246 -0.6812138,0.26246 -0.8117417,0 -1.2177889,-0.58314 -1.2177889,-1.75119 0,-0.55245 0.1051278,-0.97472 0.3171472,-1.26752 0.2113139,-0.29352 0.5122334,-0.43921 0.9006417,-0.43921 0.5609166,0 0.8995833,0.27516 1.0163527,0.8255 l -0.62865,0.2734 c -0.0127,-0.29704 -0.1467555,-0.44556 -0.4028722,-0.44556 -0.1118305,0 -0.2024944,0.0342 -0.27305,0.10407 -0.06985,0.0699 -0.1150055,0.16651 -0.1358194,0.29069 -0.021872,0.12418 -0.032455,0.3362 -0.032455,0.63712 0,0.35419 0.011642,0.5969 0.034219,0.72848 0.023636,0.13229 0.070908,0.23072 0.1414639,0.2981 0.070556,0.066 0.1622777,0.0988 0.2755194,0.0988 0.2652889,0 0.4074583,-0.21943 0.4247444,-0.65793 H 4.4422545 v -0.64241 H 5.633585 Z"
       style="fill:#127bca;fill-opacity:1;fill-rule:nonzero;stroke:none;stroke-width:0.35277775"
       id="path686"
       inkscape:connector-curvature="0" />
    <path
       d="m 7.5344229,293.04984 -0.2917471,-1.44709 h -0.010935 l -0.3369027,1.44709 z m 0.9133416,1.05375 H 7.7464425 L 7.6377869,293.58641 H 6.7643092 l -0.1213557,0.51718 h -0.701322 l 0.9479137,-3.31541 h 0.7274277 z"
       style="fill:#127bca;fill-opacity:1;fill-rule:nonzero;stroke:none;stroke-width:0.35277775"
       id="path690"
       inkscape:connector-curvature="0" />
    <path
       d="m 10.318758,291.72244 c -0.189442,-0.22083 -0.370417,-0.33161 -0.5436307,-0.33161 -0.077964,0 -0.147461,0.0254 -0.2084917,0.0769 -0.061383,0.0508 -0.091369,0.10865 -0.091369,0.17215 0,0.11501 0.095955,0.25189 0.2889247,0.40887 0.2021417,0.16122 0.3453697,0.28787 0.4303887,0.38136 0.08431,0.0924 0.1524,0.20214 0.203906,0.32808 0.05186,0.12488 0.07691,0.26247 0.07691,0.41134 0,0.29139 -0.09313,0.53163 -0.279753,0.71931 -0.186619,0.18733 -0.4268608,0.28081 -0.7203718,0.28081 -0.2409474,0 -0.476603,-0.0854 -0.706614,-0.25717 v -0.78317 c 0.220839,0.24024 0.442736,0.36089 0.6639277,0.36089 0.098778,0 0.1813279,-0.0272 0.2483556,-0.0826 0.065969,-0.0543 0.098778,-0.12135 0.098778,-0.20108 0,-0.11853 -0.084314,-0.25082 -0.2547054,-0.39617 -0.2709333,-0.23354 -0.447675,-0.40675 -0.5316363,-0.5207 -0.084314,-0.1143 -0.1467553,-0.2293 -0.188736,-0.34537 -0.041628,-0.11571 -0.062442,-0.23354 -0.062442,-0.35137 0,-0.25541 0.089958,-0.46566 0.268464,-0.63253 0.1781527,-0.1658 0.4056944,-0.24906 0.6819194,-0.24906 0.2084916,0 0.4176888,0.06 0.6261808,0.18027 z"
       style="fill:#127bca;fill-opacity:1;fill-rule:nonzero;stroke:none;stroke-width:0.35277775"
       id="path694"
       inkscape:connector-curvature="0" />
    <path
       d="m 13.602094,291.72244 c -0.189442,-0.22083 -0.370417,-0.33161 -0.543631,-0.33161 -0.07796,0 -0.147461,0.0254 -0.208139,0.0769 -0.06174,0.0508 -0.09172,0.10865 -0.09172,0.17215 0,0.11501 0.09596,0.25189 0.288925,0.40887 0.202142,0.16122 0.34537,0.28787 0.430389,0.38136 0.08431,0.0924 0.1524,0.20214 0.203906,0.32808 0.05186,0.12488 0.07691,0.26247 0.07691,0.41134 0,0.29139 -0.09313,0.53163 -0.279753,0.71931 -0.186619,0.18733 -0.426861,0.28081 -0.720372,0.28081 -0.240947,0 -0.476603,-0.0854 -0.706613,-0.25717 v -0.78317 c 0.220838,0.24024 0.443088,0.36089 0.663927,0.36089 0.09913,0 0.181328,-0.0272 0.248356,-0.0826 0.06597,-0.0543 0.09878,-0.12135 0.09878,-0.20108 0,-0.11853 -0.08431,-0.25082 -0.254706,-0.39617 -0.270933,-0.23354 -0.447675,-0.40675 -0.531636,-0.5207 -0.08431,-0.1143 -0.146755,-0.2293 -0.188736,-0.34537 -0.04127,-0.11571 -0.06244,-0.23354 -0.06244,-0.35137 0,-0.25541 0.08996,-0.46566 0.268464,-0.63253 0.178153,-0.1658 0.405694,-0.24906 0.682272,-0.24906 0.208139,0 0.417336,0.06 0.625828,0.18027 z"
       style="fill:#127bca;fill-opacity:1;fill-rule:nonzero;stroke:none;stroke-width:0.35277775"
       id="path698"
       inkscape:connector-curvature="0" />
    <path
       d="m 15.890668,294.10352 h -1.653469 v -3.31506 h 1.550458 v 0.63959 h -0.839258 v 0.67416 h 0.719314 v 0.61595 h -0.719314 v 0.73201 h 0.942269 z"
       style="fill:#127bca;fill-opacity:1;fill-rule:nonzero;stroke:none;stroke-width:0.35277775"
       id="path702"
       inkscape:connector-curvature="0" />
    <path
       d="m 17.135728,292.27694 c 0.233539,0 0.381354,-0.0452 0.442738,-0.13688 0.06279,-0.0907 0.09349,-0.20637 0.09349,-0.34607 0,-0.31609 -0.130528,-0.47484 -0.390526,-0.47484 h -0.145698 z m 1.319038,1.82668 h -0.732014 l -0.57644,-1.64112 h -0.01058 v 1.64112 H 16.42171 v -3.3154 h 0.931334 c 0.185914,0 0.371476,0.0374 0.556331,0.11147 0.184856,0.0744 0.317147,0.1905 0.395817,0.3482 0.07796,0.15663 0.117828,0.32067 0.117828,0.49106 0,0.20461 -0.04445,0.37324 -0.13335,0.50553 -0.08784,0.13124 -0.227895,0.25189 -0.421217,0.35948 z"
       style="fill:#127bca;fill-opacity:1;fill-rule:nonzero;stroke:none;stroke-width:0.35277775"
       id="path706"
       inkscape:connector-curvature="0" />
    <path
       d="m 20.489693,290.78832 h 0.722137 l -0.934156,3.31506 h -0.684742 l -0.947913,-3.31506 h 0.756708 l 0.5334,2.13113 z"
       style="fill:#127bca;fill-opacity:1;fill-rule:nonzero;stroke:none;stroke-width:0.35277775"
       id="path710"
       inkscape:connector-curvature="0" />
    <path
       d="m 21.684763,290.78839 h 0.716844 v 3.31506 h -0.716844 z"
       style="fill:#127bca;fill-opacity:1;fill-rule:nonzero;stroke:none;stroke-width:0.35277775"
       id="path712"
       inkscape:connector-curvature="0" />
    <path
       d="m 25.010716,294.04996 c -0.182386,0.0797 -0.38488,0.1196 -0.607836,0.1196 -0.399697,0 -0.73413,-0.1457 -1.001889,-0.43745 -0.268464,-0.29175 -0.402519,-0.71755 -0.402519,-1.2767 0,-0.57715 0.132997,-1.01106 0.398639,-1.30175 0.265289,-0.2921 0.574322,-0.43674 0.928864,-0.43674 0.211666,0 0.43815,0.0543 0.679097,0.16404 v 0.69568 c -0.187325,-0.096 -0.308681,-0.14958 -0.364772,-0.16228 -0.05539,-0.0116 -0.115006,-0.018 -0.178506,-0.018 -0.188383,0 -0.352425,0.078 -0.493889,0.23389 -0.142169,0.15487 -0.213078,0.42298 -0.213078,0.80328 0,0.39899 0.06914,0.67416 0.20567,0.82726 0.137936,0.15311 0.307975,0.22931 0.511175,0.22931 0.166511,0 0.346075,-0.0653 0.539044,-0.19685 z"
       style="fill:#127bca;fill-opacity:1;fill-rule:nonzero;stroke:none;stroke-width:0.35277775"
       id="path716"
       inkscape:connector-curvature="0" />
    <path
       d="m 27.126184,294.10352 h -1.653469 v -3.31506 h 1.550458 v 0.63959 h -0.839258 v 0.67416 h 0.719314 v 0.61595 h -0.719314 v 0.73201 h 0.942269 z"
       style="fill:#127bca;fill-opacity:1;fill-rule:nonzero;stroke:none;stroke-width:0.35277775"
       id="path720"
       inkscape:connector-curvature="0" />
    <path
       d="m 29.082302,291.72244 c -0.189442,-0.22083 -0.370417,-0.33161 -0.543631,-0.33161 -0.07796,0 -0.147461,0.0254 -0.208139,0.0769 -0.06174,0.0508 -0.09172,0.10865 -0.09172,0.17215 0,0.11501 0.09596,0.25189 0.288925,0.40887 0.202142,0.16122 0.34537,0.28787 0.430389,0.38136 0.08431,0.0924 0.1524,0.20214 0.203906,0.32808 0.05186,0.12488 0.07691,0.26247 0.07691,0.41134 0,0.29139 -0.09313,0.53163 -0.279753,0.71931 -0.186619,0.18733 -0.426861,0.28081 -0.720372,0.28081 -0.240947,0 -0.476603,-0.0854 -0.706614,-0.25717 v -0.78317 c 0.220839,0.24024 0.443089,0.36089 0.663928,0.36089 0.09913,0 0.181328,-0.0272 0.248356,-0.0826 0.06597,-0.0543 0.09878,-0.12135 0.09878,-0.20108 0,-0.11853 -0.08431,-0.25082 -0.254705,-0.39617 -0.270933,-0.23354 -0.447675,-0.40675 -0.531636,-0.5207 -0.08431,-0.1143 -0.146756,-0.2293 -0.188736,-0.34537 -0.04128,-0.11571 -0.06244,-0.23354 -0.06244,-0.35137 0,-0.25541 0.08996,-0.46566 0.268464,-0.63253 0.178505,-0.1658 0.405694,-0.24906 0.682272,-0.24906 0.208139,0 0.417336,0.06 0.625828,0.18027 z"
       style="fill:#127bca;fill-opacity:1;fill-rule:nonzero;stroke:none;stroke-width:0.35277775"
       id="path724"
       inkscape:connector-curvature="0" />
    <path
       d="m 32.464525,294.10352 h -1.550459 v -3.31506 h 0.711552 v 2.66171 h 0.838907 z"
       style="fill:#127bca;fill-opacity:1;fill-rule:nonzero;stroke:none;stroke-width:0.35277775"
       id="path728"
       inkscape:connector-curvature="0" />
    <path
       d="m 34.550182,291.43341 h -0.645231 v 2.67018 h -0.714024 v -2.66453 h -0.657576 v -0.65088 h 2.016831 z"
       style="fill:#127bca;fill-opacity:1;fill-rule:nonzero;stroke:none;stroke-width:0.35277775"
       id="path732"
       inkscape:connector-curvature="0" />
    <path
       d="m 35.715301,291.38536 v 2.11561 h 0.08537 c 0.142875,0 0.292454,-0.0589 0.447323,-0.17498 0.155223,-0.11676 0.232127,-0.39581 0.232127,-0.83608 0,-0.32632 -0.02928,-0.55739 -0.08608,-0.69568 -0.05821,-0.13793 -0.142169,-0.24024 -0.253648,-0.30832 -0.111477,-0.067 -0.226836,-0.10055 -0.345369,-0.10055 z m -0.7239,-0.5969 h 0.792692 c 0.443087,0 0.794808,0.14112 1.055862,0.42475 0.260705,0.28257 0.391231,0.68968 0.391231,1.22061 0,0.53622 -0.127,0.94862 -0.38241,1.23649 -0.254706,0.28892 -0.618066,0.43321 -1.09079,0.43321 h -0.766585 z"
       style="fill:#127bca;fill-opacity:1;fill-rule:nonzero;stroke:none;stroke-width:0.35277775"
       id="path736"
       inkscape:connector-curvature="0" />
    <path
       d="m 37.790973,293.38678 c 0.105834,0 0.198261,0.0381 0.275519,0.1143 0.0762,0.0762 0.115006,0.16827 0.115006,0.27622 0,0.10795 -0.03881,0.20038 -0.115006,0.27729 -0.07726,0.0769 -0.169685,0.115 -0.275519,0.115 -0.10795,0 -0.200025,-0.0381 -0.277283,-0.115 -0.07691,-0.0769 -0.115006,-0.16934 -0.115006,-0.27729 0,-0.10795 0.0381,-0.20002 0.115006,-0.27622 0.07726,-0.0762 0.169333,-0.1143 0.277283,-0.1143"
       style="fill:#127bca;fill-opacity:1;fill-rule:nonzero;stroke:none;stroke-width:0.35277775"
       id="path740"
       inkscape:connector-curvature="0" />
  </g>
</svg>
