<?xml version="1.0" encoding="UTF-8" standalone="no"?>
<!-- Created with Inkscape (http://www.inkscape.org/) -->

<svg
   xmlns:dc="http://purl.org/dc/elements/1.1/"
   xmlns:cc="http://creativecommons.org/ns#"
   xmlns:rdf="http://www.w3.org/1999/02/22-rdf-syntax-ns#"
   xmlns:svg="http://www.w3.org/2000/svg"
   xmlns="http://www.w3.org/2000/svg"
   xmlns:sodipodi="http://sodipodi.sourceforge.net/DTD/sodipodi-0.dtd"
   xmlns:inkscape="http://www.inkscape.org/namespaces/inkscape"
   width="30mm"
   height="40mm"
   viewBox="0 0 30 40"
   version="1.1"
   id="svg3033"
   inkscape:version="0.92.3 (2405546, 2018-03-11)"
   sodipodi:docname="arko.svg"
   inkscape:export-filename="/home/shipu/Desktop/logos-msdbl/masudgroup.png"
   inkscape:export-xdpi="96"
   inkscape:export-ydpi="96">
  <defs
     id="defs3027">
    <clipPath
       clipPathUnits="userSpaceOnUse"
       id="clipPath660">
      <path
         d="m 185.345,508.313 c 4.223,9.378 4.258,18.372 0,27.695 v 0 c -4.258,-9.323 -4.223,-18.317 0,-27.695"
         id="path658"
         inkscape:connector-curvature="0" />
    </clipPath>
    <linearGradient
       x1="0"
       y1="0"
       x2="1"
       y2="0"
       gradientUnits="userSpaceOnUse"
       gradientTransform="matrix(-6.363236,-6e-7,-6e-7,6.363236,188.52637,522.16064)"
       spreadMethod="pad"
       id="linearGradient672">
      <stop
         style="stop-opacity:1;stop-color:#176fc1"
         offset="0"
         id="stop666" />
      <stop
         style="stop-opacity:1;stop-color:#66cef5"
         offset="0.79"
         id="stop668" />
      <stop
         style="stop-opacity:1;stop-color:#33bdf2"
         offset="1"
         id="stop670" />
    </linearGradient>
    <clipPath
       clipPathUnits="userSpaceOnUse"
       id="clipPath638">
      <path
         d="m 185.345,507.59 c 5.615,12.47 5.662,24.429 0,36.828 v 0 c -5.662,-12.399 -5.615,-24.358 0,-36.828"
         id="path636"
         inkscape:connector-curvature="0" />
    </clipPath>
    <linearGradient
       x1="0"
       y1="0"
       x2="1"
       y2="0"
       gradientUnits="userSpaceOnUse"
       gradientTransform="matrix(-1.6e-6,36.828125,36.828125,1.6e-6,185.34521,507.58984)"
       spreadMethod="pad"
       id="linearGradient650">
      <stop
         style="stop-opacity:1;stop-color:#0994dc"
         offset="0"
         id="stop644" />
      <stop
         style="stop-opacity:1;stop-color:#0994dc"
         offset="0.61"
         id="stop646" />
      <stop
         style="stop-opacity:1;stop-color:#ed1c24"
         offset="1"
         id="stop648" />
    </linearGradient>
    <clipPath
       clipPathUnits="userSpaceOnUse"
       id="clipPath614">
      <path
         d="m 185.345,506.867 c 8.078,17.943 8.146,35.149 0,52.988 v 0 c -8.147,-17.839 -8.079,-35.045 0,-52.988"
         id="path612"
         inkscape:connector-curvature="0" />
    </clipPath>
    <linearGradient
       x1="0"
       y1="0"
       x2="1"
       y2="0"
       gradientUnits="userSpaceOnUse"
       gradientTransform="matrix(-2.2e-6,50.867813,50.867813,2.2e-6,185.34521,507.92725)"
       spreadMethod="pad"
       id="linearGradient628">
      <stop
         style="stop-opacity:1;stop-color:#2056ae"
         offset="0"
         id="stop620" />
      <stop
         style="stop-opacity:1;stop-color:#2056ae"
         offset="0.45"
         id="stop622" />
      <stop
         style="stop-opacity:1;stop-color:#ed1c24"
         offset="0.79"
         id="stop624" />
      <stop
         style="stop-opacity:1;stop-color:#f47216"
         offset="1"
         id="stop626" />
    </linearGradient>
    <clipPath
       clipPathUnits="userSpaceOnUse"
       id="clipPath592">
      <path
         d="m 150.994,501.582 c 0,-12.499 10.137,-22.635 22.634,-22.635 v 0 c 8.036,0 15.096,4.191 19.112,10.505 v 0 16.208 h -12.148 -2.016 v -9.588 c 0.111,0.04 0.224,0.08 0.342,0.12 v 0 c 2.945,1.001 8.112,1.889 9.028,-3.728 v 0 c -0.029,-0.251 -0.063,-0.5 -0.105,-0.746 v 0 c -1.08,-6.298 -6.778,-11.104 -13.644,-11.104 v 0 c -7.637,0 -13.83,5.945 -13.83,13.274 v 0 c 0,7.329 6.193,13.274 13.83,13.274 v 0 c 0.052,0 0.104,-10e-4 0.156,-10e-4 v 0 17.043 c -0.241,0.007 -0.482,0.011 -0.725,0.011 v 0 c -12.497,0 -22.634,-10.136 -22.634,-22.633 m 27.582,-5.51 v -0.204 0.204 c 0,0 0,0 0,0"
         id="path590"
         inkscape:connector-curvature="0" />
    </clipPath>
    <linearGradient
       x1="0"
       y1="0"
       x2="1"
       y2="0"
       gradientUnits="userSpaceOnUse"
       gradientTransform="matrix(-41.746582,-3.6e-6,-3.6e-6,41.746582,192.74072,501.58105)"
       spreadMethod="pad"
       id="linearGradient604">
      <stop
         style="stop-opacity:1;stop-color:#176fc1"
         offset="0"
         id="stop598" />
      <stop
         style="stop-opacity:1;stop-color:#66cef5"
         offset="0.79"
         id="stop600" />
      <stop
         style="stop-opacity:1;stop-color:#33bdf2"
         offset="1"
         id="stop602" />
    </linearGradient>
    <linearGradient
       x1="0"
       y1="0"
       x2="1"
       y2="0"
       gradientUnits="userSpaceOnUse"
       gradientTransform="matrix(-2.1166666e-7,-4.630036,4.630036,-2.1166666e-7,24.631896,290.02226)"
       spreadMethod="pad"
       id="linearGradient882">
      <stop
         style="stop-opacity:1;stop-color:#2e3192"
         offset="0"
         id="stop878" />
      <stop
         style="stop-opacity:1;stop-color:#00adef"
         offset="1"
         id="stop880" />
    </linearGradient>
    <linearGradient
       x1="0"
       y1="0"
       x2="1"
       y2="0"
       gradientUnits="userSpaceOnUse"
       gradientTransform="matrix(-2.1166666e-7,-4.630036,4.630036,-2.1166666e-7,18.623304,290.02226)"
       spreadMethod="pad"
       id="linearGradient862">
      <stop
         style="stop-opacity:1;stop-color:#2e3192"
         offset="0"
         id="stop858" />
      <stop
         style="stop-opacity:1;stop-color:#00adef"
         offset="1"
         id="stop860" />
    </linearGradient>
    <linearGradient
       x1="0"
       y1="0"
       x2="1"
       y2="0"
       gradientUnits="userSpaceOnUse"
       gradientTransform="matrix(-2.1166666e-7,-4.630036,4.630036,-2.1166666e-7,12.038866,290.02226)"
       spreadMethod="pad"
       id="linearGradient842">
      <stop
         style="stop-opacity:1;stop-color:#2e3192"
         offset="0"
         id="stop838" />
      <stop
         style="stop-opacity:1;stop-color:#00adef"
         offset="1"
         id="stop840" />
    </linearGradient>
    <linearGradient
       x1="0"
       y1="0"
       x2="1"
       y2="0"
       gradientUnits="userSpaceOnUse"
       gradientTransform="matrix(-2.1166666e-7,-4.630036,4.630036,-2.1166666e-7,5.6706065,290.02226)"
       spreadMethod="pad"
       id="linearGradient822">
      <stop
         style="stop-opacity:1;stop-color:#2e3192"
         offset="0"
         id="stop818" />
      <stop
         style="stop-opacity:1;stop-color:#00adef"
         offset="1"
         id="stop820" />
    </linearGradient>
    <radialGradient
       fx="0"
       fy="0"
       cx="0"
       cy="0"
       r="1"
       gradientUnits="userSpaceOnUse"
       gradientTransform="matrix(15.745126,0,0,15.745126,15.16822,273.00693)"
       spreadMethod="pad"
       id="radialGradient802">
      <stop
         style="stop-opacity:1;stop-color:#00adef"
         offset="0"
         id="stop798" />
      <stop
         style="stop-opacity:1;stop-color:#2e3192"
         offset="1"
         id="stop800" />
    </radialGradient>
    <radialGradient
       fx="0"
       fy="0"
       cx="0"
       cy="0"
       r="1"
       gradientUnits="userSpaceOnUse"
       gradientTransform="matrix(12.905043,0,0,12.905043,15.168393,272.61281)"
       spreadMethod="pad"
       id="radialGradient762">
      <stop
         style="stop-opacity:1;stop-color:#00adef"
         offset="0"
         id="stop758" />
      <stop
         style="stop-opacity:1;stop-color:#2e3192"
         offset="1"
         id="stop760" />
    </radialGradient>
  </defs>
  <sodipodi:namedview
     id="base"
     pagecolor="#ffffff"
     bordercolor="#666666"
     borderopacity="1.0"
     inkscape:pageopacity="0.0"
     inkscape:pageshadow="2"
     inkscape:zoom="1.979899"
     inkscape:cx="128.47425"
     inkscape:cy="139.22686"
     inkscape:document-units="mm"
     inkscape:current-layer="layer1"
     showgrid="false"
     inkscape:window-width="1879"
     inkscape:window-height="1059"
     inkscape:window-x="41"
     inkscape:window-y="21"
     inkscape:window-maximized="1" />
  <metadata
     id="metadata3030">
    <rdf:RDF>
      <cc:Work
         rdf:about="">
        <dc:format>image/svg+xml</dc:format>
        <dc:type
           rdf:resource="http://purl.org/dc/dcmitype/StillImage" />
        <dc:title></dc:title>
      </cc:Work>
    </rdf:RDF>
  </metadata>
  <g
     inkscape:label="Layer 1"
     inkscape:groupmode="layer"
     id="layer1"
     transform="translate(0,-257)">
    <path
       d="m 12.789543,270.51803 3.022247,-1.01424 -3.057525,9.12672 6.047317,-12.63297 -3.341864,1.33808 1.987197,-6.90633 z"
       style="fill:#231f20;fill-opacity:1;fill-rule:evenodd;stroke:none;stroke-width:0.35277775"
       id="path744"
       inkscape:connector-curvature="0" />
    <path
       d="m 5.9083295,272.47679 c 0,5.11281 4.1469035,9.26007 9.2600645,9.26007 v 0 c 5.112455,0 9.259711,-4.14726 9.259711,-9.26007 v 0 c 0,-4.32541 -2.96792,-7.95937 -6.977945,-8.97643 v 0 c 2.190045,2.76119 4.526139,6.24629 4.526139,8.97643 v 0 c 0,3.75956 -3.048705,6.80861 -6.807905,6.80861 v 0 c -3.759553,0 -6.8082585,-3.04905 -6.8082585,-6.80861 v 0 c 0,-2.72979 2.3939505,-6.23005 4.5734115,-8.98807 v 0 c -4.0336615,1.00013 -7.0252175,4.64608 -7.0252175,8.98807"
       style="fill:url(#radialGradient762);stroke:none;stroke-width:0.35277775"
       id="path764"
       inkscape:connector-curvature="0" />
    <path
       d="m 13.685811,263.33516 c 0.565856,-0.9211 1.034344,-1.7907 1.290108,-2.56752 0.194381,-0.5909 0.264936,-1.12783 0.16122,-1.59279 l 0.509411,1.60091 0.560564,1.76141 -0.334786,0.70627 -3.677708,7.76252 3.158066,-1.05304 -2.738966,7.91809 c -2.073981,-0.96414 -3.5126095,-3.06705 -3.5126095,-5.50509 0,-2.63984 2.7834175,-6.09671 4.5847005,-9.03076 m 1.290108,-2.56752 0.192264,-0.002 c -0.0642,0 -0.128411,7e-4 -0.192264,0.002"
       style="fill:#ed1c24;fill-opacity:1;fill-rule:evenodd;stroke:none;stroke-width:0.35277775"
       id="path776"
       inkscape:connector-curvature="0" />
    <path
       d="m 16.830823,263.45694 -0.910519,3.36867 2.434519,-0.98319 c -0.544336,-0.8322 -1.083028,-1.6196 -1.524,-2.38548"
       style="fill:#fbbc09;fill-opacity:1;fill-rule:evenodd;stroke:none;stroke-width:0.35277775"
       id="path780"
       inkscape:connector-curvature="0" />
    <path
       d="m 18.860003,266.64107 -5.559072,11.4995 c 0.588433,0.19015 1.215672,0.2928 1.867252,0.2928 3.350331,0 6.067425,-2.71709 6.067425,-6.06742 -0.0028,-1.79176 -1.137708,-3.79413 -2.375605,-5.72488"
       style="fill:#fbbc09;fill-opacity:1;fill-rule:evenodd;stroke:none;stroke-width:0.35277775"
       id="path784"
       inkscape:connector-curvature="0" />
    <path
       d="m 18.274955,263.80693 c 1.05163,0.37676 2.014361,0.9398 2.849739,1.64817 v 0 l 0.792339,-2.47015 c -0.594431,-0.42298 -1.230137,-0.79198 -1.900062,-1.09925 v 0 z m -9.8562585,-0.82162 0.793044,2.46979 c 0.8350255,-0.70837 1.7981095,-1.27141 2.8493865,-1.64817 v 0 l -1.742722,-1.92088 c -0.6695725,0.30727 -1.3052785,0.67628 -1.8997085,1.09926 m 13.7735025,3.53765 c 0.709083,0.83503 1.272117,1.79811 1.649236,2.84939 v 0 l 1.920522,-1.74237 c -0.307269,-0.66993 -0.675922,-1.30563 -1.099608,-1.89971 v 0 z m -17.6180748,1.10737 1.9208753,1.74237 c 0.377119,-1.05128 0.9398,-2.01436 1.648883,-2.84938 v 0 l -2.47015,-0.79234 c -0.423333,0.59407 -0.7923388,1.22978 -1.0996083,1.89935 m 19.8049448,4.84964 c 0,0.56127 -0.05045,1.11125 -0.146756,1.64535 v 0 l 2.53365,-0.54892 c 0.03351,-0.36089 0.0508,-0.72672 0.0508,-1.09643 v 0 c 0,-0.37042 -0.01728,-0.73695 -0.05115,-1.09855 v 0 l -2.533297,-0.54787 c 0.09596,0.53411 0.146756,1.08444 0.146756,1.64642 M 3.5708243,271.38248 c -0.033514,0.36124 -0.051153,0.72742 -0.051153,1.09749 v 0 c 0,0.36971 0.017639,0.73589 0.051153,1.09749 v 0 l 2.5336502,0.54786 c -0.09596,-0.5341 -0.146403,-1.08408 -0.146403,-1.64535 v 0 c 0,-0.56198 0.05045,-1.11196 0.146403,-1.64606 v 0 z m 18.6224327,7.05344 2.469798,0.79233 c 0.423333,-0.59407 0.792339,-1.22943 1.099255,-1.89935 v 0 l -1.920522,-1.74237 c -0.377472,1.05092 -0.939447,2.01436 -1.648531,2.84939 M 4.5748298,277.32925 c 0.3065639,0.67028 0.6755697,1.30563 1.0989027,1.89936 v 0 l 2.469797,-0.79269 c -0.70873,-0.83503 -1.271411,-1.79811 -1.64853,-2.84939 v 0 z m 13.7008302,3.82341 1.74237,1.92052 c 0.670278,-0.30727 1.30563,-0.67592 1.900061,-1.0989 v 0 l -0.793045,-2.4698 c -0.835377,0.70838 -1.797755,1.27141 -2.849386,1.64818 m -9.8566105,0.82162 c 0.59443,0.42368 1.230136,0.79198 1.8997085,1.09925 v 0 l 1.742016,-1.92087 c -1.051277,-0.37677 -2.014008,-0.93945 -2.8486805,-1.64818 v 0 z m 6.7493445,-0.28399 c -0.561975,0 -1.111603,-0.0501 -1.645356,-0.14676 v 0 l 0.547864,2.53365 c 0.361245,0.0339 0.727428,0.0512 1.097492,0.0512 v 0 c 0.370064,0 0.7366,-0.0173 1.097491,-0.0512 v 0 l 0.547864,-2.53365 c -0.534105,0.0967 -1.083733,0.14676 -1.645355,0.14676"
       style="fill:url(#radialGradient802);stroke:none;stroke-width:0.35277775"
       id="path804"
       inkscape:connector-curvature="0" />
    <path
       d="m 4.7053575,285.43608 -2.090561,4.51626 h 1.8757194 l 0.2300111,-0.5976 h 1.8919475 l 0.221544,0.5976 h 1.8923 l -2.088797,-4.51626 z m 0.968022,1.40794 0.592314,1.56351 H 5.0676603 Z"
       style="fill:url(#linearGradient822);stroke:none;stroke-width:0.35277775"
       id="path824"
       inkscape:connector-curvature="0" />
    <path
       d="m 9.2717125,285.43608 v 4.51626 h 1.8838345 v -1.55751 h 0.811036 c 0.299155,0 0.508353,0.0473 0.629708,0.14252 v 0 c 0.121003,0.0952 0.181681,0.25965 0.181681,0.49213 v 0 0.45085 c 0,0.0448 0.0081,0.1076 0.02575,0.18838 v 0 c 0.01799,0.0808 0.0441,0.17463 0.07902,0.28363 v 0 h 1.923344 v -0.16827 c -0.104422,-0.009 -0.161219,-0.10301 -0.169333,-0.28293 v 0 c -0.0028,-0.005 -0.0042,-0.0106 -0.0042,-0.0148 v 0 l -0.03175,-0.62865 c -0.01058,-0.30234 -0.09066,-0.53164 -0.242006,-0.68792 v 0 c -0.150283,-0.15663 -0.39123,-0.26141 -0.72143,-0.31503 v 0 c 0.324908,-0.10548 0.565855,-0.25012 0.72143,-0.43215 v 0 c 0.155575,-0.18169 0.233892,-0.40993 0.233892,-0.68651 v 0 c 0,-0.46179 -0.189795,-0.79445 -0.570089,-0.99624 v 0 c -0.381353,-0.20215 -1.016353,-0.30375 -1.907117,-0.30375 v 0 z m 1.8838345,1.09467 h 0.81915 c 0.336197,0 0.561975,0.0314 0.678039,0.0931 v 0 c 0.115358,0.0628 0.173213,0.17392 0.173213,0.33302 v 0 c 0,0.15487 -0.05785,0.26388 -0.173213,0.32667 v 0 c -0.116064,0.0617 -0.325262,0.0931 -0.629709,0.0931 v 0 h -0.86748 z"
       style="fill:url(#linearGradient842);stroke:none;stroke-width:0.35277775"
       id="path844"
       inkscape:connector-curvature="0" />
    <path
       d="m 19.180183,285.43608 -1.71062,1.49684 v -1.49684 h -1.891947 v 4.51626 h 1.891947 v -1.43792 l 0.47237,-0.37077 1.452738,1.80869 h 2.274712 l -2.395714,-2.85079 2.121958,-1.66547 z"
       style="fill:url(#linearGradient862);stroke:none;stroke-width:0.35277775"
       id="path864"
       inkscape:connector-curvature="0" />
    <path
       d="m 22.374585,285.95608 c -0.552097,0.42615 -0.828675,1.00612 -0.828675,1.74166 v 0 c 0,0.73484 0.276578,1.3148 0.828675,1.74096 v 0 c 0.55245,0.4258 1.307042,0.63923 2.261659,0.63923 v 0 c 0.951441,0 1.702858,-0.21343 2.253897,-0.63923 v 0 c 0.55245,-0.42616 0.827969,-1.00612 0.827969,-1.74096 v 0 c 0,-0.73554 -0.275519,-1.31551 -0.827969,-1.74166 v 0 c -0.551039,-0.42439 -1.302456,-0.63712 -2.253897,-0.63712 v 0 c -0.954617,0 -1.709209,0.21273 -2.261659,0.63712 m 1.376892,2.68393 c -0.188031,-0.20143 -0.28187,-0.51399 -0.28187,-0.94227 v 0 c 0,-0.42897 0.09384,-0.74295 0.28187,-0.94403 v 0 c 0.189089,-0.19967 0.483658,-0.30022 0.884767,-0.30022 v 0 c 0.39758,0 0.689327,0.0995 0.875594,0.29951 v 0 c 0.185914,0.19862 0.277989,0.51365 0.277989,0.94474 v 0 c 0,0.43039 -0.09208,0.74436 -0.277989,0.94333 v 0 c -0.186267,0.19967 -0.478014,0.29916 -0.875594,0.29916 v 0 c -0.401109,0 -0.695678,-0.10055 -0.884767,-0.30022"
       style="fill:url(#linearGradient882);stroke:none;stroke-width:0.35277775"
       id="path884"
       inkscape:connector-curvature="0" />
    <path
       d="m 2.6738867,293.62272 v -2.84163 h 1.8658416 v 0.68086 H 3.4238922 v 0.37888 h 0.9433277 v 0.65194 H 3.4238922 v 0.43921 h 1.1620499 v 0.69074 z"
       style="fill:#231f20;fill-opacity:1;fill-rule:nonzero;stroke:none;stroke-width:0.35277775"
       id="path896"
       inkscape:connector-curvature="0" />
    <path
       d="m 4.9018185,293.62272 v -2.09727 h 0.623358 v 0.30657 c 0.08008,-0.12206 0.170039,-0.21308 0.268464,-0.27305 0.09913,-0.06 0.210961,-0.0896 0.335492,-0.0896 0.104422,0 0.198261,0.0212 0.280811,0.0639 0.0822,0.0423 0.1524,0.10513 0.208844,0.18909 0.05221,0.0758 0.0889,0.16792 0.11042,0.27658 0.02187,0.10865 0.03246,0.28645 0.03246,0.5334 v 1.09044 h -0.684742 v -1.08656 c 0,-0.1591 -0.01764,-0.26917 -0.05256,-0.32914 -0.03493,-0.06 -0.0949,-0.0896 -0.180975,-0.0896 -0.08643,0 -0.150989,0.0349 -0.19297,0.10407 -0.04233,0.0699 -0.0635,0.17569 -0.0635,0.31891 v 1.08233 z"
       style="fill:#231f20;fill-opacity:1;fill-rule:nonzero;stroke:none;stroke-width:0.35277775"
       id="path900"
       inkscape:connector-curvature="0" />
    <path
       d="m 7.1513065,293.84804 h 0.678744 c 0.0085,0.0501 0.02787,0.0864 0.05927,0.10795 0.03104,0.0219 0.07867,0.0328 0.141817,0.0328 0.100189,0 0.168275,-0.0268 0.203552,-0.0808 0.03528,-0.054 0.05292,-0.17322 0.05292,-0.35701 v -0.11395 c -0.05785,0.0684 -0.127,0.11994 -0.206727,0.15346 -0.08008,0.0342 -0.170745,0.0515 -0.27305,0.0515 -0.232834,0 -0.4191,-0.097 -0.559153,-0.29068 -0.140053,-0.19333 -0.209903,-0.45085 -0.209903,-0.77224 0,-0.33866 0.06738,-0.60783 0.200731,-0.80891 0.133702,-0.20074 0.311855,-0.30093 0.534811,-0.30093 0.124178,0 0.233186,0.0272 0.325614,0.0804 0.09278,0.0533 0.172861,0.13582 0.240241,0.24765 v -0.27199 h 0.607131 v 1.93534 c 0,0.36512 -0.07338,0.62441 -0.220133,0.77716 -0.147109,0.15346 -0.395112,0.22966 -0.743656,0.22966 -0.241653,0 -0.435328,-0.0536 -0.579967,-0.16192 -0.144991,-0.10795 -0.228952,-0.2607 -0.252236,-0.45755 m 0.569384,-1.2887 c 0,0.16863 0.02258,0.29351 0.06809,0.37535 0.04551,0.0815 0.114652,0.12242 0.207433,0.12242 0.09843,0 0.170744,-0.0402 0.218017,-0.11995 0.04692,-0.0797 0.0702,-0.2039 0.0702,-0.37394 0,-0.15134 -0.02469,-0.26917 -0.07514,-0.35313 -0.05045,-0.0833 -0.121356,-0.12489 -0.213078,-0.12489 -0.09278,0 -0.161925,0.0395 -0.207433,0.11854 -0.04551,0.079 -0.06809,0.19755 -0.06809,0.3556"
       style="fill:#231f20;fill-opacity:1;fill-rule:nonzero;stroke:none;stroke-width:0.35277775"
       id="path904"
       inkscape:connector-curvature="0" />
    <path
       d="m 9.3330965,291.52538 h 0.6907395 v 2.09726 H 9.3330965 Z m 0,-0.81386 h 0.6907395 v 0.60008 H 9.3330965 Z"
       style="fill:#231f20;fill-opacity:1;fill-rule:nonzero;stroke:none;stroke-width:0.35277775"
       id="path906"
       inkscape:connector-curvature="0" />
    <path
       d="m 10.414503,293.62272 v -2.09727 h 0.623358 v 0.30657 c 0.08008,-0.12206 0.170039,-0.21308 0.268464,-0.27305 0.09913,-0.06 0.210961,-0.0896 0.335492,-0.0896 0.104422,0 0.198261,0.0212 0.280811,0.0639 0.0822,0.0423 0.152047,0.10513 0.208844,0.18909 0.05186,0.0758 0.0889,0.16792 0.11042,0.27658 0.02152,0.10865 0.03246,0.28645 0.03246,0.5334 v 1.09044 h -0.685095 v -1.08656 c 0,-0.1591 -0.01728,-0.26917 -0.05221,-0.32914 -0.03492,-0.06 -0.0949,-0.0896 -0.180975,-0.0896 -0.08643,0 -0.150989,0.0349 -0.193322,0.10407 -0.04233,0.0699 -0.06315,0.17569 -0.06315,0.31891 v 1.08233 z"
       style="fill:#231f20;fill-opacity:1;fill-rule:nonzero;stroke:none;stroke-width:0.35277775"
       id="path910"
       inkscape:connector-curvature="0" />
    <path
       d="m 13.801027,293.00105 h 0.656166 c -0.04763,0.22931 -0.152047,0.40252 -0.313266,0.52035 -0.160514,0.11783 -0.373945,0.17639 -0.637823,0.17639 -0.29598,0 -0.53093,-0.10019 -0.704497,-0.30022 -0.173919,-0.19967 -0.261055,-0.46884 -0.261055,-0.8075 0,-0.35208 0.08855,-0.63007 0.266347,-0.83433 0.177447,-0.2032 0.419453,-0.3055 0.724605,-0.3055 0.306564,0 0.547159,0.11042 0.720725,0.33267 0.173567,0.2219 0.260703,0.52917 0.260703,0.92322 v 0.0501 l -1.285522,0.002 c 0.0032,0.1337 0.03246,0.23706 0.08714,0.30974 0.05503,0.073 0.131586,0.10936 0.229658,0.10936 0.06668,0 0.122061,-0.0152 0.166511,-0.0455 0.04445,-0.0303 0.07444,-0.0737 0.09031,-0.13053 m -0.573617,-0.66357 h 0.610305 c -0.0074,-0.12983 -0.03669,-0.22719 -0.08855,-0.29175 -0.05221,-0.0653 -0.126294,-0.0977 -0.223661,-0.0977 -0.08996,0 -0.161219,0.0342 -0.21343,0.10372 -0.05221,0.0681 -0.08043,0.16369 -0.08467,0.28575"
       style="fill:#231f20;fill-opacity:1;fill-rule:nonzero;stroke:none;stroke-width:0.35277775"
       id="path914"
       inkscape:connector-curvature="0" />
    <path
       d="m 15.963344,293.00105 h 0.65652 c -0.04763,0.22931 -0.152047,0.40252 -0.313267,0.52035 -0.160867,0.11783 -0.373944,0.17639 -0.638175,0.17639 -0.29598,0 -0.53093,-0.10019 -0.704497,-0.30022 -0.17392,-0.19967 -0.261056,-0.46884 -0.261056,-0.8075 0,-0.35208 0.0889,-0.63007 0.266348,-0.83433 0.177447,-0.2032 0.419452,-0.3055 0.724605,-0.3055 0.306564,0 0.547158,0.11042 0.720725,0.33267 0.173567,0.2219 0.261056,0.52917 0.261056,0.92322 v 0.0501 l -1.285875,0.002 c 0.0032,0.1337 0.03245,0.23706 0.08714,0.30974 0.05503,0.073 0.131586,0.10936 0.229658,0.10936 0.06668,0 0.122061,-0.0152 0.166511,-0.0455 0.04445,-0.0303 0.07479,-0.0737 0.09031,-0.13053 m -0.573616,-0.66357 h 0.610305 c -0.0074,-0.12983 -0.03669,-0.22719 -0.08855,-0.29175 -0.05221,-0.0653 -0.126294,-0.0977 -0.223661,-0.0977 -0.08996,0 -0.16122,0.0342 -0.213078,0.10372 -0.05256,0.0681 -0.08079,0.16369 -0.08502,0.28575"
       style="fill:#231f20;fill-opacity:1;fill-rule:nonzero;stroke:none;stroke-width:0.35277775"
       id="path918"
       inkscape:connector-curvature="0" />
    <path
       d="m 16.960718,293.62272 v -2.09727 h 0.63253 v 0.38171 c 0.04516,-0.15134 0.11042,-0.26247 0.195439,-0.33232 0.08537,-0.0706 0.198614,-0.10548 0.340431,-0.10548 h 0.06138 v 0.83185 c -0.0254,-0.003 -0.04939,-0.005 -0.07267,-0.007 -0.02328,-0.002 -0.04586,-0.002 -0.06668,-0.002 -0.138642,0 -0.240242,0.0381 -0.305153,0.11395 -0.06491,0.0755 -0.09772,0.19473 -0.09772,0.35701 v 0.86042 z"
       style="fill:#231f20;fill-opacity:1;fill-rule:nonzero;stroke:none;stroke-width:0.35277775"
       id="path922"
       inkscape:connector-curvature="0" />
    <path
       d="m 18.355636,292.96299 h 0.665691 c 0,0.0889 0.0187,0.15451 0.05645,0.19826 0.03704,0.0441 0.09384,0.066 0.168627,0.066 0.07197,0 0.127353,-0.0145 0.165806,-0.0441 0.03845,-0.0296 0.05786,-0.0734 0.05786,-0.12982 0,-0.0935 -0.08502,-0.16334 -0.254706,-0.20814 -0.01517,-0.004 -0.02681,-0.007 -0.03528,-0.01 -0.322086,-0.0833 -0.532694,-0.17321 -0.631119,-0.26988 -0.09772,-0.0963 -0.147109,-0.23777 -0.147109,-0.42439 0,-0.22507 0.07197,-0.39652 0.216253,-0.51435 0.143934,-0.11782 0.354895,-0.17638 0.631472,-0.17638 0.257175,0 0.456495,0.0554 0.597253,0.1658 0.141111,0.11077 0.221897,0.27481 0.243417,0.49354 h -0.617008 c -0.0056,-0.0635 -0.02752,-0.1136 -0.06703,-0.15029 -0.04022,-0.0374 -0.08996,-0.0557 -0.149931,-0.0557 -0.06068,0 -0.106539,0.0124 -0.137936,0.0374 -0.0321,0.0251 -0.04798,0.061 -0.04798,0.10936 0,0.0829 0.07832,0.14464 0.233539,0.18485 0.04127,0.01 0.07197,0.018 0.09278,0.0229 0.313266,0.0879 0.516466,0.18063 0.610658,0.2787 0.09419,0.0988 0.141111,0.24306 0.141111,0.43356 0,0.24095 -0.07691,0.42193 -0.230364,0.54434 -0.153811,0.12206 -0.381352,0.18309 -0.682625,0.18309 -0.279047,0 -0.491419,-0.061 -0.637469,-0.18309 -0.146756,-0.12241 -0.227542,-0.30621 -0.242358,-0.55175"
       style="fill:#231f20;fill-opacity:1;fill-rule:nonzero;stroke:none;stroke-width:0.35277775"
       id="path926"
       inkscape:connector-curvature="0" />
    <path
       d="m 21.530953,293.62272 v -2.84163 h 0.750358 v 2.08703 h 1.019528 v 0.7546 z"
       style="fill:#231f20;fill-opacity:1;fill-rule:nonzero;stroke:none;stroke-width:0.35277775"
       id="path930"
       inkscape:connector-curvature="0" />
    <path
       d="m 24.363193,292.84569 c 0,0.0706 0.01693,0.12065 0.05115,0.14957 0.03316,0.0289 0.09313,0.0434 0.179564,0.0434 0.02575,0 0.04515,0 0.05785,-8e-4 0.01376,-7.9e-4 0.02716,-0.002 0.03951,-0.003 v 0.60395 c -0.08467,0.006 -0.16122,0.0109 -0.230717,0.0145 -0.0695,0.003 -0.134056,0.005 -0.194028,0.005 -0.218017,0 -0.369711,-0.0441 -0.455789,-0.13299 -0.08643,-0.0889 -0.129469,-0.24448 -0.129469,-0.46708 v -1.05163 h -0.242358 v -0.48084 h 0.242358 v -0.64805 h 0.681919 v 0.64805 h 0.321381 v 0.48084 h -0.321381 z"
       style="fill:#231f20;fill-opacity:1;fill-rule:nonzero;stroke:none;stroke-width:0.35277775"
       id="path934"
       inkscape:connector-curvature="0" />
    <path
       d="m 25.848352,293.08029 c 0.08784,0 0.156986,-0.043 0.207081,-0.12841 0.05009,-0.0857 0.07549,-0.20426 0.07549,-0.35596 0,-0.16439 -0.02328,-0.2861 -0.0695,-0.36583 -0.04657,-0.0797 -0.117475,-0.11994 -0.213078,-0.11994 -0.09525,0 -0.165453,0.0395 -0.210961,0.11853 -0.04551,0.079 -0.06809,0.20144 -0.06809,0.36724 0,0.15311 0.02434,0.27199 0.07373,0.35737 0.04939,0.0847 0.117827,0.127 0.205316,0.127 m 0.945092,0.54257 h -0.607483 v -0.25682 c -0.07338,0.11183 -0.156987,0.19473 -0.250825,0.24976 -0.09384,0.0543 -0.198614,0.0819 -0.314678,0.0819 -0.220839,0 -0.399697,-0.10196 -0.53587,-0.30551 -0.136525,-0.2039 -0.204611,-0.47343 -0.204611,-0.80927 0,-0.33302 0.06809,-0.60325 0.204964,-0.80998 0.136878,-0.20743 0.313267,-0.3108 0.529167,-0.3108 0.103364,0 0.197203,0.0236 0.281516,0.0713 0.08396,0.048 0.160162,0.11995 0.228953,0.2159 v -0.96802 h 0.668867 z"
       style="fill:#231f20;fill-opacity:1;fill-rule:nonzero;stroke:none;stroke-width:0.35277775"
       id="path938"
       inkscape:connector-curvature="0" />
    <path
       d="m 27.166013,292.76998 h 0.687917 v 0.85266 h -0.687917 z"
       style="fill:#231f20;fill-opacity:1;fill-rule:nonzero;stroke:none;stroke-width:0.35277775"
       id="path940"
       inkscape:connector-curvature="0" />
  </g>
</svg>
