<?xml version="1.0" encoding="UTF-8" standalone="no"?>
<!-- Created with Inkscape (http://www.inkscape.org/) -->

<svg
   width="40mm"
   height="30mm"
   viewBox="0 0 40 30"
   version="1.1"
   id="svg2963"
   inkscape:version="1.1 (ce6663b3b7, 2021-05-25)"
   sodipodi:docname="4s.svg"
   xmlns:inkscape="http://www.inkscape.org/namespaces/inkscape"
   xmlns:sodipodi="http://sodipodi.sourceforge.net/DTD/sodipodi-0.dtd"
   xmlns="http://www.w3.org/2000/svg"
   xmlns:svg="http://www.w3.org/2000/svg">
  <sodipodi:namedview
     id="namedview2965"
     pagecolor="#ffffff"
     bordercolor="#666666"
     borderopacity="1.0"
     inkscape:pageshadow="2"
     inkscape:pageopacity="0.0"
     inkscape:pagecheckerboard="0"
     inkscape:document-units="mm"
     showgrid="false"
     width="50mm"
     inkscape:zoom="0.73228114"
     inkscape:cx="224.6405"
     inkscape:cy="342.76453"
     inkscape:window-width="1879"
     inkscape:window-height="1059"
     inkscape:window-x="41"
     inkscape:window-y="21"
     inkscape:window-maximized="1"
     inkscape:current-layer="layer1" />
  <defs
     id="defs2960">
    <linearGradient
       x1="0"
       y1="0"
       x2="1"
       y2="0"
       gradientUnits="userSpaceOnUse"
       gradientTransform="matrix(-1.1e-6,-25.454102,-25.454102,1.1e-6,559.2998,264.92676)"
       spreadMethod="pad"
       id="linearGradient1780">
      <stop
         style="stop-opacity:1;stop-color:#e6f7fd"
         offset="0"
         id="stop1776" />
      <stop
         style="stop-opacity:1;stop-color:#ffffff"
         offset="1"
         id="stop1778" />
    </linearGradient>
    <clipPath
       clipPathUnits="userSpaceOnUse"
       id="clipPath1790">
      <path
         d="M 0,842 H 648 V 0 H 0 Z"
         id="path1788" />
    </clipPath>
    <radialGradient
       fx="0"
       fy="0"
       cx="0"
       cy="0"
       r="1"
       gradientUnits="userSpaceOnUse"
       gradientTransform="matrix(7.8867064,0,0,-7.8867064,567.25977,263.03027)"
       spreadMethod="pad"
       id="radialGradient1828">
      <stop
         style="stop-opacity:1;stop-color:#66c430"
         offset="0"
         id="stop1820" />
      <stop
         style="stop-opacity:1;stop-color:#66c430"
         offset="0.26"
         id="stop1822" />
      <stop
         style="stop-opacity:1;stop-color:#231f20"
         offset="0.82"
         id="stop1824" />
      <stop
         style="stop-opacity:1;stop-color:#231f20"
         offset="1"
         id="stop1826" />
    </radialGradient>
    <radialGradient
       fx="0"
       fy="0"
       cx="0"
       cy="0"
       r="1"
       gradientUnits="userSpaceOnUse"
       gradientTransform="matrix(1.981353,0,0,-1.981353,561.12891,263.23633)"
       spreadMethod="pad"
       id="radialGradient1850">
      <stop
         style="stop-opacity:1;stop-color:#66c430"
         offset="0"
         id="stop1844" />
      <stop
         style="stop-opacity:1;stop-color:#231f20"
         offset="0.74"
         id="stop1846" />
      <stop
         style="stop-opacity:1;stop-color:#231f20"
         offset="1"
         id="stop1848" />
    </radialGradient>
    <clipPath
       clipPathUnits="userSpaceOnUse"
       id="clipPath1860">
      <path
         d="M 0,842 H 648 V 0 H 0 Z"
         id="path1858" />
    </clipPath>
    <radialGradient
       fx="0"
       fy="0"
       cx="0"
       cy="0"
       r="1"
       gradientUnits="userSpaceOnUse"
       gradientTransform="matrix(1.981353,0,0,-1.981353,573.43945,263.23633)"
       spreadMethod="pad"
       id="radialGradient1890">
      <stop
         style="stop-opacity:1;stop-color:#66c430"
         offset="0"
         id="stop1884" />
      <stop
         style="stop-opacity:1;stop-color:#231f20"
         offset="0.74"
         id="stop1886" />
      <stop
         style="stop-opacity:1;stop-color:#231f20"
         offset="1"
         id="stop1888" />
    </radialGradient>
    <clipPath
       clipPathUnits="userSpaceOnUse"
       id="clipPath1900">
      <path
         d="M 0,842 H 648 V 0 H 0 Z"
         id="path1898" />
    </clipPath>
  </defs>
  <g
     inkscape:label="Layer 1"
     inkscape:groupmode="layer"
     id="layer1">
    <path
       d="M 4.1610725,24.416456 H 14.28015 V 19.991211 H 4.1610725 Z"
       style="fill:#167947;fill-opacity:1;fill-rule:evenodd;stroke:none;stroke-width:0.352778"
       id="path1760" />
    <path
       d="M 18.076038,24.416456 H 35.898724 V 19.991211 H 18.076038 Z"
       style="fill:#167947;fill-opacity:1;fill-rule:evenodd;stroke:none;stroke-width:0.352778"
       id="path1762" />
    <g
       id="g1764"
       transform="matrix(0.35277777,0,0,-0.35277777,-166.84937,99.583165)">
      <g
         id="g1766">
        <g
           id="g1772">
          <g
             id="g1774">
            <path
               d="m 543.842,239.473 h 30.916 v 25.454 h -30.916 z"
               style="fill:url(#linearGradient1780);stroke:none"
               id="path1782" />
          </g>
        </g>
      </g>
    </g>
    <g
       id="g1784"
       transform="matrix(0.35277777,0,0,-0.35277777,-166.84937,99.583165)">
      <g
         id="g1786"
         clip-path="url(#clipPath1790)">
        <g
           id="g1792"
           transform="translate(545.9463,233.2549)">
          <path
             d="m 0,0 v 14.057 l 14.302,4.827 h 14.51 L 28.812,0 Z"
             style="fill:#231f20;fill-opacity:1;fill-rule:evenodd;stroke:none"
             id="path1794" />
        </g>
        <g
           id="g1796"
           transform="translate(543.8418,233.2402)">
          <path
             d="m 0,0 h -59.088 v 23.765 c 0,4.357 3.565,7.922 7.922,7.922 H 0 Z"
             style="fill:#167947;fill-opacity:1;fill-rule:evenodd;stroke:none"
             id="path1798" />
        </g>
        <g
           id="g1800"
           transform="translate(513.333,249.9932)">
          <path
             d="M 0,0 V -16.753 H 10.784 V 14.934 H 4.483 L 0,9.562 -21.957,-16.753 h 7.978 z"
             style="fill:#ffffff;fill-opacity:1;fill-rule:evenodd;stroke:none"
             id="path1802" />
        </g>
        <g
           id="g1804"
           transform="translate(524.1172,235.2217)">
          <path
             d="m 0,0 v 3.8 c 0,0 1.699,-2.859 5.333,-3.439 3.635,-0.579 6.529,0.201 8.167,2.259 1.638,2.06 1.179,4.359 0.1,5.498 -1.079,1.14 -2.826,2.549 -5.518,4.166 -2.692,1.617 -4.519,2.946 -5.635,4.275 -1.116,1.329 -2.327,3.35 -1.192,6.507 1.135,3.159 4.115,4.776 7.23,5.507 3.116,0.733 6.251,0.289 7.905,-0.115 1.654,-0.404 3.335,-0.713 3.335,-0.713 v -3.427 c 0,0 -0.893,1.81 -2.97,2.619 -2.076,0.808 -5.558,0.693 -7.135,-0.366 -1.577,-1.059 -1.923,-2.368 -2,-3.447 -0.077,-1.078 0.154,-2.387 2.212,-3.716 2.058,-1.328 3.442,-2.098 5.231,-3.292 1.789,-1.194 3.939,-2.811 4.662,-4.101 V 2.657 c 0,0 -1.451,-2.118 -5.258,-3.234 C 10.659,-1.694 5.774,-1.232 3.351,-0.693 0.928,-0.154 0.535,0.039 0,0"
             style="fill:#ffffff;fill-opacity:1;fill-rule:evenodd;stroke:none"
             id="path1806" />
        </g>
      </g>
    </g>
    <g
       id="g1808"
       transform="matrix(0.35277777,0,0,-0.35277777,-166.84937,99.583165)">
      <g
         id="g1810">
        <g
           id="g1816">
          <g
             id="g1818">
            <path
               d="m 566.584,263.374 c 0,-0.3 0.167,-0.559 0.413,-0.691 v 0 -2.564 c -4.489,-1.669 -4.121,-5.136 -4.121,-5.136 v 0 h -0.44 v -0.327 h 0.421 8.805 0.422 v 0.327 h -0.441 c 0,0 0.367,3.467 -4.121,5.136 v 0 2.488 c 0.308,0.062 0.55,0.303 0.613,0.61 v 0 c -0.125,-0.234 -0.371,-0.395 -0.656,-0.395 v 0 c -0.411,0 -0.745,0.334 -0.745,0.745 v 0 c 0,0.144 0.043,0.279 0.113,0.393 v 0 c -0.161,-0.144 -0.263,-0.354 -0.263,-0.586"
               style="fill:url(#radialGradient1828);stroke:none"
               id="path1830" />
          </g>
        </g>
      </g>
    </g>
    <g
       id="g1832"
       transform="matrix(0.35277777,0,0,-0.35277777,-166.84937,99.583165)">
      <g
         id="g1834">
        <g
           id="g1840">
          <g
             id="g1842">
            <path
               d="m 561.091,263.2 c -1.098,-0.395 -1.009,-1.236 -1.009,-1.236 v 0 h -0.105 v -0.077 h -0.11 v -0.661 h 2.523 v 0.661 h -0.111 v 0.077 h -0.105 c 0,0 0.089,0.841 -1.009,1.234 v 0 l -0.037,0.262 z"
               style="fill:url(#radialGradient1850);stroke:none"
               id="path1852" />
          </g>
        </g>
      </g>
    </g>
    <g
       id="g1854"
       transform="matrix(0.35277777,0,0,-0.35277777,-166.84937,99.583165)">
      <g
         id="g1856"
         clip-path="url(#clipPath1860)">
        <path
           d="m 560.248,260.821 h 1.762 v 0.404 h -1.762 z"
           style="fill:#231f20;fill-opacity:1;fill-rule:evenodd;stroke:none"
           id="path1862" />
        <path
           d="m 560.604,260.417 h 1.048 v 0.404 h -1.048 z"
           style="fill:#231f20;fill-opacity:1;fill-rule:evenodd;stroke:none"
           id="path1864" />
        <path
           d="m 560.248,259.399 h 1.762 v 1.018 h -1.762 z"
           style="fill:#231f20;fill-opacity:1;fill-rule:evenodd;stroke:none"
           id="path1866" />
        <path
           d="m 559.915,258.664 h 2.427 v 0.735 h -2.427 z"
           style="fill:#231f20;fill-opacity:1;fill-rule:evenodd;stroke:none"
           id="path1868" />
        <path
           d="m 560.248,252.069 h 1.762 v 6.594 h -1.762 z"
           style="fill:#231f20;fill-opacity:1;fill-rule:evenodd;stroke:none"
           id="path1870" />
      </g>
    </g>
    <g
       id="g1872"
       transform="matrix(0.35277777,0,0,-0.35277777,-166.84937,99.583165)">
      <g
         id="g1874">
        <g
           id="g1880">
          <g
             id="g1882">
            <path
               d="m 573.404,263.2 c -1.099,-0.395 -1.01,-1.236 -1.01,-1.236 v 0 h -0.105 v -0.077 h -0.111 v -0.661 h 2.523 v 0.661 h -0.11 v 0.077 h -0.106 c 0,0 0.089,0.841 -1.009,1.234 v 0 l -0.037,0.262 z"
               style="fill:url(#radialGradient1890);stroke:none"
               id="path1892" />
          </g>
        </g>
      </g>
    </g>
    <g
       id="g1894"
       transform="matrix(0.35277777,0,0,-0.35277777,-166.84937,99.583165)">
      <g
         id="g1896"
         clip-path="url(#clipPath1900)">
        <path
           d="m 572.559,260.821 h 1.762 v 0.404 h -1.762 z"
           style="fill:#231f20;fill-opacity:1;fill-rule:evenodd;stroke:none"
           id="path1902" />
        <path
           d="m 572.916,260.417 h 1.048 v 0.404 h -1.048 z"
           style="fill:#231f20;fill-opacity:1;fill-rule:evenodd;stroke:none"
           id="path1904" />
        <path
           d="m 572.559,259.399 h 1.762 v 1.018 h -1.762 z"
           style="fill:#231f20;fill-opacity:1;fill-rule:evenodd;stroke:none"
           id="path1906" />
        <path
           d="m 572.227,258.664 h 2.427 v 0.735 h -2.427 z"
           style="fill:#231f20;fill-opacity:1;fill-rule:evenodd;stroke:none"
           id="path1908" />
        <path
           d="m 572.559,252.069 h 1.762 v 6.594 h -1.762 z"
           style="fill:#231f20;fill-opacity:1;fill-rule:evenodd;stroke:none"
           id="path1910" />
        <path
           d="m 562.853,253.987 h 8.815 v 0.669 h -8.815 z"
           style="fill:none;stroke:#231f20;stroke-width:0.216;stroke-linecap:butt;stroke-linejoin:miter;stroke-miterlimit:2.613;stroke-dasharray:none;stroke-opacity:1"
           id="path1912" />
        <path
           d="m 562.853,251.833 h 8.815 v 0.669 h -8.815 z"
           style="fill:#231f20;fill-opacity:1;fill-rule:evenodd;stroke:none"
           id="path1914" />
        <path
           d="m 564.223,252.502 h 0.787 v 1.485 h -0.787 z"
           style="fill:#231f20;fill-opacity:1;fill-rule:evenodd;stroke:none"
           id="path1916" />
        <path
           d="m 566.12,252.502 h 0.787 v 1.485 h -0.787 z"
           style="fill:#231f20;fill-opacity:1;fill-rule:evenodd;stroke:none"
           id="path1918" />
        <path
           d="m 567.624,252.502 h 0.787 v 1.485 h -0.787 z"
           style="fill:#231f20;fill-opacity:1;fill-rule:evenodd;stroke:none"
           id="path1920" />
        <path
           d="m 569.481,252.502 h 0.788 v 1.485 h -0.788 z"
           style="fill:#231f20;fill-opacity:1;fill-rule:evenodd;stroke:none"
           id="path1922" />
        <path
           d="m 570.926,252.502 h 0.742 v 1.485 h -0.742 z"
           style="fill:#231f20;fill-opacity:1;fill-rule:evenodd;stroke:none"
           id="path1924" />
        <path
           d="m 562.853,252.502 h 0.302 v 1.485 h -0.302 z"
           style="fill:#231f20;fill-opacity:1;fill-rule:evenodd;stroke:none"
           id="path1926" />
        <path
           d="m 563.154,252.502 h 1.068 v 1.485 h -1.068 z"
           style="fill:#f89c0e;fill-opacity:1;fill-rule:evenodd;stroke:none"
           id="path1928" />
        <path
           d="m 565.01,252.502 h 1.11 v 1.485 h -1.11 z"
           style="fill:#f89c0e;fill-opacity:1;fill-rule:evenodd;stroke:none"
           id="path1930" />
        <path
           d="m 566.907,252.502 h 0.717 v 1.485 h -0.717 z"
           style="fill:#f89c0e;fill-opacity:1;fill-rule:evenodd;stroke:none"
           id="path1932" />
        <path
           d="m 568.411,252.502 h 1.07 v 1.485 h -1.07 z"
           style="fill:#f89c0e;fill-opacity:1;fill-rule:evenodd;stroke:none"
           id="path1934" />
        <path
           d="m 570.27,252.502 h 0.656 v 1.485 h -0.656 z"
           style="fill:#f89c0e;fill-opacity:1;fill-rule:evenodd;stroke:none"
           id="path1936" />
        <path
           d="m 564.648,250.63 h 1.11 v 0.786 h -1.11 z"
           style="fill:#f89c0e;fill-opacity:1;fill-rule:evenodd;stroke:none"
           id="path1938" />
        <path
           d="m 566.539,249.952 h 1.11 v 1.464 h -1.11 z"
           style="fill:#f89c0e;fill-opacity:1;fill-rule:evenodd;stroke:none"
           id="path1940" />
        <path
           d="m 568.652,249.345 h 1.18 v 2.071 h -1.18 z"
           style="fill:#f89c0e;fill-opacity:1;fill-rule:evenodd;stroke:none"
           id="path1942" />
        <path
           d="m 570.613,249.345 h 1.413 v 2.071 h -1.413 z"
           style="fill:#f89c0e;fill-opacity:1;fill-rule:evenodd;stroke:none"
           id="path1944" />
        <g
           id="g1946"
           transform="translate(545.9463,244.4512)">
          <path
             d="M 0,0 14.495,4.874 28.812,0.029 V -2.643 L 14.406,1.116 0,-2.584 Z"
             style="fill:#f89c0e;fill-opacity:1;fill-rule:evenodd;stroke:none"
             id="path1948" />
        </g>
        <g
           id="g1950"
           transform="translate(490.7266,224.4678)">
          <path
             d="m 0,0 0.071,-3.513 h -0.42 c -0.142,0.913 -0.335,1.632 -0.573,2.156 -0.241,0.526 -0.517,0.833 -0.83,0.922 v -8.059 c 0,-0.355 0.047,-0.591 0.14,-0.712 0.094,-0.121 0.27,-0.19 0.527,-0.208 v -0.441 h -3.009 v 0.441 c 0.257,0.018 0.433,0.087 0.527,0.208 0.093,0.121 0.14,0.357 0.14,0.712 v 8.059 C -3.739,-0.524 -4.016,-0.831 -4.257,-1.357 -4.495,-1.881 -4.687,-2.6 -4.83,-3.513 H -5.25 L -5.179,0 Z"
             style="fill:#ffffff;fill-opacity:1;fill-rule:nonzero;stroke:none"
             id="path1952" />
        </g>
        <g
           id="g1954"
           transform="translate(494.8711,217.8643)">
          <path
             d="m 0,0 c 0,-0.962 -0.23,-1.771 -0.687,-2.431 -0.458,-0.659 -1.007,-0.988 -1.648,-0.988 -0.632,0 -1.176,0.329 -1.632,0.988 -0.455,0.66 -0.682,1.469 -0.682,2.431 0,0.97 0.227,1.784 0.68,2.443 0.453,0.66 0.998,0.989 1.634,0.989 0.646,0 1.196,-0.329 1.652,-0.989 C -0.228,1.784 0,0.97 0,0 M -2.335,3.022 C -2.601,3.022 -2.785,2.81 -2.893,2.386 -3,1.961 -3.054,1.171 -3.054,0.013 c 0,-1.144 0.054,-1.924 0.161,-2.341 0.108,-0.414 0.292,-0.622 0.558,-0.622 0.271,0 0.462,0.213 0.571,0.637 0.112,0.424 0.168,1.201 0.168,2.326 0,1.165 -0.056,1.959 -0.168,2.38 -0.109,0.419 -0.3,0.629 -0.571,0.629"
             style="fill:#ffffff;fill-opacity:1;fill-rule:nonzero;stroke:none"
             id="path1956" />
        </g>
        <g
           id="g1958"
           transform="translate(498.7256,219.9961)">
          <path
             d="m 0,0 c 0,0.245 -0.033,0.417 -0.098,0.513 -0.065,0.095 -0.185,0.16 -0.359,0.197 v 0.43 c 0.412,0 0.769,0.005 1.071,0.016 0.301,0.011 0.578,0.03 0.83,0.05 v -5.464 c 0,-0.254 0.035,-0.43 0.108,-0.524 0.073,-0.094 0.207,-0.154 0.403,-0.181 V -5.411 C 1.429,-5.435 1.031,-5.452 0.769,-5.469 0.505,-5.482 0.262,-5.501 0.04,-5.517 l -0.026,0.97 c -0.257,-0.351 -0.511,-0.608 -0.759,-0.766 -0.25,-0.158 -0.521,-0.238 -0.813,-0.238 -0.48,0 -0.819,0.162 -1.02,0.486 -0.2,0.324 -0.301,0.887 -0.301,1.685 V 0 c 0,0.254 -0.032,0.426 -0.094,0.52 -0.065,0.091 -0.18,0.153 -0.35,0.19 v 0.43 c 0.412,0 0.77,0.005 1.071,0.016 0.302,0.011 0.578,0.03 0.83,0.05 v -4.738 c 0,-0.385 0.045,-0.659 0.134,-0.822 0.09,-0.163 0.237,-0.245 0.442,-0.245 0.268,0 0.476,0.13 0.623,0.391 C -0.074,-3.944 0,-3.578 0,-3.104 Z"
             style="fill:#ffffff;fill-opacity:1;fill-rule:nonzero;stroke:none"
             id="path1960" />
        </g>
        <g
           id="g1962"
           transform="translate(501.2031,214.6123)">
          <path
             d="M 0,0 V 0.409 C 0.234,0.462 0.389,0.533 0.462,0.62 0.536,0.707 0.573,0.881 0.573,1.14 V 5.382 C 0.573,5.634 0.531,5.808 0.446,5.903 0.361,6 0.198,6.063 -0.04,6.101 V 6.523 L 0.078,6.53 C 0.893,6.564 1.522,6.6 1.966,6.629 l 0.013,-1.4 c 0.153,0.459 0.349,0.809 0.585,1.052 0.24,0.24 0.503,0.362 0.795,0.362 0.254,0 0.46,-0.082 0.619,-0.246 C 4.136,6.235 4.217,6.024 4.217,5.764 4.217,5.519 4.139,5.317 3.984,5.162 3.83,5.004 3.629,4.927 3.386,4.927 3.198,4.927 3.042,4.981 2.915,5.094 2.788,5.206 2.689,5.37 2.62,5.59 2.415,5.3 2.261,4.903 2.154,4.404 2.047,3.903 1.993,3.313 1.993,2.634 V 1.22 C 1.993,0.929 2.04,0.736 2.134,0.641 2.228,0.544 2.415,0.496 2.694,0.496 H 2.772 V 0 Z"
             style="fill:#ffffff;fill-opacity:1;fill-rule:nonzero;stroke:none"
             id="path1964" />
        </g>
        <g
           id="g1966"
           transform="translate(505.7187,217.2207)">
          <path
             d="m 0,0 h 0.464 c 0.123,-0.716 0.335,-1.279 0.639,-1.688 0.303,-0.413 0.651,-0.619 1.048,-0.619 0.228,0 0.413,0.077 0.561,0.225 0.145,0.15 0.219,0.341 0.219,0.574 0,0.188 -0.059,0.373 -0.177,0.556 -0.118,0.183 -0.288,0.35 -0.511,0.504 -0.06,0.039 -0.147,0.097 -0.261,0.174 C 1.058,0.351 0.491,0.84 0.281,1.192 0.185,1.35 0.113,1.52 0.069,1.702 0.022,1.886 0,2.078 0,2.279 c 0,0.51 0.149,0.936 0.448,1.28 0.3,0.344 0.665,0.516 1.103,0.516 0.194,0 0.42,-0.053 0.672,-0.158 0.255,-0.104 0.409,-0.155 0.466,-0.155 0.074,0 0.141,0.025 0.206,0.08 0.062,0.053 0.116,0.126 0.161,0.22 H 3.467 V 1.65 H 3.021 C 2.853,2.293 2.641,2.782 2.388,3.121 2.134,3.458 1.85,3.627 1.538,3.627 1.351,3.627 1.189,3.559 1.056,3.419 0.924,3.281 0.856,3.109 0.856,2.91 0.856,2.547 1.231,2.128 1.982,1.65 L 2.009,1.636 C 2.701,1.189 3.181,0.785 3.444,0.424 3.707,0.062 3.839,-0.351 3.839,-0.81 c 0,-0.543 -0.172,-1.004 -0.516,-1.389 -0.345,-0.384 -0.76,-0.576 -1.25,-0.576 -0.245,0 -0.498,0.059 -0.763,0.18 -0.263,0.121 -0.419,0.181 -0.466,0.181 -0.052,0 -0.11,-0.024 -0.174,-0.066 C 0.607,-2.526 0.509,-2.625 0.372,-2.775 H 0 Z"
             style="fill:#ffffff;fill-opacity:1;fill-rule:nonzero;stroke:none"
             id="path1968" />
        </g>
        <g
           id="g1970"
           transform="translate(519.2959,215.0215)">
          <path
             d="m 0,0 c -0.274,-0.196 -0.546,-0.343 -0.814,-0.437 -0.268,-0.093 -0.542,-0.139 -0.822,-0.139 -0.765,0 -1.384,0.242 -1.852,0.729 -0.469,0.488 -0.703,1.124 -0.703,1.911 0,0.559 0.154,1.089 0.462,1.593 0.305,0.501 0.763,0.968 1.368,1.396 -0.16,0.453 -0.279,0.858 -0.355,1.217 -0.076,0.359 -0.114,0.696 -0.114,1.009 0,0.68 0.187,1.236 0.565,1.67 C -1.888,9.382 -1.405,9.6 -0.816,9.6 -0.323,9.6 0.09,9.437 0.423,9.114 0.755,8.789 0.922,8.389 0.922,7.911 0.922,7.494 0.769,7.078 0.458,6.659 0.147,6.24 -0.296,5.849 -0.877,5.482 -0.549,4.574 -0.27,3.85 -0.04,3.307 0.192,2.765 0.427,2.266 0.668,1.814 0.82,2.181 0.936,2.524 1.016,2.845 1.099,3.165 1.139,3.438 1.139,3.666 1.139,3.993 1.072,4.233 0.942,4.387 0.811,4.54 0.607,4.622 0.333,4.632 V 5.08 H 2.701 V 4.632 C 2.458,4.6 2.259,4.533 2.109,4.431 1.96,4.327 1.854,4.184 1.793,3.995 1.793,3.991 1.715,3.678 1.557,3.06 1.399,2.439 1.215,1.852 1,1.293 1.159,1.021 1.304,0.824 1.44,0.703 1.574,0.581 1.715,0.521 1.857,0.521 c 0.183,0 0.327,0.104 0.429,0.31 0.103,0.204 0.16,0.503 0.174,0.897 H 2.892 C 2.892,1.019 2.746,0.455 2.453,0.044 2.161,-0.37 1.767,-0.576 1.269,-0.576 1.034,-0.576 0.809,-0.528 0.597,-0.43 0.382,-0.332 0.184,-0.187 0,0 M -0.379,0.47 C -0.745,1.112 -1.082,1.773 -1.39,2.453 -1.696,3.133 -1.975,3.838 -2.223,4.572 -2.395,4.446 -2.521,4.284 -2.606,4.082 -2.691,3.881 -2.733,3.641 -2.733,3.364 c 0,-0.357 0.069,-0.748 0.209,-1.176 0.138,-0.425 0.333,-0.831 0.583,-1.21 0.151,-0.232 0.321,-0.413 0.506,-0.541 0.186,-0.125 0.371,-0.19 0.558,-0.19 0.101,0 0.19,0.019 0.271,0.053 0.078,0.037 0.154,0.092 0.227,0.17 m -0.654,5.475 c 0.324,0.263 0.56,0.561 0.71,0.893 0.149,0.329 0.225,0.714 0.225,1.153 0,0.334 -0.062,0.602 -0.185,0.801 -0.125,0.198 -0.29,0.297 -0.495,0.297 -0.231,0 -0.405,-0.082 -0.523,-0.247 -0.118,-0.167 -0.176,-0.407 -0.176,-0.725 0,-0.321 0.038,-0.667 0.114,-1.032 0.076,-0.366 0.187,-0.746 0.33,-1.14"
             style="fill:#ed1c24;fill-opacity:1;fill-rule:nonzero;stroke:none"
             id="path1972" />
        </g>
        <g
           id="g1974"
           transform="translate(530.502,224.4678)">
          <path
             d="M 0,0 0.067,-3.513 H -0.33 c -0.136,0.913 -0.318,1.632 -0.545,2.156 -0.228,0.526 -0.491,0.833 -0.787,0.922 v -8.059 c 0,-0.355 0.044,-0.591 0.134,-0.712 0.089,-0.121 0.256,-0.19 0.499,-0.208 v -0.441 h -2.854 v 0.441 c 0.243,0.018 0.41,0.087 0.5,0.208 0.089,0.121 0.133,0.357 0.133,0.712 v 8.059 C -3.546,-0.524 -3.809,-0.831 -4.037,-1.357 -4.264,-1.881 -4.446,-2.6 -4.581,-3.513 H -4.979 L -4.912,0 Z"
             style="fill:#ffffff;fill-opacity:1;fill-rule:nonzero;stroke:none"
             id="path1976" />
        </g>
        <g
           id="g1978"
           transform="translate(530.5107,214.6123)">
          <path
             d="M 0,0 V 0.409 C 0.222,0.462 0.368,0.533 0.437,0.62 0.508,0.707 0.544,0.881 0.544,1.14 V 5.382 C 0.544,5.634 0.503,5.808 0.423,5.903 0.343,6 0.187,6.063 -0.038,6.101 V 6.523 L 0.073,6.53 c 0.774,0.034 1.37,0.07 1.791,0.099 l 0.013,-1.4 c 0.144,0.459 0.331,0.809 0.555,1.052 0.226,0.24 0.476,0.362 0.754,0.362 0.241,0 0.436,-0.082 0.586,-0.246 C 3.923,6.235 3.999,6.024 3.999,5.764 3.999,5.519 3.925,5.317 3.778,5.162 3.633,5.004 3.441,4.927 3.211,4.927 3.033,4.927 2.885,4.981 2.765,5.094 2.644,5.206 2.551,5.37 2.485,5.59 2.29,5.3 2.144,4.903 2.043,4.404 1.94,3.903 1.89,3.313 1.89,2.634 V 1.22 C 1.89,0.929 1.935,0.736 2.023,0.641 2.112,0.544 2.29,0.496 2.555,0.496 H 2.629 V 0 Z"
             style="fill:#ffffff;fill-opacity:1;fill-rule:nonzero;stroke:none"
             id="path1980" />
        </g>
        <g
           id="g1982"
           transform="translate(537.1953,215.3584)">
          <path
             d="m 0,0 c -0.178,-0.3 -0.381,-0.526 -0.606,-0.682 -0.23,-0.154 -0.475,-0.231 -0.74,-0.231 -0.368,0 -0.671,0.142 -0.906,0.426 -0.234,0.283 -0.353,0.647 -0.353,1.089 0,0.589 0.219,1.129 0.66,1.62 0.44,0.489 1.062,0.881 1.865,1.175 v 0.925 c 0,0.399 -0.053,0.68 -0.158,0.847 -0.107,0.167 -0.284,0.252 -0.538,0.252 -0.111,0 -0.221,-0.024 -0.325,-0.067 -0.105,-0.045 -0.203,-0.105 -0.29,-0.18 0.166,-0.065 0.295,-0.158 0.386,-0.289 0.091,-0.13 0.138,-0.281 0.138,-0.455 0,-0.215 -0.069,-0.389 -0.201,-0.522 C -1.204,3.773 -1.38,3.707 -1.6,3.707 c -0.239,0 -0.434,0.075 -0.58,0.229 -0.146,0.151 -0.22,0.347 -0.22,0.587 0,0.385 0.186,0.714 0.559,0.989 0.37,0.275 0.831,0.412 1.382,0.412 0.604,0 1.048,-0.142 1.329,-0.426 C 1.154,5.215 1.297,4.766 1.297,4.155 V 0.629 c 0,-0.252 0.015,-0.412 0.044,-0.483 0.027,-0.071 0.08,-0.107 0.154,-0.107 0.096,0 0.165,0.062 0.212,0.185 0.044,0.122 0.067,0.311 0.067,0.565 H 2.097 V 0.602 C 2.097,0.109 2.01,-0.266 1.834,-0.524 1.658,-0.783 1.406,-0.913 1.08,-0.913 0.839,-0.913 0.631,-0.84 0.456,-0.691 0.28,-0.545 0.13,-0.313 0,0 M -0.08,2.869 C -0.436,2.757 -0.713,2.528 -0.912,2.183 -1.111,1.835 -1.21,1.4 -1.21,0.878 c 0,-0.304 0.038,-0.532 0.114,-0.684 0.076,-0.153 0.193,-0.229 0.345,-0.229 0.187,0 0.345,0.117 0.477,0.353 0.128,0.233 0.194,0.531 0.194,0.888 z"
             style="fill:#ffffff;fill-opacity:1;fill-rule:nonzero;stroke:none"
             id="path1984" />
        </g>
        <g
           id="g1986"
           transform="translate(541.1338,214.4453)">
          <path
             d="m 0,0 -1.465,5.643 c -0.049,0.211 -0.112,0.364 -0.193,0.458 -0.078,0.093 -0.18,0.145 -0.309,0.16 L -1.974,6.69 H 0.203 L 0.196,6.261 C 0.069,6.237 -0.017,6.208 -0.063,6.167 -0.108,6.125 -0.131,6.062 -0.131,5.973 c 0,-0.042 0.012,-0.118 0.038,-0.23 0.006,-0.03 0.012,-0.055 0.017,-0.073 L 0.682,2.762 1.421,5.423 c 0.018,0.089 0.033,0.155 0.04,0.201 0.004,0.044 0.008,0.089 0.008,0.133 0,0.144 -0.046,0.257 -0.14,0.339 C 1.236,6.178 1.088,6.233 0.887,6.261 V 6.69 H 2.616 L 2.61,6.261 C 2.433,6.203 2.288,6.107 2.179,5.973 2.07,5.837 1.978,5.643 1.903,5.382 L 0.39,0 Z"
             style="fill:#ffffff;fill-opacity:1;fill-rule:nonzero;stroke:none"
             id="path1988" />
        </g>
        <g
           id="g1990"
           transform="translate(547.4824,216.8252)">
          <path
             d="M 0,0 H 0.408 C 0.359,-0.746 0.159,-1.33 -0.19,-1.751 -0.54,-2.17 -0.997,-2.38 -1.564,-2.38 c -0.657,0 -1.194,0.309 -1.616,0.924 -0.419,0.618 -0.629,1.419 -0.629,2.4 0,1.051 0.206,1.903 0.615,2.552 0.408,0.65 0.935,0.975 1.581,0.975 0.633,0 1.129,-0.309 1.486,-0.929 C 0.23,2.924 0.408,2.06 0.408,0.944 V 0.893 H -2.27 V 0.645 c 0,-0.764 0.087,-1.343 0.261,-1.735 0.174,-0.39 0.434,-0.586 0.781,-0.586 0.322,0 0.591,0.145 0.807,0.436 C -0.207,-0.95 -0.065,-0.536 0,0 m -2.282,1.441 h 1.27 v 0.423 c 0,0.804 -0.045,1.366 -0.135,1.689 -0.091,0.323 -0.246,0.483 -0.466,0.483 -0.222,0 -0.39,-0.204 -0.502,-0.611 C -2.227,3.02 -2.282,2.402 -2.282,1.576 Z"
             style="fill:#ffffff;fill-opacity:1;fill-rule:nonzero;stroke:none"
             id="path1992" />
        </g>
        <g
           id="g1994"
           transform="translate(548.8965,223.3145)">
          <path
             d="m 0,0 c 0,0.266 -0.033,0.443 -0.102,0.537 -0.069,0.094 -0.197,0.154 -0.382,0.182 v 0.448 c 0.234,0.014 0.489,0.027 0.759,0.043 0.271,0.017 0.64,0.039 1.108,0.071 v -8.855 c 0,-0.247 0.033,-0.419 0.101,-0.518 0.071,-0.097 0.193,-0.164 0.37,-0.201 v -0.409 h -2.338 v 0.409 c 0.181,0.037 0.308,0.104 0.379,0.204 C -0.036,-7.988 0,-7.816 0,-7.574 Z"
             style="fill:#ffffff;fill-opacity:1;fill-rule:nonzero;stroke:none"
             id="path1996" />
        </g>
        <g
           id="g1998"
           transform="translate(551.4775,217.2207)">
          <path
             d="m 0,0 h 0.439 c 0.118,-0.716 0.319,-1.279 0.606,-1.688 0.288,-0.413 0.618,-0.619 0.995,-0.619 0.217,0 0.393,0.077 0.531,0.225 0.139,0.15 0.208,0.341 0.208,0.574 0,0.188 -0.054,0.373 -0.167,0.556 C 2.5,-0.769 2.339,-0.602 2.127,-0.448 2.07,-0.409 1.987,-0.351 1.88,-0.274 1.003,0.351 0.466,0.84 0.267,1.192 0.176,1.35 0.107,1.52 0.065,1.702 0.021,1.886 0,2.078 0,2.279 c 0,0.51 0.142,0.936 0.425,1.28 0.284,0.344 0.631,0.516 1.046,0.516 0.184,0 0.398,-0.053 0.637,-0.158 0.242,-0.104 0.388,-0.155 0.443,-0.155 0.069,0 0.133,0.025 0.194,0.08 0.06,0.053 0.11,0.126 0.152,0.22 h 0.39 V 1.65 H 2.866 C 2.705,2.293 2.504,2.782 2.265,3.121 2.023,3.458 1.755,3.627 1.458,3.627 1.28,3.627 1.128,3.559 1.001,3.419 0.876,3.281 0.812,3.109 0.812,2.91 0.812,2.547 1.168,2.128 1.88,1.65 1.888,1.646 1.896,1.641 1.904,1.636 2.562,1.189 3.017,0.785 3.267,0.424 3.517,0.062 3.641,-0.351 3.641,-0.81 3.641,-1.353 3.478,-1.814 3.152,-2.199 2.823,-2.583 2.43,-2.775 1.967,-2.775 c -0.234,0 -0.473,0.059 -0.725,0.18 C 0.992,-2.474 0.845,-2.414 0.8,-2.414 0.751,-2.414 0.696,-2.438 0.635,-2.48 0.575,-2.526 0.482,-2.625 0.353,-2.775 H 0 Z"
             style="fill:#ffffff;fill-opacity:1;fill-rule:nonzero;stroke:none"
             id="path2000" />
        </g>
        <g
           id="g2002"
           transform="translate(558.1396,214.6123)">
          <path
             d="M 0,0 V 0.455 C 0.199,0.482 0.337,0.544 0.415,0.643 0.493,0.741 0.533,0.906 0.533,1.14 v 7.562 c 0,0.238 -0.04,0.407 -0.118,0.51 C 0.337,9.315 0.199,9.379 0,9.406 V 9.855 H 2.797 L 2.79,9.406 C 2.542,9.384 2.369,9.322 2.27,9.222 2.17,9.12 2.121,8.949 2.121,8.702 V 1.073 C 2.121,0.84 2.157,0.68 2.229,0.59 2.301,0.501 2.429,0.455 2.604,0.455 3.042,0.455 3.43,0.682 3.765,1.135 4.099,1.59 4.399,2.29 4.664,3.237 H 5.043 L 4.895,0 Z"
             style="fill:#ffffff;fill-opacity:1;fill-rule:nonzero;stroke:none"
             id="path2004" />
        </g>
        <g
           id="g2006"
           transform="translate(564.0186,215.9854)">
          <path
             d="M 0,0 V 4.602 H -0.633 V 5.15 C -0.194,5.4 0.148,5.769 0.396,6.254 0.644,6.738 0.805,7.354 0.874,8.1 H 1.37 V 5.15 H 2.473 V 4.602 H 1.37 v -4.627 c 0,-0.261 0.024,-0.44 0.072,-0.54 0.046,-0.101 0.129,-0.152 0.245,-0.152 0.162,0 0.287,0.124 0.376,0.368 0.088,0.245 0.132,0.586 0.132,1.019 H 2.604 V 0.562 C 2.604,-0.124 2.485,-0.647 2.248,-1.005 2.009,-1.362 1.662,-1.54 1.202,-1.54 0.79,-1.54 0.485,-1.417 0.292,-1.17 0.098,-0.92 0,-0.531 0,0"
             style="fill:#ffffff;fill-opacity:1;fill-rule:nonzero;stroke:none"
             id="path2008" />
        </g>
        <g
           id="g2010"
           transform="translate(570.0186,223.3467)">
          <path
             d="m 0,0 c 0,0.242 -0.042,0.411 -0.125,0.51 -0.083,0.098 -0.239,0.165 -0.47,0.201 v 0.41 c 0.352,0.018 0.69,0.036 1.02,0.057 0.328,0.02 0.648,0.044 0.957,0.071 v -8.883 c 0,-0.261 0.032,-0.43 0.094,-0.511 0.06,-0.082 0.184,-0.129 0.366,-0.148 V -8.734 C 1.812,-8.734 1.77,-8.736 1.71,-8.741 1.008,-8.775 0.455,-8.814 0.049,-8.855 l -0.024,0.71 c -0.199,-0.249 -0.4,-0.438 -0.601,-0.567 -0.203,-0.125 -0.403,-0.189 -0.597,-0.189 -0.565,0 -1.012,0.299 -1.34,0.899 -0.326,0.597 -0.489,1.43 -0.489,2.491 0,1.035 0.176,1.867 0.526,2.506 0.352,0.636 0.801,0.954 1.347,0.954 0.214,0 0.415,-0.057 0.602,-0.174 C -0.341,-2.341 -0.166,-2.52 0,-2.762 Z m 0,-4.177 c 0,0.426 -0.067,0.758 -0.205,1 -0.136,0.24 -0.322,0.363 -0.558,0.363 -0.277,0 -0.469,-0.172 -0.577,-0.518 -0.108,-0.343 -0.161,-1.046 -0.161,-2.105 0,-1.103 0.057,-1.834 0.171,-2.188 0.112,-0.354 0.315,-0.533 0.603,-0.533 0.221,0 0.397,0.115 0.528,0.342 C -0.065,-7.588 0,-7.277 0,-6.883 Z"
             style="fill:#ffffff;fill-opacity:1;fill-rule:nonzero;stroke:none"
             id="path2012" />
        </g>
        <g
           id="g2014"
           transform="translate(572.375,215.4111)">
          <path
             d="m 0,0 c 0,0.258 0.087,0.48 0.26,0.665 0.174,0.186 0.386,0.279 0.634,0.279 0.247,0 0.455,-0.09 0.622,-0.271 C 1.683,0.491 1.768,0.268 1.768,0 1.768,-0.264 1.681,-0.49 1.509,-0.68 1.338,-0.87 1.132,-0.966 0.894,-0.966 0.649,-0.966 0.44,-0.87 0.264,-0.68 0.089,-0.49 0,-0.264 0,0"
             style="fill:#ffffff;fill-opacity:1;fill-rule:nonzero;stroke:none"
             id="path2016" />
        </g>
      </g>
    </g>
  </g>
</svg>
