<?xml version="1.0" encoding="UTF-8" standalone="no"?>
<svg
   xmlns:dc="http://purl.org/dc/elements/1.1/"
   xmlns:cc="http://creativecommons.org/ns#"
   xmlns:rdf="http://www.w3.org/1999/02/22-rdf-syntax-ns#"
   xmlns:svg="http://www.w3.org/2000/svg"
   xmlns="http://www.w3.org/2000/svg"
   id="svg3033"
   version="1.1"
   viewBox="0 0 50 40"
   height="40mm"
   width="50mm">
  <defs
     id="defs3027">
    <clipPath
       id="clipPath660"
       clipPathUnits="userSpaceOnUse">
      <path
         id="path658"
         d="m 185.345,508.313 c 4.223,9.378 4.258,18.372 0,27.695 v 0 c -4.258,-9.323 -4.223,-18.317 0,-27.695" />
    </clipPath>
    <linearGradient
       id="linearGradient672"
       spreadMethod="pad"
       gradientTransform="matrix(-6.363236,-6e-7,-6e-7,6.363236,188.52637,522.16064)"
       gradientUnits="userSpaceOnUse"
       y2="0"
       x2="1"
       y1="0"
       x1="0">
      <stop
         id="stop666"
         offset="0"
         style="stop-opacity:1;stop-color:#176fc1" />
      <stop
         id="stop668"
         offset="0.79"
         style="stop-opacity:1;stop-color:#66cef5" />
      <stop
         id="stop670"
         offset="1"
         style="stop-opacity:1;stop-color:#33bdf2" />
    </linearGradient>
    <clipPath
       id="clipPath638"
       clipPathUnits="userSpaceOnUse">
      <path
         id="path636"
         d="m 185.345,507.59 c 5.615,12.47 5.662,24.429 0,36.828 v 0 c -5.662,-12.399 -5.615,-24.358 0,-36.828" />
    </clipPath>
    <linearGradient
       id="linearGradient650"
       spreadMethod="pad"
       gradientTransform="matrix(-1.6e-6,36.828125,36.828125,1.6e-6,185.34521,507.58984)"
       gradientUnits="userSpaceOnUse"
       y2="0"
       x2="1"
       y1="0"
       x1="0">
      <stop
         id="stop644"
         offset="0"
         style="stop-opacity:1;stop-color:#0994dc" />
      <stop
         id="stop646"
         offset="0.61"
         style="stop-opacity:1;stop-color:#0994dc" />
      <stop
         id="stop648"
         offset="1"
         style="stop-opacity:1;stop-color:#ed1c24" />
    </linearGradient>
    <clipPath
       id="clipPath614"
       clipPathUnits="userSpaceOnUse">
      <path
         id="path612"
         d="m 185.345,506.867 c 8.078,17.943 8.146,35.149 0,52.988 v 0 c -8.147,-17.839 -8.079,-35.045 0,-52.988" />
    </clipPath>
    <linearGradient
       id="linearGradient628"
       spreadMethod="pad"
       gradientTransform="matrix(-2.2e-6,50.867813,50.867813,2.2e-6,185.34521,507.92725)"
       gradientUnits="userSpaceOnUse"
       y2="0"
       x2="1"
       y1="0"
       x1="0">
      <stop
         id="stop620"
         offset="0"
         style="stop-opacity:1;stop-color:#2056ae" />
      <stop
         id="stop622"
         offset="0.45"
         style="stop-opacity:1;stop-color:#2056ae" />
      <stop
         id="stop624"
         offset="0.79"
         style="stop-opacity:1;stop-color:#ed1c24" />
      <stop
         id="stop626"
         offset="1"
         style="stop-opacity:1;stop-color:#f47216" />
    </linearGradient>
    <clipPath
       id="clipPath592"
       clipPathUnits="userSpaceOnUse">
      <path
         id="path590"
         d="m 150.994,501.582 c 0,-12.499 10.137,-22.635 22.634,-22.635 v 0 c 8.036,0 15.096,4.191 19.112,10.505 v 0 16.208 h -12.148 -2.016 v -9.588 c 0.111,0.04 0.224,0.08 0.342,0.12 v 0 c 2.945,1.001 8.112,1.889 9.028,-3.728 v 0 c -0.029,-0.251 -0.063,-0.5 -0.105,-0.746 v 0 c -1.08,-6.298 -6.778,-11.104 -13.644,-11.104 v 0 c -7.637,0 -13.83,5.945 -13.83,13.274 v 0 c 0,7.329 6.193,13.274 13.83,13.274 v 0 c 0.052,0 0.104,-10e-4 0.156,-10e-4 v 0 17.043 c -0.241,0.007 -0.482,0.011 -0.725,0.011 v 0 c -12.497,0 -22.634,-10.136 -22.634,-22.633 m 27.582,-5.51 v -0.204 0.204 c 0,0 0,0 0,0" />
    </clipPath>
    <linearGradient
       id="linearGradient604"
       spreadMethod="pad"
       gradientTransform="matrix(-41.746582,-3.6e-6,-3.6e-6,41.746582,192.74072,501.58105)"
       gradientUnits="userSpaceOnUse"
       y2="0"
       x2="1"
       y1="0"
       x1="0">
      <stop
         id="stop598"
         offset="0"
         style="stop-opacity:1;stop-color:#176fc1" />
      <stop
         id="stop600"
         offset="0.79"
         style="stop-opacity:1;stop-color:#66cef5" />
      <stop
         id="stop602"
         offset="1"
         style="stop-opacity:1;stop-color:#33bdf2" />
    </linearGradient>
    <linearGradient
       id="linearGradient1728"
       spreadMethod="pad"
       gradientTransform="matrix(51.863333,0,0,51.863333,23.142224,282.4319)"
       gradientUnits="userSpaceOnUse"
       y2="0"
       x2="1"
       y1="0"
       x1="0">
      <stop
         id="stop1724"
         offset="0"
         style="stop-opacity:1;stop-color:#ed1c24" />
      <stop
         id="stop1726"
         offset="1"
         style="stop-opacity:1;stop-color:#b01419" />
    </linearGradient>
    <linearGradient
       id="linearGradient1708"
       spreadMethod="pad"
       gradientTransform="matrix(55.379908,0,0,55.379908,21.514762,282.42674)"
       gradientUnits="userSpaceOnUse"
       y2="0"
       x2="1"
       y1="0"
       x1="0">
      <stop
         id="stop1704"
         offset="0"
         style="stop-opacity:1;stop-color:#ed1c24" />
      <stop
         id="stop1706"
         offset="1"
         style="stop-opacity:1;stop-color:#b01419" />
    </linearGradient>
    <linearGradient
       id="linearGradient1688"
       spreadMethod="pad"
       gradientTransform="matrix(82.59134,0,0,82.59134,12.854653,282.42674)"
       gradientUnits="userSpaceOnUse"
       y2="0"
       x2="1"
       y1="0"
       x1="0">
      <stop
         id="stop1684"
         offset="0"
         style="stop-opacity:1;stop-color:#ed1c24" />
      <stop
         id="stop1686"
         offset="1"
         style="stop-opacity:1;stop-color:#b01419" />
    </linearGradient>
    <linearGradient
       id="linearGradient1668"
       spreadMethod="pad"
       gradientTransform="matrix(51.865077,0,0,51.865077,23.141363,282.42674)"
       gradientUnits="userSpaceOnUse"
       y2="0"
       x2="1"
       y1="0"
       x1="0">
      <stop
         id="stop1664"
         offset="0"
         style="stop-opacity:1;stop-color:#ed1c24" />
      <stop
         id="stop1666"
         offset="1"
         style="stop-opacity:1;stop-color:#b01419" />
    </linearGradient>
    <linearGradient
       id="linearGradient1648"
       spreadMethod="pad"
       gradientTransform="matrix(54.14842,0,0,54.14842,22.987711,282.41606)"
       gradientUnits="userSpaceOnUse"
       y2="0"
       x2="1"
       y1="0"
       x1="0">
      <stop
         id="stop1644"
         offset="0"
         style="stop-opacity:1;stop-color:#ed1c24" />
      <stop
         id="stop1646"
         offset="1"
         style="stop-opacity:1;stop-color:#b01419" />
    </linearGradient>
    <linearGradient
       id="linearGradient1628"
       spreadMethod="pad"
       gradientTransform="matrix(223.23804,0,0,223.23804,-105.25338,284.572)"
       gradientUnits="userSpaceOnUse"
       y2="0"
       x2="1"
       y1="0"
       x1="0">
      <stop
         id="stop1624"
         offset="0"
         style="stop-opacity:1;stop-color:#ed1c24" />
      <stop
         id="stop1626"
         offset="1"
         style="stop-opacity:1;stop-color:#b01419" />
    </linearGradient>
    <linearGradient
       id="linearGradient1508"
       spreadMethod="pad"
       gradientTransform="matrix(4.6625922,0,0,4.6625922,15.29929,290.1782)"
       gradientUnits="userSpaceOnUse"
       y2="0"
       x2="1"
       y1="0"
       x1="0">
      <stop
         id="stop1504"
         offset="0"
         style="stop-opacity:1;stop-color:#ed1c24" />
      <stop
         id="stop1506"
         offset="1"
         style="stop-opacity:1;stop-color:#b01419" />
    </linearGradient>
    <linearGradient
       id="linearGradient1588"
       spreadMethod="pad"
       gradientTransform="matrix(10.591664,0,0,10.591664,6.5473716,290.18475)"
       gradientUnits="userSpaceOnUse"
       y2="0"
       x2="1"
       y1="0"
       x1="0">
      <stop
         id="stop1584"
         offset="0"
         style="stop-opacity:1;stop-color:#ed1c24" />
      <stop
         id="stop1586"
         offset="1"
         style="stop-opacity:1;stop-color:#b01419" />
    </linearGradient>
    <linearGradient
       id="linearGradient1608"
       spreadMethod="pad"
       gradientTransform="matrix(10.78617,0,0,10.78617,3.0425036,290.1782)"
       gradientUnits="userSpaceOnUse"
       y2="0"
       x2="1"
       y1="0"
       x1="0">
      <stop
         id="stop1604"
         offset="0"
         style="stop-opacity:1;stop-color:#ed1c24" />
      <stop
         id="stop1606"
         offset="1"
         style="stop-opacity:1;stop-color:#b01419" />
    </linearGradient>
    <linearGradient
       id="linearGradient1488"
       spreadMethod="pad"
       gradientTransform="matrix(4.6625922,0,0,4.6625922,4.7617806,286.38584)"
       gradientUnits="userSpaceOnUse"
       y2="0"
       x2="1"
       y1="0"
       x1="0">
      <stop
         id="stop1484"
         offset="0"
         style="stop-opacity:1;stop-color:#ed1c24" />
      <stop
         id="stop1486"
         offset="1"
         style="stop-opacity:1;stop-color:#b01419" />
    </linearGradient>
    <linearGradient
       id="linearGradient1568"
       spreadMethod="pad"
       gradientTransform="matrix(7.8658552,0,0,7.8658552,9.1876946,286.38584)"
       gradientUnits="userSpaceOnUse"
       y2="0"
       x2="1"
       y1="0"
       x1="0">
      <stop
         id="stop1564"
         offset="0"
         style="stop-opacity:1;stop-color:#ed1c24" />
      <stop
         id="stop1566"
         offset="1"
         style="stop-opacity:1;stop-color:#b01419" />
    </linearGradient>
    <linearGradient
       id="linearGradient1548"
       spreadMethod="pad"
       gradientTransform="matrix(7.8130042,0,0,7.8130042,13.301654,286.38584)"
       gradientUnits="userSpaceOnUse"
       y2="0"
       x2="1"
       y1="0"
       x1="0">
      <stop
         id="stop1544"
         offset="0"
         style="stop-opacity:1;stop-color:#ed1c24" />
      <stop
         id="stop1546"
         offset="1"
         style="stop-opacity:1;stop-color:#b01419" />
    </linearGradient>
    <linearGradient
       id="linearGradient1468"
       spreadMethod="pad"
       gradientTransform="matrix(4.7557859,0,0,4.7557859,14.603556,282.59383)"
       gradientUnits="userSpaceOnUse"
       y2="0"
       x2="1"
       y1="0"
       x1="0">
      <stop
         id="stop1464"
         offset="0"
         style="stop-opacity:1;stop-color:#ed1c24" />
      <stop
         id="stop1466"
         offset="1"
         style="stop-opacity:1;stop-color:#b01419" />
    </linearGradient>
    <linearGradient
       id="linearGradient1528"
       spreadMethod="pad"
       gradientTransform="matrix(9.7604716,0,0,9.7604716,4.7617806,282.59383)"
       gradientUnits="userSpaceOnUse"
       y2="0"
       x2="1"
       y1="0"
       x1="0">
      <stop
         id="stop1524"
         offset="0"
         style="stop-opacity:1;stop-color:#ed1c24" />
      <stop
         id="stop1526"
         offset="1"
         style="stop-opacity:1;stop-color:#b01419" />
    </linearGradient>
    <linearGradient
       id="linearGradient1448"
       spreadMethod="pad"
       gradientTransform="matrix(9.9443274,0,0,9.9443274,10.059648,278.80147)"
       gradientUnits="userSpaceOnUse"
       y2="0"
       x2="1"
       y1="0"
       x1="0">
      <stop
         id="stop1444"
         offset="0"
         style="stop-opacity:1;stop-color:#ed1c24" />
      <stop
         id="stop1446"
         offset="1"
         style="stop-opacity:1;stop-color:#b01419" />
    </linearGradient>
    <linearGradient
       id="linearGradient1428"
       spreadMethod="pad"
       gradientTransform="matrix(4.6625922,0,0,4.6625922,4.7617806,278.80147)"
       gradientUnits="userSpaceOnUse"
       y2="0"
       x2="1"
       y1="0"
       x1="0">
      <stop
         id="stop1424"
         offset="0"
         style="stop-opacity:1;stop-color:#ed1c24" />
      <stop
         id="stop1426"
         offset="1"
         style="stop-opacity:1;stop-color:#b01419" />
    </linearGradient>
  </defs>
  <metadata
     id="metadata3030">
    <rdf:RDF>
      <cc:Work
         rdf:about="">
        <dc:format>image/svg+xml</dc:format>
        <dc:type
           rdf:resource="http://purl.org/dc/dcmitype/StillImage" />
        <dc:title></dc:title>
      </cc:Work>
    </rdf:RDF>
  </metadata>
  <g
     transform="translate(0,-257)"
     id="layer1">
    <path
       id="path944"
       style="fill:#231f20;fill-opacity:1;fill-rule:evenodd;stroke:none;stroke-width:0.35277775"
       d="m 18.019779,263.66861 h 5.504039 c 2.746728,-0.50271 4.62492,-2.07433 5.69595,-3.42194 0.0543,-0.0684 0.096,-0.1397 0.14111,-0.22966 l 0.26212,0.34607 c -0.51965,1.34374 -2.03906,2.43064 -3.834699,3.30553 h 7.14e-4 c -0.09666,0.0473 -0.194381,0.0938 -0.293158,0.1397 l -0.0374,0.0173 c -0.06421,0.03 -0.12842,0.0596 -0.192978,0.0889 l -0.01305,0.006 -0.103364,0.0466 -0.0042,0.002 -0.09701,0.043 -0.01834,0.008 c -0.07373,0.0321 -0.148166,0.0646 -0.222602,0.0967 l -0.0046,0.002 -0.101247,0.043 -0.0081,0.004 -0.104422,0.0437 -0.06456,0.0268 -0.03493,0.0145 -0.05539,0.0229 -0.05962,0.0243 -0.05503,0.0222 c -0.05609,0.0229 -0.112183,0.0455 -0.168628,0.0681 l -0.03245,0.0131 -3.44e-4,-3.5e-4 c -1.603728,0.63677 -3.249083,1.13171 -4.49827,1.51271 -3.167944,0.96661 -3.741561,3.43676 -1.781174,6.12881 1.961091,2.69205 6.816372,2.79471 6.816372,2.79471 -3.202517,-0.77682 -5.644798,-2.80988 -5.644798,-4.79425 0,-1.98473 2.927703,-2.08104 6.626578,-3.37291 2.82575,-0.98672 3.44699,-2.18758 3.58316,-2.69946 0.0155,-0.0589 0.0247,-0.10901 0.0303,-0.14816 v -0.001 c 0.004,-0.0261 0.006,-0.0473 0.007,-0.0635 v -0.003 l 3.5e-4,-0.003 v -0.002 -7.1e-4 l 3.4e-4,-0.003 v 0 -0.009 -3.5e-4 -0.002 -0.006 -10e-4 -0.001 -10e-4 -7.1e-4 -7.2e-4 -10e-4 -7.2e-4 -7e-4 -3.5e-4 -3.4e-4 -3.5e-4 -3.4e-4 0 -0.0512 l -0.26176,-1.26189 0.26176,0.34572 0.34325,0.91617 h 2.51954 c 0.96944,0 1.76248,0.79304 1.76248,1.76248 v 14.10017 c 0,0.96943 -0.79304,1.76248 -1.76248,1.76248 h -6.550367 c -2.942872,0.53869 -5.079647,1.88948 -6.098469,3.30588 l -0.261408,-0.34572 c 0.618772,-1.20227 2.440516,-2.15336 4.095397,-2.96016 h -3.44e-4 c 2.057753,-1.00295 4.477811,-1.72826 6.170081,-2.24437 3.16795,-0.96662 3.74156,-3.43712 1.78118,-6.12881 -1.9611,-2.69208 -6.816384,-2.79474 -6.816384,-2.79474 3.202514,0.77681 5.644794,2.80987 5.644794,4.7946 0,1.98437 -2.928052,2.08033 -6.626222,3.37256 -2.826808,0.98707 -3.447697,2.18828 -3.583516,2.69945 h 3.44e-4 c -0.01376,0.0519 -0.02293,0.0963 -0.02858,0.133 l -3.44e-4,0.004 -3.44e-4,0.002 -7.14e-4,0.005 -7.15e-4,0.005 -7.14e-4,0.005 -0.0011,0.009 -7.14e-4,0.005 -3.44e-4,0.004 -7.14e-4,0.005 -0.0018,0.0197 -3.44e-4,0.004 -3.44e-4,0.004 -3.44e-4,0.003 v 0.002 l -3.44e-4,0.001 v 0.003 0.003 l -3.44e-4,0.003 v 0.002 7.1e-4 l -3.44e-4,0.003 v 3.4e-4 0.009 l -3.44e-4,0.005 v 7.2e-4 10e-4 0.001 10e-4 0.001 7.2e-4 3.4e-4 10e-4 10e-4 7.1e-4 3.5e-4 3.4e-4 l 3.44e-4,7.2e-4 v 0.0512 0.91616 l -0.261761,-0.34572 -0.08114,-0.57044 h -1.474518 c -0.969433,0 -1.762478,-0.79305 -1.762478,-1.76248 v -14.10016 c 0,-0.96943 0.793045,-1.76248 1.762478,-1.76248" />
    <path
       id="path948"
       style="fill:#e41b2f;fill-opacity:1;fill-rule:evenodd;stroke:none;stroke-width:0.35277775"
       d="m 17.757948,263.3231 h 5.504038 c 2.943578,-0.53869 5.080352,-1.88948 6.099172,-3.30588 -0.51929,1.34408 -2.03905,2.43064 -3.834691,3.30588 h 7.14e-4 c -0.09666,0.0473 -0.19438,0.0938 -0.293158,0.1397 l -0.0374,0.0173 c -0.06421,0.0296 -0.128411,0.0593 -0.192969,0.0889 l -0.01305,0.006 -0.103364,0.0466 -0.0042,0.002 -0.09701,0.0434 -0.01834,0.008 c -0.07373,0.0325 -0.148166,0.0649 -0.222602,0.0967 l -0.0046,0.002 -0.101247,0.0427 -0.0081,0.004 -0.104423,0.0437 -0.06456,0.0268 -0.03493,0.0145 -0.05539,0.0229 -0.05962,0.0243 -0.05468,0.0222 c -0.05644,0.0229 -0.112536,0.0455 -0.168981,0.0681 l -0.03245,0.0127 h -3.44e-4 c -1.603728,0.63676 -3.249083,1.13171 -4.497917,1.51271 -3.168297,0.96626 -3.741914,3.43676 -1.781175,6.12881 1.960739,2.69169 6.81602,2.79471 6.81602,2.79471 -3.202517,-0.77682 -5.644797,-2.80988 -5.644797,-4.79461 0,-1.98437 2.928055,-2.08068 6.626577,-3.37255 2.825747,-0.98672 3.446997,-2.18793 3.583167,-2.69946 0.0155,-0.0589 0.0247,-0.10901 0.0303,-0.14816 l 3.4e-4,-0.001 c 0.004,-0.0261 0.005,-0.0473 0.006,-0.0635 v -3.5e-4 -0.003 l 3.5e-4,-0.003 v -0.002 -7.1e-4 l 3.4e-4,-0.003 v -3.5e-4 -0.008 -3.4e-4 -0.002 -0.006 -0.001 -10e-4 -10e-4 -3.5e-4 -7.1e-4 -0.001 -7.1e-4 -7.2e-4 -3.4e-4 -3.5e-4 -3.4e-4 -3.4e-4 0 -0.0512 -0.91616 l 0.34325,0.91616 h 2.51954 c 0.96943,0 1.76248,0.79305 1.76248,1.76248 v 14.10018 c 0,0.96943 -0.79305,1.76247 -1.76248,1.76247 h -6.55037 c -2.942872,0.5387 -5.079647,1.88948 -6.09847,3.30553 0.519642,-1.34408 2.039056,-2.43064 3.833989,-3.30553 h -3.44e-4 c 2.057753,-1.0033 4.477805,-1.72825 6.170085,-2.24437 3.16829,-0.96666 3.74191,-3.43716 1.78117,-6.12886 -1.9611,-2.69205 -6.816377,-2.7947 -6.816377,-2.7947 3.202517,0.77646 5.644797,2.80987 5.644797,4.79425 0,1.98472 -2.928056,2.08068 -6.626225,3.37255 -2.826808,0.98707 -3.447697,2.18863 -3.583517,2.69981 l 3.44e-4,-3.4e-4 c -0.01376,0.0522 -0.02293,0.0967 -0.02822,0.13335 l -7.14e-4,0.004 -3.44e-4,0.002 -7.15e-4,0.005 -7.14e-4,0.005 -7.15e-4,0.005 -0.0011,0.009 -7.14e-4,0.005 -3.44e-4,0.004 -7.15e-4,0.005 -0.0018,0.0198 -3.44e-4,0.004 -3.44e-4,0.004 -3.44e-4,0.003 v 0.002 l -3.44e-4,10e-4 v 0.003 0.003 l -3.44e-4,0.003 v 0.002 7.2e-4 l -3.44e-4,0.003 v 3.5e-4 0.009 3.5e-4 l -3.44e-4,0.005 v 7.1e-4 10e-4 10e-4 0.001 10e-4 7.1e-4 3.5e-4 0.001 10e-4 3.4e-4 7.1e-4 3.5e-4 l 3.44e-4,7.1e-4 v 0.0512 0.91617 l -0.3429,-0.91617 h -1.474258 c -0.969434,0 -1.762478,-0.79304 -1.762478,-1.76247 v -14.10016 c 0,-0.96943 0.793044,-1.76248 1.762478,-1.76248" />
    <path
       id="path952"
       style="fill:#e41b2f;fill-opacity:1;fill-rule:nonzero;stroke:none;stroke-width:0.35277775"
       d="m 5.0148744,290.69798 c -0.207434,0 -0.400403,-0.0254 -0.579967,-0.0758 -0.179211,-0.0515 -0.331258,-0.11218 -0.455436,-0.18203 l -0.164747,0.16721 h -0.203553 l -0.03069,-1.22696 h 0.204964 c 0.04621,0.11642 0.104775,0.23918 0.177095,0.36795 0.07161,0.12911 0.154869,0.24482 0.249061,0.34713 0.09701,0.10689 0.205669,0.19332 0.326319,0.26035 0.119945,0.067 0.261408,0.10054 0.422275,0.10054 0.216958,0 0.382764,-0.0529 0.498828,-0.1584 0.115005,-0.10618 0.172861,-0.24024 0.172861,-0.4011 0,-0.1323 -0.04904,-0.24307 -0.146756,-0.33373 -0.09807,-0.09 -0.250119,-0.16722 -0.455788,-0.23248 -0.133703,-0.0437 -0.256823,-0.0836 -0.369712,-0.1203 -0.11183,-0.0367 -0.218016,-0.0741 -0.316794,-0.11254 -0.227894,-0.0907 -0.397581,-0.22048 -0.508,-0.38946 -0.110772,-0.16934 -0.166158,-0.35842 -0.166158,-0.56762 0,-0.13229 0.02857,-0.25859 0.08572,-0.38135 0.05786,-0.12136 0.141111,-0.23072 0.25153,-0.32879 0.104775,-0.0907 0.239536,-0.16475 0.403931,-0.22225 0.164041,-0.0572 0.3429,-0.0864 0.535516,-0.0864 0.188737,0 0.365125,0.0261 0.529167,0.0783 0.164042,0.0515 0.293158,0.10372 0.386644,0.15664 l 0.146403,-0.14358 h 0.208139 l 0.0187,1.15781 h -0.204965 c -0.04798,-0.12488 -0.104422,-0.25153 -0.16898,-0.38205 -0.06421,-0.12983 -0.132644,-0.23778 -0.204964,-0.32421 -0.07726,-0.0921 -0.167922,-0.1658 -0.269875,-0.22119 -0.102305,-0.0547 -0.221544,-0.0826 -0.358775,-0.0826 -0.172155,0 -0.312561,0.049 -0.421922,0.1464 -0.109714,0.097 -0.164042,0.21767 -0.164042,0.3609 0,0.13617 0.04727,0.24623 0.142522,0.33266 0.0949,0.0861 0.242712,0.16193 0.443442,0.22719 0.118533,0.0399 0.238478,0.0797 0.361245,0.11995 0.123119,0.0392 0.23248,0.0776 0.32773,0.1143 0.231422,0.09 0.407106,0.21237 0.527756,0.37006 0.119944,0.15664 0.180269,0.35172 0.180269,0.58455 0,0.14676 -0.03422,0.28893 -0.102658,0.42616 -0.06879,0.13723 -0.160867,0.25047 -0.277636,0.34184 -0.127353,0.10054 -0.275167,0.17745 -0.442736,0.23213 -0.167217,0.0536 -0.362303,0.0808 -0.585964,0.0808" />
    <path
       id="path956"
       style="fill:#e41b2f;fill-opacity:1;fill-rule:nonzero;stroke:none;stroke-width:0.35277775"
       d="m 8.8255094,290.60722 h -1.88207 v -0.18697 c 0.04269,-0.002 0.106539,-0.007 0.189442,-0.0138 0.08431,-0.007 0.142169,-0.0162 0.173919,-0.0286 0.05891,-0.0243 0.09913,-0.0554 0.121003,-0.0945 0.02117,-0.0395 0.03175,-0.0893 0.03175,-0.14958 v -2.40594 c 0,-0.0547 -0.0095,-0.10231 -0.03104,-0.14394 -0.02046,-0.0416 -0.06103,-0.0751 -0.121708,-0.10019 -0.0381,-0.0166 -0.09454,-0.0328 -0.169686,-0.049 -0.07514,-0.0173 -0.1397,-0.0286 -0.193675,-0.0353 v -0.18627 h 1.882069 v 0.18627 c -0.04727,0.005 -0.10795,0.0113 -0.178858,0.0204 -0.07161,0.009 -0.132997,0.0212 -0.181681,0.0374 -0.06244,0.0205 -0.103716,0.0533 -0.12453,0.0967 -0.02117,0.0441 -0.03175,0.0938 -0.03175,0.14923 v 2.40453 c 0,0.0571 0.01129,0.10619 0.03281,0.14676 0.02117,0.0409 0.06279,0.0737 0.123472,0.0991 0.03316,0.0145 0.08855,0.0286 0.165453,0.0423 0.07761,0.0131 0.142875,0.0219 0.195086,0.0244 z" />
    <path
       id="path960"
       style="fill:#e41b2f;fill-opacity:1;fill-rule:nonzero;stroke:none;stroke-width:0.35277775"
       d="m 13.992432,290.60722 h -1.839736 v -0.18697 c 0.05468,-0.004 0.121003,-0.012 0.200378,-0.0236 0.07796,-0.0106 0.132291,-0.0229 0.161572,-0.036 0.05891,-0.0236 0.101247,-0.0561 0.126647,-0.0977 0.02505,-0.0416 0.0381,-0.0942 0.0381,-0.15769 v -2.53577 l -1.167341,2.98309 h -0.301273 c -0.01482,-0.0529 -0.04974,-0.15769 -0.106891,-0.31327 -0.05644,-0.15699 -0.102306,-0.28187 -0.137231,-0.37571 l -0.859014,-2.33259 v 2.06481 c 0,0.19755 0.01305,0.34783 0.04022,0.45049 0.02611,0.10301 0.06844,0.17816 0.127353,0.22648 0.03986,0.0332 0.111831,0.0653 0.214489,0.0952 0.101953,0.0303 0.174625,0.0483 0.216606,0.0522 v 0.18697 H 9.2472214 v -0.18697 c 0.03916,-0.004 0.104423,-0.0155 0.194381,-0.0317 0.09031,-0.0169 0.163689,-0.0459 0.221192,-0.0875 0.0635,-0.0448 0.106891,-0.11995 0.129822,-0.22613 0.02187,-0.10619 0.03316,-0.25718 0.03316,-0.45297 v -1.68204 c 0,-0.10196 -0.01305,-0.18698 -0.0381,-0.25471 -0.02611,-0.0677 -0.06385,-0.12135 -0.115006,-0.16087 -0.06385,-0.0497 -0.129117,-0.0815 -0.196144,-0.0963 -0.06667,-0.0138 -0.134762,-0.0236 -0.2032,-0.0286 v -0.18627 h 1.5620996 l 0.836788,2.2412 0.706261,-1.82068 c 0.02328,-0.067 0.04657,-0.14605 0.06844,-0.23884 0.02293,-0.0924 0.03422,-0.1531 0.03598,-0.18168 h 1.504597 v 0.18627 c -0.05045,0.004 -0.104775,0.01 -0.160161,0.0198 -0.05539,0.009 -0.109008,0.0219 -0.159808,0.0381 -0.06315,0.0205 -0.103717,0.0533 -0.123472,0.0981 -0.02011,0.0441 -0.02999,0.0938 -0.02999,0.14781 v 2.40453 c 0,0.0571 0.0099,0.10513 0.02999,0.14464 0.01976,0.0388 0.06033,0.0727 0.123472,0.10125 0.03175,0.0145 0.08396,0.0286 0.156633,0.0406 0.07197,0.0134 0.128411,0.0222 0.168275,0.0261 z" />
    <path
       id="path964"
       style="fill:#e41b2f;fill-opacity:1;fill-rule:nonzero;stroke:none;stroke-width:0.35277775"
       d="m 16.796417,288.08369 c 0,-0.22613 -0.06385,-0.39194 -0.190147,-0.49636 -0.127353,-0.10477 -0.307975,-0.15698 -0.542219,-0.15698 h -0.188384 v 1.42169 h 0.180975 c 0.234245,0 0.416631,-0.0621 0.545395,-0.1845 0.128764,-0.12242 0.19438,-0.31785 0.19438,-0.58385 m 1.628775,2.52342 h -1.301397 c -0.225425,-0.34431 -0.412044,-0.61877 -0.560916,-0.82268 -0.149225,-0.20426 -0.334434,-0.44027 -0.555978,-0.70802 h -0.131234 v 1.03117 c 0,0.0571 0.01058,0.10618 0.0314,0.14534 0.02152,0.0402 0.06315,0.0734 0.123472,0.10054 0.03034,0.013 0.07761,0.0261 0.142169,0.0399 0.06456,0.013 0.119945,0.0229 0.166511,0.0272 v 0.18662 h -1.811161 v -0.18662 c 0.04692,-0.004 0.107245,-0.0116 0.183092,-0.0198 0.0762,-0.009 0.129822,-0.0198 0.161925,-0.0325 0.06033,-0.0254 0.100894,-0.0582 0.121708,-0.0974 0.02082,-0.0385 0.0314,-0.0889 0.0314,-0.14957 v -2.3936 c 0,-0.0579 -0.0088,-0.10548 -0.02681,-0.14394 -0.01729,-0.0381 -0.05962,-0.0716 -0.126294,-0.10019 -0.0508,-0.0212 -0.111478,-0.0385 -0.180622,-0.0533 -0.0695,-0.0138 -0.123825,-0.0243 -0.164395,-0.0307 v -0.18626 h 1.904295 c 0.426155,0 0.749653,0.066 0.969786,0.19932 0.221544,0.13299 0.331611,0.33443 0.331611,0.60395 0,0.23778 -0.06844,0.42863 -0.204964,0.57327 -0.136525,0.14463 -0.343605,0.25717 -0.622653,0.33796 0.108303,0.1404 0.23495,0.30303 0.379589,0.48824 0.143581,0.18521 0.293864,0.37395 0.450497,0.56656 0.04904,0.0632 0.11677,0.13865 0.201436,0.2286 0.08608,0.09 0.160867,0.14535 0.226484,0.16651 0.03634,0.0106 0.0829,0.0205 0.140053,0.0286 0.0568,0.008 0.09666,0.013 0.121002,0.0141 z" />
    <path
       id="path968"
       style="fill:#e41b2f;fill-opacity:1;fill-rule:nonzero;stroke:none;stroke-width:0.35277775"
       d="m 20.52228,289.23399 -0.492478,-1.22943 -0.485422,1.22943 z m 1.782233,1.37337 h -1.848908 v -0.18698 c 0.08643,-0.006 0.187678,-0.0212 0.303389,-0.0466 0.116769,-0.0243 0.174625,-0.0554 0.174625,-0.0914 0,-0.0131 -7.15e-4,-0.0279 -0.0032,-0.0434 -0.0025,-0.0162 -0.0088,-0.0374 -0.02046,-0.0642 l -0.289984,-0.70414 H 19.4484 c -0.02681,0.0653 -0.0568,0.14217 -0.08961,0.23036 -0.03281,0.0875 -0.06138,0.16581 -0.08502,0.23425 -0.02999,0.0892 -0.04833,0.15345 -0.05362,0.19367 -0.006,0.0399 -0.0085,0.0677 -0.0085,0.084 0,0.0505 0.03881,0.0938 0.116064,0.12982 0.07761,0.036 0.20567,0.0621 0.385939,0.0776 v 0.18698 h -1.391708 v -0.18698 c 0.05221,-0.002 0.11183,-0.0113 0.178153,-0.0247 0.06562,-0.0138 0.11818,-0.0325 0.156633,-0.0561 0.06491,-0.0385 0.12065,-0.0857 0.166511,-0.14147 0.0448,-0.0554 0.08326,-0.12135 0.113242,-0.19826 0.184502,-0.44838 0.370064,-0.89746 0.555977,-1.34726 0.186267,-0.44873 0.391231,-0.94544 0.615598,-1.48766 h 0.478719 c 0.312561,0.76906 0.557742,1.37689 0.734836,1.82351 0.177095,0.44556 0.327025,0.81633 0.451203,1.10948 0.02117,0.048 0.04762,0.0914 0.07937,0.13053 0.03175,0.0384 0.07761,0.0759 0.136172,0.11113 0.04516,0.0254 0.09666,0.0448 0.156281,0.0571 0.05856,0.013 0.11183,0.0212 0.159808,0.0236 z" />
    <path
       id="path972"
       style="fill:#e41b2f;fill-opacity:1;fill-rule:nonzero;stroke:none;stroke-width:0.35277775"
       d="m 26.421321,287.39948 c -0.0448,0.005 -0.108655,0.0138 -0.191911,0.0268 -0.0822,0.0124 -0.157339,0.0434 -0.224366,0.0931 -0.05891,0.0434 -0.101248,0.11677 -0.125589,0.2212 -0.02434,0.10477 -0.03704,0.25823 -0.03704,0.46037 v 2.42499 H 25.41626 l -2.11455,-2.62325 v 1.59314 c 0,0.19756 0.01305,0.34749 0.04022,0.4505 0.02611,0.10301 0.06844,0.17815 0.127353,0.22648 0.04304,0.0349 0.111478,0.066 0.20567,0.0928 0.09349,0.0268 0.16898,0.0459 0.225424,0.0547 v 0.18697 h -1.459094 v -0.18697 c 0.06209,-0.004 0.132997,-0.0162 0.213783,-0.0342 0.08008,-0.018 0.147814,-0.0466 0.201789,-0.085 0.06174,-0.0466 0.105128,-0.11607 0.128058,-0.20885 0.02293,-0.0938 0.03493,-0.25082 0.03493,-0.4706 v -1.60726 c 0,-0.079 -0.01305,-0.15522 -0.03739,-0.22613 -0.02434,-0.0713 -0.06385,-0.13159 -0.115711,-0.18309 -0.05574,-0.0536 -0.120298,-0.0963 -0.19297,-0.12806 -0.07267,-0.031 -0.155222,-0.0547 -0.247297,-0.0727 v -0.19121 h 1.277056 l 1.856669,2.29588 v -1.28411 c 0,-0.20426 -0.01376,-0.35595 -0.04127,-0.45579 -0.02681,-0.0995 -0.06985,-0.17286 -0.128764,-0.22119 -0.04657,-0.0367 -0.115006,-0.0684 -0.205669,-0.0945 -0.09066,-0.0261 -0.164042,-0.0441 -0.220487,-0.054 v -0.18627 h 1.457325 z" />
    <path
       id="path976"
       style="fill:#e41b2f;fill-opacity:1;fill-rule:nonzero;stroke:none;stroke-width:0.35277775"
       d="m 31.031878,288.18409 h -0.18379 c -0.0497,-0.14534 -0.12912,-0.30057 -0.23813,-0.46602 -0.10865,-0.16616 -0.2099,-0.25576 -0.30233,-0.26811 -0.0512,-0.006 -0.1143,-0.0124 -0.18944,-0.0169 -0.0751,-0.005 -0.13935,-0.007 -0.19368,-0.007 h -0.11253 v 2.6617 c 0,0.0579 0.0106,0.10866 0.031,0.15205 0.0212,0.0441 0.0621,0.0783 0.12276,0.10442 0.0363,0.0138 0.0935,0.0286 0.1704,0.0441 0.0776,0.0148 0.14358,0.0261 0.19755,0.0317 v 0.18697 h -1.89159 v -0.18697 c 0.0455,-0.004 0.11112,-0.0113 0.19438,-0.0198 0.084,-0.009 0.14111,-0.0194 0.1711,-0.0325 0.0621,-0.0254 0.10371,-0.0596 0.12453,-0.10301 0.0208,-0.0434 0.031,-0.0938 0.031,-0.15276 v -2.68605 h -0.11219 c -0.0547,0 -0.11924,0.002 -0.19403,0.007 -0.0751,0.005 -0.13793,0.0106 -0.18908,0.0169 -0.0917,0.0124 -0.19297,0.10195 -0.30269,0.26811 -0.10936,0.16545 -0.18838,0.32068 -0.23777,0.46602 h -0.18415 v -0.97084 h 3.28859 z" />
    <path
       id="path980"
       style="fill:#e41b2f;fill-opacity:1;fill-rule:nonzero;stroke:none;stroke-width:0.35277775"
       d="m 33.495818,288.08369 c 0,-0.22613 -0.0639,-0.39194 -0.19014,-0.49636 -0.12736,-0.10477 -0.30762,-0.15698 -0.54187,-0.15698 h -0.18874 v 1.42169 h 0.18098 c 0.23424,0 0.41663,-0.0621 0.54539,-0.1845 0.12912,-0.12242 0.19438,-0.31785 0.19438,-0.58385 m 1.62878,2.52342 h -1.30104 c -0.22543,-0.34431 -0.4124,-0.61877 -0.56127,-0.82268 -0.14923,-0.20426 -0.33444,-0.44027 -0.55563,-0.70802 h -0.13159 v 1.03117 c 0,0.0571 0.0106,0.10618 0.0314,0.14534 0.0215,0.0402 0.0631,0.0734 0.12348,0.10054 0.0303,0.013 0.078,0.0261 0.14217,0.0399 0.0646,0.013 0.11994,0.0229 0.16651,0.0272 v 0.18662 h -1.81081 v -0.18662 c 0.0466,-0.004 0.10689,-0.0116 0.18309,-0.0198 0.0759,-0.009 0.12947,-0.0198 0.16157,-0.0325 0.0603,-0.0254 0.10125,-0.0582 0.12171,-0.0974 0.0208,-0.0385 0.0314,-0.0889 0.0314,-0.14957 v -2.3936 c 0,-0.0579 -0.009,-0.10548 -0.0268,-0.14394 -0.0173,-0.0381 -0.0596,-0.0716 -0.12629,-0.10019 -0.0508,-0.0212 -0.11148,-0.0385 -0.18063,-0.0533 -0.0691,-0.0138 -0.12382,-0.0243 -0.16404,-0.0307 v -0.18626 h 1.90394 c 0.42616,0 0.74966,0.066 0.97014,0.19932 0.22119,0.13299 0.33126,0.33443 0.33126,0.60395 0,0.23778 -0.0684,0.42863 -0.20496,0.57327 -0.13653,0.14463 -0.34361,0.25717 -0.62266,0.33796 0.10831,0.1404 0.23495,0.30303 0.37959,0.48824 0.14358,0.18521 0.29387,0.37395 0.4505,0.56656 0.049,0.0632 0.11677,0.13865 0.20144,0.2286 0.0861,0.09 0.16086,0.14535 0.22648,0.16651 0.0363,0.0106 0.0832,0.0205 0.14005,0.0286 0.0568,0.008 0.0967,0.013 0.121,0.0141 z" />
    <path
       id="path984"
       style="fill:#e41b2f;fill-opacity:1;fill-rule:nonzero;stroke:none;stroke-width:0.35277775"
       d="m 37.035308,289.23399 -0.49247,-1.22943 -0.48543,1.22943 z m 1.78224,1.37337 h -1.84926 v -0.18698 c 0.0868,-0.006 0.18803,-0.0212 0.30374,-0.0466 0.11677,-0.0243 0.17462,-0.0554 0.17462,-0.0914 0,-0.0131 -7.9e-4,-0.0279 -0.003,-0.0434 -0.002,-0.0162 -0.009,-0.0374 -0.0204,-0.0642 l -0.28998,-0.70414 h -1.17158 c -0.0268,0.0653 -0.0568,0.14217 -0.0896,0.23036 -0.0328,0.0875 -0.0614,0.16581 -0.085,0.23425 -0.03,0.0892 -0.0483,0.15345 -0.0536,0.19367 -0.006,0.0399 -0.008,0.0677 -0.008,0.084 0,0.0505 0.0384,0.0938 0.11607,0.12982 0.0776,0.036 0.20567,0.0621 0.38594,0.0776 v 0.18698 h -1.39171 v -0.18698 c 0.0522,-0.002 0.11183,-0.0113 0.17815,-0.0247 0.0656,-0.0138 0.11818,-0.0325 0.15628,-0.0561 0.0653,-0.0385 0.12101,-0.0857 0.16687,-0.14147 0.0448,-0.0554 0.0833,-0.12135 0.11324,-0.19826 0.1845,-0.44838 0.37006,-0.89746 0.55597,-1.34726 0.18592,-0.44873 0.39124,-0.94544 0.6156,-1.48766 h 0.47872 c 0.31256,0.76906 0.55774,1.37689 0.73484,1.82351 0.17709,0.44556 0.32702,0.81633 0.4512,1.10948 0.0212,0.048 0.0476,0.0914 0.0794,0.13053 0.0318,0.0384 0.0773,0.0759 0.13617,0.11113 0.0451,0.0254 0.0967,0.0448 0.15628,0.0571 0.0586,0.013 0.11148,0.0212 0.15981,0.0236 z" />
    <path
       id="path988"
       style="fill:#e41b2f;fill-opacity:1;fill-rule:nonzero;stroke:none;stroke-width:0.35277775"
       d="m 41.417838,289.99501 c 0.0776,-0.12736 0.13476,-0.2794 0.17039,-0.45579 0.0363,-0.17639 0.0543,-0.37853 0.0543,-0.6089 0,-0.22436 -0.024,-0.42933 -0.072,-0.61489 -0.0473,-0.1845 -0.11748,-0.3429 -0.21061,-0.47343 -0.0924,-0.13052 -0.20743,-0.23177 -0.34537,-0.30374 -0.13794,-0.0716 -0.29492,-0.10795 -0.4706,-0.10795 -0.0554,0 -0.11889,0.002 -0.19015,0.004 -0.0709,0.002 -0.12312,0.004 -0.15805,0.006 v 2.57598 c 0,0.0582 0.007,0.10866 0.0219,0.1517 0.0155,0.0441 0.0416,0.0826 0.0783,0.11606 0.0367,0.0346 0.0819,0.0596 0.13477,0.0787 0.0536,0.0177 0.12347,0.0268 0.20919,0.0268 0.18027,0 0.33549,-0.0339 0.46426,-0.10054 0.12947,-0.067 0.23354,-0.16475 0.31362,-0.29386 m 0.48754,-2.43311 c 0.20743,0.13652 0.37465,0.3168 0.50306,0.54222 0.12735,0.22543 0.19085,0.502 0.19085,0.82868 0,0.28751 -0.0572,0.53727 -0.17145,0.75035 -0.11359,0.21237 -0.26458,0.387 -0.45332,0.52247 -0.19085,0.13546 -0.40781,0.236 -0.65158,0.30198 -0.24306,0.0663 -0.49777,0.0995 -0.76411,0.0995 h -1.71027 v -0.18662 c 0.0515,-10e-4 0.115,-0.006 0.19191,-0.0138 0.0759,-0.008 0.12735,-0.0183 0.1524,-0.0289 0.0571,-0.0243 0.0974,-0.0564 0.1203,-0.097 0.0222,-0.0409 0.0335,-0.09 0.0335,-0.14676 v -2.40629 c 0,-0.0547 -0.0106,-0.10372 -0.0321,-0.14782 -0.0204,-0.0434 -0.061,-0.079 -0.12171,-0.10583 -0.0603,-0.0272 -0.12488,-0.0459 -0.19262,-0.055 -0.0677,-0.01 -0.11959,-0.0162 -0.15663,-0.0194 v -0.18627 h 1.80587 c 0.19367,0 0.39934,0.0243 0.61983,0.0744 0.22048,0.0487 0.4318,0.14041 0.63606,0.27411" />
    <path
       id="path992"
       style="fill:#e41b2f;fill-opacity:1;fill-rule:nonzero;stroke:none;stroke-width:0.35277775"
       d="m 45.943308,288.07886 h -0.18204 c -0.0462,-0.12912 -0.12559,-0.25964 -0.23883,-0.39194 -0.11394,-0.13229 -0.22578,-0.21061 -0.33725,-0.23424 -0.0483,-0.0116 -0.11466,-0.018 -0.20038,-0.0205 -0.0847,-0.002 -0.15558,-0.004 -0.21131,-0.004 h -0.49248 v 1.31128 h 0.34854 c 0.0882,0 0.16757,-0.0106 0.23954,-0.031 0.0716,-0.0212 0.13723,-0.0603 0.19685,-0.11995 0.0356,-0.0367 0.0734,-0.10125 0.11077,-0.19332 0.0377,-0.0924 0.0614,-0.17322 0.0727,-0.24201 h 0.18203 v 1.41676 h -0.18203 c -0.01,-0.0677 -0.0335,-0.15205 -0.0727,-0.25329 -0.0392,-0.1009 -0.0769,-0.1704 -0.11077,-0.20885 -0.0533,-0.0571 -0.11501,-0.0974 -0.18733,-0.11853 -0.0716,-0.0212 -0.15416,-0.0318 -0.24906,-0.0318 h -0.34854 v 0.97825 c 0,0.10195 0.008,0.18274 0.0222,0.24236 0.0155,0.0596 0.0441,0.10618 0.085,0.13793 0.0399,0.0303 0.0945,0.0498 0.16404,0.0596 0.0695,0.01 0.16369,0.0138 0.28293,0.0138 0.0568,0 0.12347,-7.9e-4 0.20144,-0.002 0.078,-7.9e-4 0.14675,-0.006 0.20566,-0.0138 0.0667,-0.008 0.12947,-0.0205 0.18768,-0.036 0.0586,-0.0162 0.10196,-0.0392 0.13053,-0.0692 0.0769,-0.0787 0.16228,-0.19755 0.25788,-0.35771 0.0967,-0.16017 0.15946,-0.28011 0.1898,-0.36019 h 0.17462 l -0.0646,1.05727 h -3.18417 v -0.18697 c 0.0448,-0.002 0.10548,-0.009 0.18203,-0.0187 0.0765,-0.01 0.13053,-0.0205 0.16228,-0.0335 0.0607,-0.0254 0.10125,-0.0579 0.12171,-0.097 0.0215,-0.0385 0.0321,-0.0892 0.0321,-0.14958 v -2.39359 c 0,-0.0582 -0.009,-0.10549 -0.0272,-0.14288 -0.0169,-0.0378 -0.0596,-0.0713 -0.12665,-0.10125 -0.0416,-0.0198 -0.0995,-0.037 -0.17463,-0.0533 -0.0751,-0.0155 -0.13158,-0.0261 -0.16968,-0.031 v -0.18627 h 3.00919 z" />
    <path
       id="path996"
       style="fill:#4f4c4d;fill-opacity:1;fill-rule:nonzero;stroke:none;stroke-width:0.35277775"
       d="m 4.2555914,293.85076 h -0.778228 v -0.0864 c 0.02187,-0.002 0.05362,-0.004 0.0949,-0.007 0.04198,-0.003 0.07091,-0.008 0.08819,-0.0145 0.02646,-0.0102 0.04586,-0.0251 0.05856,-0.0434 0.01199,-0.018 0.01764,-0.0437 0.01764,-0.0762 v -1.2513 c 0,-0.0282 -0.0039,-0.0519 -0.01341,-0.0709 -0.0085,-0.019 -0.02999,-0.0349 -0.06279,-0.0483 -0.02469,-0.01 -0.05503,-0.0187 -0.09207,-0.0275 -0.03704,-0.009 -0.06738,-0.0135 -0.09102,-0.0153 v -0.0864 h 0.778228 v 0.0864 c -0.02505,10e-4 -0.05503,0.004 -0.09031,0.009 -0.03457,0.005 -0.06491,0.012 -0.09137,0.0201 -0.03069,0.01 -0.0515,0.0254 -0.06174,0.0469 -0.01094,0.0222 -0.01587,0.0469 -0.01587,0.0734 v 1.25024 c 0,0.0268 0.0056,0.0501 0.01729,0.0713 0.01199,0.0205 0.0321,0.0374 0.06032,0.0494 0.01729,0.007 0.0448,0.0134 0.08396,0.0212 0.03775,0.008 0.07091,0.012 0.09772,0.0127 z" />
    <path
       id="path1000"
       style="fill:#4f4c4d;fill-opacity:1;fill-rule:nonzero;stroke:none;stroke-width:0.35277775"
       d="m 8.0782544,292.21003 c -0.02258,7.9e-4 -0.05786,0.007 -0.104775,0.0194 -0.04692,0.012 -0.08079,0.0247 -0.100895,0.0374 -0.02963,0.0205 -0.04904,0.0596 -0.05891,0.11713 -0.01023,0.0575 -0.01552,0.13052 -0.01552,0.21907 v 1.26471 h -0.105833 l -1.047045,-1.41323 v 0.89112 c 0,0.0995 0.0067,0.17639 0.01905,0.23001 0.01235,0.0536 0.0321,0.0921 0.05786,0.1143 0.0187,0.018 0.05715,0.0346 0.115359,0.0497 0.05856,0.0159 0.09737,0.024 0.116064,0.0247 v 0.0864 h -0.708379 v -0.0864 c 0.02152,-0.002 0.05856,-0.01 0.11042,-0.0236 0.05186,-0.0141 0.08431,-0.0272 0.09772,-0.0384 0.02822,-0.0226 0.04762,-0.0575 0.05821,-0.10407 0.01058,-0.0466 0.01588,-0.1263 0.01588,-0.23954 v -0.85019 c 0,-0.0378 -0.0064,-0.0752 -0.01976,-0.11254 -0.0127,-0.0374 -0.03034,-0.066 -0.05256,-0.0861 -0.02893,-0.0268 -0.06844,-0.0497 -0.118533,-0.0691 -0.04939,-0.0187 -0.08961,-0.0289 -0.121003,-0.0307 v -0.0864 h 0.493183 l 0.971197,1.31691 V 292.619 c 0,-0.10055 -0.0063,-0.1778 -0.0194,-0.23213 -0.01305,-0.0536 -0.0314,-0.0896 -0.05609,-0.10725 -0.02258,-0.0155 -0.05962,-0.0307 -0.111125,-0.0455 -0.05186,-0.0145 -0.09066,-0.0222 -0.117475,-0.024 v -0.0864 h 0.702381 z" />
    <path
       id="path1004"
       style="fill:#4f4c4d;fill-opacity:1;fill-rule:nonzero;stroke:none;stroke-width:0.35277775"
       d="m 11.455467,292.59226 h -0.08361 c -0.0078,-0.0296 -0.02081,-0.0639 -0.03986,-0.10407 -0.01905,-0.0402 -0.04022,-0.0783 -0.06385,-0.11395 -0.02469,-0.0377 -0.05115,-0.0699 -0.08008,-0.0981 -0.02858,-0.0279 -0.05644,-0.0441 -0.08326,-0.048 -0.02469,-0.004 -0.05644,-0.006 -0.0949,-0.007 -0.0381,-0.002 -0.07338,-0.002 -0.10548,-0.002 h -0.07091 v 1.38147 c 0,0.0272 0.0056,0.0515 0.01693,0.0741 0.01129,0.0219 0.0314,0.0395 0.05997,0.0515 0.01447,0.006 0.0448,0.0134 0.09172,0.0233 0.04657,0.01 0.08255,0.0148 0.108655,0.0159 v 0.0861 h -0.815269 v -0.0861 c 0.02258,-0.002 0.05715,-0.005 0.104069,-0.01 0.04692,-0.005 0.07867,-0.0109 0.09631,-0.018 0.02716,-0.0109 0.04657,-0.0257 0.05962,-0.0459 0.01235,-0.0198 0.0187,-0.0466 0.0187,-0.0797 v -1.39277 h -0.07056 c -0.0254,0 -0.05644,8e-4 -0.09419,0.002 -0.03669,10e-4 -0.07267,0.004 -0.106891,0.008 -0.02681,0.004 -0.05468,0.019 -0.08326,0.048 -0.02858,0.0289 -0.05539,0.0614 -0.07973,0.0981 -0.02469,0.0363 -0.04551,0.0751 -0.06456,0.11607 -0.0187,0.0413 -0.0314,0.0748 -0.03881,0.10195 h -0.08537 v -0.46884 h 1.504597 z" />
    <path
       id="path1008"
       style="fill:#4f4c4d;fill-opacity:1;fill-rule:nonzero;stroke:none;stroke-width:0.35277775"
       d="m 14.880233,293.34174 -0.03316,0.50906 h -1.433689 v -0.0864 c 0.02434,-0.002 0.0568,-0.005 0.09701,-0.0106 0.04092,-0.005 0.06703,-0.0106 0.07973,-0.0159 0.02575,-0.0127 0.0441,-0.0286 0.05397,-0.048 0.01023,-0.0194 0.01517,-0.0441 0.01517,-0.0741 v -1.24178 c 0,-0.0265 -0.0046,-0.0505 -0.01305,-0.0709 -0.0092,-0.0208 -0.02787,-0.0374 -0.05609,-0.0508 -0.02223,-0.0106 -0.05186,-0.0201 -0.08855,-0.0279 -0.03704,-0.008 -0.06632,-0.0127 -0.08819,-0.0145 v -0.0864 h 1.336674 v 0.41628 h -0.09137 c -0.01623,-0.0617 -0.05151,-0.127 -0.105128,-0.1965 -0.05397,-0.0695 -0.105833,-0.1076 -0.154164,-0.11395 -0.02575,-0.003 -0.05539,-0.006 -0.09031,-0.007 -0.03492,-0.002 -0.07444,-0.002 -0.119239,-0.002 h -0.271286 v 0.68686 h 0.194734 c 0.06244,0 0.108302,-0.006 0.136877,-0.018 0.02858,-0.0116 0.05397,-0.0317 0.0762,-0.0589 0.01764,-0.0236 0.03281,-0.0547 0.04586,-0.0942 0.01235,-0.0399 0.02046,-0.0765 0.02469,-0.11147 h 0.09137 v 0.67556 h -0.09137 c -0.0035,-0.0388 -0.01199,-0.0801 -0.02611,-0.12382 -0.01411,-0.043 -0.02928,-0.0748 -0.04445,-0.0942 -0.0254,-0.0317 -0.05397,-0.0526 -0.08537,-0.0621 -0.0321,-0.01 -0.07514,-0.0145 -0.127705,-0.0145 h -0.194733 v 0.51858 c 0,0.0519 0.0039,0.0931 0.01093,0.12312 0.0074,0.0296 0.02152,0.0526 0.04269,0.0681 0.02081,0.0152 0.04974,0.025 0.08643,0.03 0.03634,0.004 0.08855,0.006 0.155928,0.006 h 0.105833 c 0.04374,0 0.08079,-10e-4 0.110773,-0.005 0.03034,-0.003 0.06244,-0.009 0.09525,-0.0173 0.03316,-0.009 0.05609,-0.0204 0.0702,-0.0349 0.03704,-0.0392 0.07655,-0.0981 0.117123,-0.17709 0.04163,-0.0794 0.06738,-0.13758 0.07867,-0.17498 z" />
    <path
       id="path1012"
       style="fill:#4f4c4d;fill-opacity:1;fill-rule:nonzero;stroke:none;stroke-width:0.35277775"
       d="m 17.932607,292.56263 c 0,-0.10478 -0.02999,-0.18733 -0.09031,-0.24871 -0.05997,-0.061 -0.144992,-0.0921 -0.254353,-0.0921 h -0.206728 v 0.74154 h 0.159456 c 0.111831,0 0.205317,-0.0356 0.279753,-0.10759 0.07479,-0.072 0.112183,-0.16969 0.112183,-0.29316 m 0.639939,1.28799 h -0.464608 c -0.103011,-0.16157 -0.196498,-0.30092 -0.279753,-0.41875 -0.0829,-0.11747 -0.173214,-0.23883 -0.270228,-0.36371 h -0.176742 v 0.54786 c 0,0.0282 0.0042,0.0533 0.01341,0.0748 0.0085,0.0212 0.02787,0.0377 0.05715,0.049 0.01446,0.006 0.03986,0.0113 0.07655,0.0159 0.03634,0.005 0.06738,0.008 0.09243,0.009 v 0.0861 h -0.73025 v -0.0861 c 0.01976,-0.002 0.04798,-0.005 0.08467,-0.009 0.03704,-0.004 0.06279,-0.009 0.07726,-0.0159 0.02399,-0.0102 0.04198,-0.0257 0.05292,-0.0462 0.01129,-0.0205 0.01658,-0.0459 0.01658,-0.0776 v -1.24918 c 0,-0.0286 -0.0042,-0.0536 -0.0127,-0.0755 -0.0074,-0.0219 -0.02681,-0.0385 -0.0568,-0.0497 -0.02046,-0.007 -0.04692,-0.0141 -0.07938,-0.0201 -0.03246,-0.006 -0.05997,-0.01 -0.08255,-0.0116 v -0.0864 h 0.797278 c 0.07338,0 0.141817,0.007 0.205669,0.0226 0.06385,0.0148 0.122062,0.0392 0.174273,0.0723 0.05009,0.0324 0.09066,0.0748 0.12065,0.127 0.02963,0.0526 0.04515,0.11571 0.04515,0.18944 0,0.0667 -0.01058,0.12559 -0.03069,0.17674 -0.02082,0.0512 -0.05045,0.0949 -0.08996,0.13229 -0.03669,0.0349 -0.08079,0.0653 -0.131586,0.0907 -0.0515,0.0257 -0.10795,0.0476 -0.169333,0.0653 0.08502,0.11324 0.155928,0.20779 0.212372,0.28505 0.05644,0.0773 0.125236,0.17074 0.207786,0.28116 0.03563,0.0487 0.06773,0.0843 0.09666,0.10795 0.02893,0.0226 0.0575,0.042 0.08573,0.0564 0.02117,0.0102 0.04727,0.0187 0.07938,0.0243 0.03175,0.006 0.05786,0.009 0.07867,0.01 z" />
    <path
       id="path1016"
       style="fill:#4f4c4d;fill-opacity:1;fill-rule:nonzero;stroke:none;stroke-width:0.35277775"
       d="m 22.245879,292.21003 c -0.02258,7.9e-4 -0.0575,0.007 -0.104775,0.0194 -0.04692,0.012 -0.08079,0.0247 -0.100894,0.0374 -0.02928,0.0205 -0.04904,0.0596 -0.05891,0.11713 -0.01023,0.0575 -0.01552,0.13052 -0.01552,0.21907 v 1.26471 h -0.105833 l -1.046692,-1.41323 v 0.89112 c 0,0.0995 0.0064,0.17639 0.0187,0.23001 0.01235,0.0536 0.0321,0.0921 0.05785,0.1143 0.0187,0.018 0.05715,0.0346 0.115359,0.0497 0.05856,0.0159 0.09737,0.024 0.116063,0.0247 v 0.0864 H 20.41285 v -0.0864 c 0.02152,-0.002 0.05856,-0.01 0.110419,-0.0236 0.05221,-0.0141 0.08431,-0.0272 0.09807,-0.0384 0.02787,-0.0226 0.04727,-0.0575 0.05786,-0.10407 0.01058,-0.0466 0.01587,-0.1263 0.01587,-0.23954 v -0.85019 c 0,-0.0378 -0.0063,-0.0752 -0.01976,-0.11254 -0.0127,-0.0374 -0.03034,-0.066 -0.05256,-0.0861 -0.02893,-0.0268 -0.06844,-0.0497 -0.118181,-0.0691 -0.04974,-0.0187 -0.08996,-0.0289 -0.121003,-0.0307 v -0.0864 h 0.492831 l 0.97155,1.31691 V 292.619 c 0,-0.10055 -0.0063,-0.1778 -0.01976,-0.23213 -0.0127,-0.0536 -0.0314,-0.0896 -0.05609,-0.10725 -0.02258,-0.0155 -0.05962,-0.0307 -0.111125,-0.0455 -0.05151,-0.0145 -0.09066,-0.0222 -0.117475,-0.024 v -0.0864 h 0.70238 z" />
    <path
       id="path1020"
       style="fill:#4f4c4d;fill-opacity:1;fill-rule:nonzero;stroke:none;stroke-width:0.35277775"
       d="m 25.133541,293.14485 -0.261408,-0.66957 -0.257175,0.66957 z m 0.696737,0.70591 h -0.719314 v -0.0864 c 0.06315,-0.004 0.115711,-0.012 0.157339,-0.0243 0.04198,-0.0124 0.06279,-0.0272 0.06279,-0.0448 0,-0.008 -7.14e-4,-0.0162 -0.0025,-0.0268 -0.0014,-0.0106 -0.0042,-0.0198 -0.0078,-0.0282 l -0.143228,-0.38664 h -0.605014 c -0.02258,0.0564 -0.04092,0.10583 -0.05539,0.14816 -0.01411,0.042 -0.02716,0.0811 -0.0381,0.11677 -0.01058,0.0349 -0.01799,0.0635 -0.02223,0.085 -0.0039,0.0222 -0.006,0.0402 -0.006,0.0536 0,0.0325 0.0254,0.0579 0.07655,0.0759 0.05115,0.0177 0.109009,0.0282 0.172861,0.0314 v 0.0864 h -0.649719 v -0.0864 c 0.02117,-0.002 0.04727,-0.006 0.07902,-0.0141 0.0314,-0.007 0.0575,-0.0177 0.07796,-0.0307 0.03245,-0.0222 0.0575,-0.0452 0.07514,-0.0692 0.01834,-0.024 0.03528,-0.0568 0.05256,-0.0991 0.08678,-0.2166 0.182739,-0.46002 0.287514,-0.73025 0.104775,-0.27022 0.197556,-0.51082 0.280106,-0.72178 h 0.09701 l 0.576086,1.48978 c 0.01199,0.0317 0.02575,0.0575 0.04092,0.0769 0.01587,0.0194 0.03739,0.0381 0.06491,0.0568 0.0187,0.0116 0.04304,0.0212 0.07267,0.0289 0.03034,0.008 0.05539,0.012 0.07585,0.0127 z" />
    <path
       id="path1024"
       style="fill:#4f4c4d;fill-opacity:1;fill-rule:nonzero;stroke:none;stroke-width:0.35277775"
       d="m 29.129178,292.59226 h -0.0836 c -0.008,-0.0296 -0.0205,-0.0639 -0.0399,-0.10407 -0.0187,-0.0402 -0.0402,-0.0783 -0.0639,-0.11395 -0.0247,-0.0377 -0.0511,-0.0699 -0.0797,-0.0981 -0.0286,-0.0279 -0.0564,-0.0441 -0.0836,-0.048 -0.0247,-0.004 -0.0564,-0.006 -0.0945,-0.007 -0.0381,-0.002 -0.0737,-0.002 -0.10584,-0.002 h -0.0709 v 1.38147 c 0,0.0272 0.006,0.0515 0.0169,0.0741 0.0113,0.0219 0.0314,0.0395 0.06,0.0515 0.0145,0.006 0.0448,0.0134 0.0921,0.0233 0.0466,0.01 0.0825,0.0148 0.10866,0.0159 v 0.0861 h -0.81562 v -0.0861 c 0.0226,-0.002 0.0575,-0.005 0.10442,-0.01 0.0466,-0.005 0.0783,-0.0109 0.0963,-0.018 0.0268,-0.0109 0.0466,-0.0257 0.0593,-0.0459 0.0124,-0.0198 0.0187,-0.0466 0.0187,-0.0797 v -1.39277 h -0.0706 c -0.0254,0 -0.0564,8e-4 -0.0938,0.002 -0.037,10e-4 -0.0727,0.004 -0.10689,0.008 -0.0272,0.004 -0.0547,0.019 -0.0836,0.048 -0.0286,0.0289 -0.055,0.0614 -0.0794,0.0981 -0.0247,0.0363 -0.0459,0.0751 -0.0646,0.11607 -0.0187,0.0413 -0.0318,0.0748 -0.0388,0.10195 h -0.0857 v -0.46884 h 1.50459 z" />
    <path
       id="path1028"
       style="fill:#4f4c4d;fill-opacity:1;fill-rule:nonzero;stroke:none;stroke-width:0.35277775"
       d="m 31.856638,293.85076 h -0.77822 v -0.0864 c 0.0219,-0.002 0.0536,-0.004 0.0949,-0.007 0.042,-0.003 0.0713,-0.008 0.0882,-0.0145 0.0265,-0.0102 0.0459,-0.0251 0.0586,-0.0434 0.012,-0.018 0.0177,-0.0437 0.0177,-0.0762 v -1.2513 c 0,-0.0282 -0.004,-0.0519 -0.0134,-0.0709 -0.008,-0.019 -0.03,-0.0349 -0.0628,-0.0483 -0.0247,-0.01 -0.055,-0.0187 -0.0921,-0.0275 -0.037,-0.008 -0.0674,-0.013 -0.091,-0.0148 v -0.0864 h 0.77822 v 0.0864 c -0.0251,10e-4 -0.055,0.004 -0.0903,0.009 -0.0346,0.005 -0.0649,0.012 -0.0914,0.0201 -0.0307,0.01 -0.0515,0.0254 -0.0617,0.0469 -0.0109,0.0222 -0.0159,0.0469 -0.0159,0.0734 v 1.25024 c 0,0.0268 0.006,0.0501 0.0173,0.0713 0.012,0.0205 0.0321,0.0374 0.0603,0.0494 0.0173,0.007 0.0448,0.0134 0.084,0.0212 0.0381,0.008 0.0709,0.012 0.0977,0.0127 z" />
    <path
       id="path1032"
       style="fill:#4f4c4d;fill-opacity:1;fill-rule:nonzero;stroke:none;stroke-width:0.35277775"
       d="m 35.120538,293.55242 c 0.0452,-0.0737 0.0787,-0.15734 0.0991,-0.25047 0.0208,-0.0935 0.031,-0.19791 0.031,-0.31292 0,-0.11853 -0.0113,-0.22719 -0.0346,-0.32597 -0.0233,-0.0995 -0.0571,-0.18379 -0.10195,-0.25364 -0.0444,-0.0691 -0.10054,-0.12242 -0.16757,-0.16122 -0.0677,-0.0388 -0.14464,-0.0575 -0.23142,-0.0575 -0.0974,0 -0.17992,0.0222 -0.24836,0.0667 -0.0681,0.0444 -0.12382,0.10442 -0.16686,0.17886 -0.0402,0.0716 -0.0706,0.15522 -0.0907,0.25082 -0.0201,0.096 -0.03,0.1965 -0.03,0.30198 0,0.11677 0.0109,0.22225 0.0321,0.31609 0.0205,0.0945 0.054,0.17815 0.0995,0.25118 0.0438,0.0713 0.0991,0.127 0.1658,0.16721 0.0663,0.0406 0.14605,0.0603 0.23848,0.0603 0.0868,0 0.1651,-0.0201 0.23531,-0.061 0.0695,-0.0402 0.12629,-0.097 0.17003,-0.17039 m 0.18168,-1.2245 c 0.0759,0.0794 0.13547,0.17534 0.17851,0.28787 0.0434,0.11254 0.0646,0.23707 0.0646,0.37324 0,0.13723 -0.0215,0.26176 -0.0656,0.37359 -0.0438,0.11219 -0.10477,0.20744 -0.18239,0.2861 -0.0759,0.078 -0.16333,0.13829 -0.26317,0.18028 -0.0995,0.0423 -0.20602,0.0635 -0.31891,0.0635 -0.1203,0 -0.23142,-0.0229 -0.33302,-0.0681 -0.10196,-0.0444 -0.18909,-0.1076 -0.26212,-0.18803 -0.073,-0.0783 -0.13052,-0.17392 -0.1725,-0.28681 -0.0413,-0.11218 -0.0628,-0.23248 -0.0628,-0.36054 0,-0.14041 0.0222,-0.26564 0.0663,-0.37571 0.0434,-0.11006 0.10407,-0.20496 0.18097,-0.2854 0.0766,-0.0794 0.16475,-0.1404 0.266,-0.18273 0.10089,-0.042 0.20672,-0.0632 0.31714,-0.0632 0.11466,0 0.22225,0.0215 0.32421,0.0646 0.10124,0.043 0.18873,0.10336 0.26282,0.18132" />
    <path
       id="path1036"
       style="fill:#4f4c4d;fill-opacity:1;fill-rule:nonzero;stroke:none;stroke-width:0.35277775"
       d="m 39.368338,292.21003 c -0.0229,7.9e-4 -0.0579,0.007 -0.10478,0.0194 -0.0469,0.012 -0.0808,0.0247 -0.10089,0.0374 -0.0296,0.0205 -0.049,0.0596 -0.0589,0.11713 -0.0106,0.0575 -0.0155,0.13052 -0.0155,0.21907 v 1.26471 h -0.10619 l -1.0467,-1.41323 v 0.89112 c 0,0.0995 0.006,0.17639 0.0187,0.23001 0.0127,0.0536 0.0321,0.0921 0.0579,0.1143 0.0187,0.018 0.0575,0.0346 0.11571,0.0497 0.0586,0.0159 0.0974,0.024 0.11607,0.0247 v 0.0864 h -0.70838 v -0.0864 c 0.0212,-0.002 0.0586,-0.01 0.11007,-0.0236 0.0522,-0.0141 0.0843,-0.0272 0.0981,-0.0384 0.0282,-0.0226 0.0473,-0.0575 0.0582,-0.10407 0.0106,-0.0466 0.0159,-0.1263 0.0159,-0.23954 v -0.85019 c 0,-0.0378 -0.006,-0.0752 -0.0198,-0.11254 -0.013,-0.0374 -0.0303,-0.066 -0.0526,-0.0861 -0.0293,-0.0268 -0.0684,-0.0497 -0.11854,-0.0691 -0.0494,-0.0187 -0.09,-0.0289 -0.121,-0.0307 v -0.0864 h 0.49318 l 0.9712,1.31691 V 292.619 c 0,-0.10055 -0.006,-0.1778 -0.0194,-0.23213 -0.013,-0.0536 -0.0314,-0.0896 -0.0561,-0.10725 -0.0229,-0.0155 -0.06,-0.0307 -0.11148,-0.0455 -0.0515,-0.0145 -0.0903,-0.0222 -0.11712,-0.024 v -0.0864 h 0.70238 z" />
    <path
       id="path1040"
       style="fill:#4f4c4d;fill-opacity:1;fill-rule:nonzero;stroke:none;stroke-width:0.35277775"
       d="m 42.255998,293.14485 -0.26176,-0.66957 -0.25682,0.66957 z m 0.69638,0.70591 h -0.71896 v -0.0864 c 0.0628,-0.004 0.11536,-0.012 0.15734,-0.0243 0.042,-0.0124 0.0628,-0.0272 0.0628,-0.0448 0,-0.008 -7.9e-4,-0.0162 -0.002,-0.0268 -0.002,-0.0106 -0.004,-0.0198 -0.008,-0.0282 l -0.14322,-0.38664 h -0.60502 c -0.0226,0.0564 -0.0409,0.10583 -0.0557,0.14816 -0.0141,0.042 -0.0268,0.0811 -0.0381,0.11677 -0.0106,0.0349 -0.0177,0.0635 -0.0222,0.085 -0.004,0.0222 -0.006,0.0402 -0.006,0.0536 0,0.0325 0.0254,0.0579 0.0762,0.0759 0.0515,0.0177 0.10901,0.0282 0.17286,0.0314 v 0.0864 h -0.64946 v -0.0864 c 0.0208,-0.002 0.0469,-0.006 0.0787,-0.0141 0.0318,-0.007 0.0579,-0.0177 0.0783,-0.0307 0.0325,-0.0222 0.0572,-0.0452 0.0751,-0.0692 0.018,-0.024 0.0353,-0.0568 0.0522,-0.0991 0.0868,-0.2166 0.18309,-0.46002 0.28787,-0.73025 0.10477,-0.27022 0.19755,-0.51082 0.27975,-0.72178 h 0.0974 l 0.57573,1.48978 c 0.012,0.0317 0.0257,0.0575 0.0413,0.0769 0.0159,0.0194 0.037,0.0381 0.0649,0.0568 0.0183,0.0116 0.0427,0.0212 0.0727,0.0289 0.0303,0.008 0.055,0.012 0.0755,0.0127 z" />
    <path
       id="path1044"
       style="fill:#4f4c4d;fill-opacity:1;fill-rule:nonzero;stroke:none;stroke-width:0.35277775"
       d="m 46.234768,293.33726 -0.0367,0.51364 h -1.35008 v -0.0864 c 0.0198,-0.002 0.0476,-0.005 0.085,-0.009 0.0367,-0.004 0.0624,-0.009 0.0769,-0.0159 0.0243,-0.0102 0.042,-0.0258 0.0529,-0.0462 0.0113,-0.0201 0.0169,-0.0459 0.0169,-0.0776 v -1.23684 c 0,-0.0275 -0.005,-0.0519 -0.0141,-0.073 -0.01,-0.0212 -0.0282,-0.0385 -0.0557,-0.0512 -0.0183,-0.01 -0.0448,-0.019 -0.0783,-0.0286 -0.0335,-0.009 -0.0614,-0.0145 -0.0836,-0.0162 v -0.0864 h 0.72954 v 0.0864 c -0.0233,7.9e-4 -0.0522,0.005 -0.0882,0.0116 -0.0363,0.008 -0.0624,0.0141 -0.0787,0.0198 -0.0279,0.01 -0.0466,0.0261 -0.0568,0.0497 -0.01,0.024 -0.0152,0.0487 -0.0152,0.0759 v 1.15993 c 0,0.0536 0.002,0.0953 0.008,0.12488 0.006,0.0293 0.0177,0.0522 0.037,0.0688 0.0191,0.0145 0.0469,0.024 0.0836,0.0282 0.037,0.005 0.0885,0.007 0.15523,0.007 0.0303,0 0.0614,-2.7e-4 0.0935,-0.002 0.0325,-0.002 0.0635,-0.005 0.0928,-0.01 0.0282,-0.005 0.0543,-0.0116 0.0787,-0.0201 0.0236,-0.009 0.0416,-0.0194 0.0526,-0.0325 0.0335,-0.0374 0.072,-0.0938 0.11641,-0.16933 0.0441,-0.0762 0.0748,-0.13759 0.0917,-0.18451 z" />
  </g>
</svg>
