<?xml version="1.0" encoding="UTF-8" standalone="no"?>
<svg
   xmlns:dc="http://purl.org/dc/elements/1.1/"
   xmlns:cc="http://creativecommons.org/ns#"
   xmlns:rdf="http://www.w3.org/1999/02/22-rdf-syntax-ns#"
   xmlns:svg="http://www.w3.org/2000/svg"
   xmlns="http://www.w3.org/2000/svg"
   id="svg3033"
   version="1.1"
   viewBox="0 0 35 30"
   height="30mm"
   width="35mm">
  <defs
     id="defs3027">
    <clipPath
       id="clipPath660"
       clipPathUnits="userSpaceOnUse">
      <path
         id="path658"
         d="m 185.345,508.313 c 4.223,9.378 4.258,18.372 0,27.695 v 0 c -4.258,-9.323 -4.223,-18.317 0,-27.695" />
    </clipPath>
    <linearGradient
       id="linearGradient672"
       spreadMethod="pad"
       gradientTransform="matrix(-6.363236,-6e-7,-6e-7,6.363236,188.52637,522.16064)"
       gradientUnits="userSpaceOnUse"
       y2="0"
       x2="1"
       y1="0"
       x1="0">
      <stop
         id="stop666"
         offset="0"
         style="stop-opacity:1;stop-color:#176fc1" />
      <stop
         id="stop668"
         offset="0.79"
         style="stop-opacity:1;stop-color:#66cef5" />
      <stop
         id="stop670"
         offset="1"
         style="stop-opacity:1;stop-color:#33bdf2" />
    </linearGradient>
    <clipPath
       id="clipPath638"
       clipPathUnits="userSpaceOnUse">
      <path
         id="path636"
         d="m 185.345,507.59 c 5.615,12.47 5.662,24.429 0,36.828 v 0 c -5.662,-12.399 -5.615,-24.358 0,-36.828" />
    </clipPath>
    <linearGradient
       id="linearGradient650"
       spreadMethod="pad"
       gradientTransform="matrix(-1.6e-6,36.828125,36.828125,1.6e-6,185.34521,507.58984)"
       gradientUnits="userSpaceOnUse"
       y2="0"
       x2="1"
       y1="0"
       x1="0">
      <stop
         id="stop644"
         offset="0"
         style="stop-opacity:1;stop-color:#0994dc" />
      <stop
         id="stop646"
         offset="0.61"
         style="stop-opacity:1;stop-color:#0994dc" />
      <stop
         id="stop648"
         offset="1"
         style="stop-opacity:1;stop-color:#ed1c24" />
    </linearGradient>
    <clipPath
       id="clipPath614"
       clipPathUnits="userSpaceOnUse">
      <path
         id="path612"
         d="m 185.345,506.867 c 8.078,17.943 8.146,35.149 0,52.988 v 0 c -8.147,-17.839 -8.079,-35.045 0,-52.988" />
    </clipPath>
    <linearGradient
       id="linearGradient628"
       spreadMethod="pad"
       gradientTransform="matrix(-2.2e-6,50.867813,50.867813,2.2e-6,185.34521,507.92725)"
       gradientUnits="userSpaceOnUse"
       y2="0"
       x2="1"
       y1="0"
       x1="0">
      <stop
         id="stop620"
         offset="0"
         style="stop-opacity:1;stop-color:#2056ae" />
      <stop
         id="stop622"
         offset="0.45"
         style="stop-opacity:1;stop-color:#2056ae" />
      <stop
         id="stop624"
         offset="0.79"
         style="stop-opacity:1;stop-color:#ed1c24" />
      <stop
         id="stop626"
         offset="1"
         style="stop-opacity:1;stop-color:#f47216" />
    </linearGradient>
    <clipPath
       id="clipPath592"
       clipPathUnits="userSpaceOnUse">
      <path
         id="path590"
         d="m 150.994,501.582 c 0,-12.499 10.137,-22.635 22.634,-22.635 v 0 c 8.036,0 15.096,4.191 19.112,10.505 v 0 16.208 h -12.148 -2.016 v -9.588 c 0.111,0.04 0.224,0.08 0.342,0.12 v 0 c 2.945,1.001 8.112,1.889 9.028,-3.728 v 0 c -0.029,-0.251 -0.063,-0.5 -0.105,-0.746 v 0 c -1.08,-6.298 -6.778,-11.104 -13.644,-11.104 v 0 c -7.637,0 -13.83,5.945 -13.83,13.274 v 0 c 0,7.329 6.193,13.274 13.83,13.274 v 0 c 0.052,0 0.104,-10e-4 0.156,-10e-4 v 0 17.043 c -0.241,0.007 -0.482,0.011 -0.725,0.011 v 0 c -12.497,0 -22.634,-10.136 -22.634,-22.633 m 27.582,-5.51 v -0.204 0.204 c 0,0 0,0 0,0" />
    </clipPath>
    <linearGradient
       id="linearGradient604"
       spreadMethod="pad"
       gradientTransform="matrix(-41.746582,-3.6e-6,-3.6e-6,41.746582,192.74072,501.58105)"
       gradientUnits="userSpaceOnUse"
       y2="0"
       x2="1"
       y1="0"
       x1="0">
      <stop
         id="stop598"
         offset="0"
         style="stop-opacity:1;stop-color:#176fc1" />
      <stop
         id="stop600"
         offset="0.79"
         style="stop-opacity:1;stop-color:#66cef5" />
      <stop
         id="stop602"
         offset="1"
         style="stop-opacity:1;stop-color:#33bdf2" />
    </linearGradient>
  </defs>
  <metadata
     id="metadata3030">
    <rdf:RDF>
      <cc:Work
         rdf:about="">
        <dc:format>image/svg+xml</dc:format>
        <dc:type
           rdf:resource="http://purl.org/dc/dcmitype/StillImage" />
        <dc:title></dc:title>
      </cc:Work>
    </rdf:RDF>
  </metadata>
  <g
     transform="translate(0,-267)"
     id="layer1">
    <path
       id="path1338"
       style="fill:#cce86e;fill-opacity:1;fill-rule:evenodd;stroke:none;stroke-width:0.35277775"
       d="m 2.6677921,289.76191 c -0.210961,-6.85765 7.8253169,-6.06531 8.7492419,-12.49715 1.687688,6.12281 -7.536392,6.24699 -8.7492419,12.49715" />
    <path
       id="path1342"
       style="fill:#99d420;fill-opacity:1;fill-rule:evenodd;stroke:none;stroke-width:0.35277775"
       d="m 4.745372,281.86918 c -3.4417,-5.0225 6.216297,-6.9155 6.355644,-12.40261 10.717742,18.12996 -11.41976906,14.14604 -7.493352,22.1996 0,0 0.05397,0.50588 -0.3249089,0.14464 -0.37853,-0.36125 -1.365955,-1.94628 -0.491772,-3.59375 2.8571469,-5.38374 14.4141469,-3.11891 8.6815079,-16.66945 -0.616303,4.29683 -7.953375,5.93548 -6.727119,10.32157" />
    <path
       id="path1346"
       style="fill:#66c430;fill-opacity:1;fill-rule:evenodd;stroke:none;stroke-width:0.35277775"
       d="m 3.571117,292.04325 c 0,0 -0.8837089,-1.29257 -0.4776609,-3.00707 0.4060469,-1.71486 2.2965829,-3.22686 4.2347439,-2.70334 1.9385138,0.52423 2.713567,2.37243 2.0369388,3.45757 -0.676628,1.08515 -1.207559,0.75989 -1.207559,0.75989 0,0 0.435328,-1.11231 -0.23248,-1.94451 C 7.257644,287.77358 5.719533,287.4014 4.775853,288.023 c -0.943681,0.62195 -1.7737669,2.274 -1.204736,4.02025" />
    <path
       id="path1350"
       style="fill:#00a650;fill-opacity:1;fill-rule:nonzero;stroke:none;stroke-width:0.35277775"
       d="m 14.470714,285.38214 c -0.286455,0 -0.534105,0.13511 -0.743302,0.40393 -0.209198,0.26882 -0.40887,0.70626 -0.598664,1.31304 -0.05962,0.20108 -0.106186,0.39581 -0.141817,0.58596 -0.03351,0.18838 -0.05292,0.35066 -0.05609,0.48578 0,0.248 0.05292,0.44273 0.155928,0.58455 0.104775,0.14146 0.248003,0.21237 0.429684,0.21237 0.28963,0 0.542572,-0.14005 0.756355,-0.42157 0.214136,-0.28187 0.418394,-0.73871 0.614892,-1.37125 0.172155,-0.56338 0.221897,-1.00259 0.148166,-1.31797 -0.07408,-0.31715 -0.262466,-0.47484 -0.56515,-0.47484 m -1.454855,4.22592 c -0.480836,0 -0.875242,-0.15592 -1.184275,-0.46672 -0.29457,-0.31221 -0.444147,-0.70803 -0.447322,-1.18922 v -0.018 c 0,-0.12523 0.01447,-0.27658 0.04198,-0.45014 0.02893,-0.17569 0.06562,-0.33655 0.113947,-0.48295 0.185208,-0.60996 0.526345,-1.11831 1.025172,-1.52365 0.497416,-0.40605 1.028347,-0.60854 1.589969,-0.60854 0.563386,-0.003 0.964142,0.20249 1.202267,0.61806 l 0.150989,-0.47942 h 1.528938 l -0.976841,3.16688 c -0.06597,0.22049 -0.09313,0.37783 -0.08361,0.47484 0.0081,0.0946 0.05962,0.14288 0.149578,0.14288 0.1016,0 0.259292,-0.10442 0.474839,-0.31362 0.214136,-0.20779 0.397581,-0.43603 0.548922,-0.68086 l 0.329847,0.23177 c -0.339725,0.54575 -0.667808,0.94651 -0.984955,1.20227 -0.309033,0.25082 -0.637117,0.37641 -0.986719,0.37641 -0.389114,0 -0.653345,-0.12876 -0.791634,-0.38594 -0.05609,-0.11147 -0.08678,-0.24623 -0.09313,-0.40604 l -0.09031,0.0984 c -0.442384,0.46179 -0.949325,0.69356 -1.51765,0.69356" />
    <path
       id="path1354"
       style="fill:#00a650;fill-opacity:1;fill-rule:nonzero;stroke:none;stroke-width:0.35277775"
       d="m 16.658853,292.93966 c -0.09419,0.4251 0.01446,0.75354 0.328436,0.98284 0.313972,0.22966 0.811036,0.3429 1.489781,0.3429 0.56268,0 1.045633,-0.0822 1.451327,-0.24871 0.405342,-0.16439 0.63747,-0.36936 0.692856,-0.61559 0.06526,-0.29246 0,-0.51929 -0.195439,-0.67628 -0.195439,-0.15946 -0.528814,-0.25612 -0.999772,-0.29457 l -1.451328,-0.11359 c -0.41028,0 -0.719667,0.0508 -0.929569,0.14957 -0.209903,0.0991 -0.337961,0.25647 -0.386292,0.47343 m 3.762022,-7.31379 c -0.301625,0 -0.564797,0.13265 -0.791986,0.39582 -0.217311,0.26317 -0.379236,0.63959 -0.487892,1.12501 -0.03387,0.133 -0.05785,0.2607 -0.07479,0.38911 -0.01693,0.12771 -0.02152,0.2413 -0.01693,0.34008 0,0.34784 0.08467,0.62054 0.251178,0.81386 0.166511,0.19332 0.403225,0.28963 0.709789,0.28963 h 0.01482 c 0.301625,0 0.560212,-0.12524 0.775053,-0.37888 0.214842,-0.25118 0.376414,-0.61807 0.485422,-1.09855 0.02858,-0.13794 0.05045,-0.27305 0.06985,-0.40358 0.0194,-0.133 0.02646,-0.24871 0.02187,-0.34749 0,-0.35983 -0.08467,-0.63535 -0.251177,-0.83044 -0.166512,-0.19579 -0.405695,-0.29457 -0.717198,-0.29457 z m -2.878314,4.2665 c -0.03845,0.1591 0.03387,0.30444 0.214842,0.42968 0.183444,0.12806 0.422628,0.20285 0.719667,0.22719 l 1.451327,0.11359 c 0.970492,0.0748 1.651706,0.30163 2.042936,0.67593 0.393348,0.37429 0.509412,0.91263 0.354542,1.61784 -0.137583,0.623 -0.5334,1.09608 -1.187803,1.4224 -0.647347,0.32596 -1.526116,0.48753 -2.639483,0.48753 -1.226255,0 -2.163233,-0.16157 -2.81058,-0.48753 -0.644878,-0.32632 -0.90805,-0.768 -0.784931,-1.32363 0.08961,-0.40075 0.401108,-0.70238 0.934508,-0.90522 0.232128,-0.0847 0.504825,-0.15205 0.821267,-0.20532 l -0.347839,-0.26811 c -0.408164,-0.3743 -0.560211,-0.80398 -0.451555,-1.28941 0.07973,-0.34536 0.263172,-0.63006 0.548216,-0.85971 0.285045,-0.22931 0.700264,-0.41734 1.248481,-0.56268 -0.533753,-0.38136 -0.796925,-0.87384 -0.791986,-1.47991 0,-0.0751 0.0046,-0.15945 0.01446,-0.25364 0.0071,-0.0942 0.02399,-0.18345 0.04833,-0.26776 0.127705,-0.59196 0.490008,-1.06539 1.088672,-1.42734 0.599017,-0.35984 1.321153,-0.54116 2.166055,-0.54116 h -0.05045 c 0.289278,0 0.562328,0.0194 0.820209,0.0582 h 3.44e-4 c 0.148166,0.0219 0.291747,0.0504 0.430036,0.0857 0.307975,0.084 0.748594,0.24659 1.213908,0.55951 0.572911,0.42015 0.860425,0.95814 0.860425,1.61007 0,0.0748 -0.0049,0.16405 -0.01693,0.26318 -0.01199,0.0988 -0.02646,0.19085 -0.04586,0.27516 -0.12312,0.54328 -0.458612,0.98072 -1.011767,1.31128 -0.550333,0.33337 -1.219553,0.49988 -2.001661,0.49988 h -0.0508 c -0.509411,0 -0.968375,-0.048 -1.378656,-0.14252 -0.258586,-0.0603 -0.516819,-0.0748 -0.770466,-0.0409 -0.246239,0.0335 -0.420159,0.10407 -0.523875,0.21237 -0.06279,0.0653 -0.09913,0.13265 -0.113595,0.20532" />
    <path
       id="path1358"
       style="fill:#00a650;fill-opacity:1;fill-rule:nonzero;stroke:none;stroke-width:0.35277775"
       d="m 23.094967,289.57758 1.037872,-3.38596 c 0.08396,-0.27023 0.09666,-0.45543 0.03528,-0.55174 -0.06244,-0.0981 -0.216958,-0.14641 -0.464961,-0.14641 h -0.268464 l 0.08996,-0.40604 1.148997,-0.0607 1.148998,-0.0614 -0.352425,1.37583 c 0.07232,-0.13194 0.143227,-0.24765 0.212372,-0.34749 0.458611,-0.67909 1.007533,-1.01882 1.645003,-1.01882 0.30233,0 0.535869,0.0998 0.703086,0.2981 0.165453,0.19755 0.209197,0.42792 0.127,0.69356 -0.05609,0.18838 -0.143228,0.33302 -0.258939,0.43286 -0.117475,0.10125 -0.252589,0.15099 -0.405695,0.15099 -0.239536,0 -0.418394,-0.0773 -0.53728,-0.23143 -0.09525,-0.12241 -0.128764,-0.27058 -0.09984,-0.44414 0.0063,-0.0501 0,-0.0935 -0.02082,-0.12877 -0.02117,-0.037 -0.05009,-0.0564 -0.08714,-0.0596 l -0.109362,-0.005 c -0.297744,0 -0.648405,0.39088 -1.052336,1.17158 -0.40393,0.78211 -0.724252,1.68945 -0.964141,2.72309 v 10e-4 h -0.762706 z" />
    <path
       id="path1362"
       style="fill:#00a650;fill-opacity:1;fill-rule:nonzero;stroke:none;stroke-width:0.35277775"
       d="m 29.933138,289.29924 c 0.262467,0 0.48754,-0.14817 0.675923,-0.44273 0.188383,-0.29599 0.365477,-0.77717 0.532694,-1.44357 0.05962,-0.22049 0.106187,-0.4311 0.138289,-0.63394 0.03387,-0.20285 0.05151,-0.37959 0.05468,-0.53093 -0.0032,-0.27376 -0.06103,-0.48437 -0.176742,-0.63395 -0.114654,-0.14957 -0.289983,-0.22366 -0.528108,-0.22366 -0.26388,0 -0.490715,0.15135 -0.680509,0.45544 -0.191558,0.30233 -0.373239,0.79657 -0.547158,1.48202 -0.05962,0.21414 -0.104775,0.41839 -0.136879,0.61313 -0.03034,0.19473 -0.04657,0.36371 -0.04657,0.50517 0,0.27059 0.05786,0.47943 0.175331,0.62936 0.117475,0.14958 0.295982,0.22366 0.539044,0.22366 m -0.07408,0.41522 c -0.650169,0 -1.171574,-0.16087 -1.562452,-0.4826 -0.391231,-0.3235 -0.587375,-0.75494 -0.587375,-1.29575 0,-0.10266 0.0095,-0.22366 0.03069,-0.3623 0.02081,-0.13794 0.04798,-0.26988 0.08184,-0.39723 0.18027,-0.66005 0.532695,-1.19098 1.062214,-1.59491 0.527756,-0.40393 1.134533,-0.60678 1.819981,-0.60678 0.646994,0 1.165225,0.1644 1.556454,0.49107 0.389115,0.32702 0.582438,0.75953 0.579263,1.29716 v 0.0127 c 0,0.1143 -0.0113,0.24307 -0.03387,0.3877 -0.02117,0.145 -0.0501,0.28187 -0.08361,0.41029 -0.177096,0.64099 -0.526346,1.15922 -1.049163,1.55186 -0.523169,0.39229 -1.128183,0.58879 -1.813983,0.58879" />
    <path
       id="path1366"
       style="fill:#4f4c4d;fill-opacity:1;fill-rule:nonzero;stroke:none;stroke-width:0.35277775"
       d="m 16.805257,278.85508 c -0.262114,0 -0.531636,-0.0423 -0.808214,-0.12735 -0.27693,-0.0854 -0.527402,-0.21837 -0.751063,-0.3997 l 0.620888,-0.66922 c 0.148167,0.10583 0.307623,0.19156 0.47872,0.25823 0.171097,0.0656 0.333022,0.0991 0.484717,0.0991 0.1651,0 0.284338,-0.0226 0.358422,-0.0681 0.07373,-0.0455 0.110772,-0.10972 0.110772,-0.19262 0,-0.0455 -0.0127,-0.0836 -0.0381,-0.11359 -0.02505,-0.0303 -0.06209,-0.0586 -0.110772,-0.0854 -0.04868,-0.0264 -0.106539,-0.0519 -0.174272,-0.0762 -0.06773,-0.0247 -0.14605,-0.0522 -0.234598,-0.0826 l -0.513291,-0.19261 c -0.110067,-0.0377 -0.2159,-0.0878 -0.317148,-0.15029 -0.101247,-0.0621 -0.190147,-0.13582 -0.265994,-0.22083 -0.0762,-0.0854 -0.136525,-0.18239 -0.180622,-0.29246 -0.04445,-0.10936 -0.06668,-0.23036 -0.06668,-0.36265 0,-0.15875 0.0381,-0.30692 0.113947,-0.44521 0.0762,-0.13758 0.181681,-0.25858 0.317147,-0.36265 0.135114,-0.10407 0.296686,-0.18592 0.484717,-0.2466 0.18803,-0.0607 0.394053,-0.0907 0.618067,-0.0907 0.236713,0 0.476602,0.0395 0.719313,0.11889 0.243064,0.0794 0.460023,0.20425 0.649817,0.37394 l -0.545042,0.61278 c -0.139347,-0.0868 -0.273755,-0.15346 -0.402519,-0.19862 -0.129117,-0.0455 -0.269169,-0.0681 -0.421569,-0.0681 -0.135114,0 -0.240948,0.0208 -0.316795,0.0624 -0.0762,0.0416 -0.1143,0.10407 -0.1143,0.18732 0,0.0868 0.05398,0.15346 0.161925,0.20109 0.107597,0.0473 0.25647,0.10301 0.446617,0.16721 l 0.500944,0.17569 c 0.257528,0.091 0.456495,0.21766 0.595842,0.37994 0.139347,0.16263 0.209197,0.37253 0.209197,0.62935 0,0.15523 -0.03598,0.30445 -0.10795,0.44803 -0.07161,0.14358 -0.176389,0.26917 -0.313619,0.37712 -0.137584,0.1076 -0.305506,0.19368 -0.50412,0.25788 -0.198614,0.0642 -0.426861,0.0963 -0.684389,0.0963" />
    <path
       id="path1370"
       style="fill:#4f4c4d;fill-opacity:1;fill-rule:nonzero;stroke:none;stroke-width:0.35277775"
       d="m 18.694205,278.78721 v -3.68547 h 1.090084 v 1.37195 h 1.230136 v -1.37195 h 1.090083 v 3.68547 h -1.090083 v -1.46262 h -1.230136 v 1.46262 z" />
    <path
       id="path1374"
       style="fill:#4f4c4d;fill-opacity:1;fill-rule:nonzero;stroke:none;stroke-width:0.35277775"
       d="m 22.636955,278.78721 v -3.68547 h 2.662413 v 0.81632 h -1.571977 v 0.57856 h 1.34373 v 0.81633 h -1.34373 v 0.65793 h 1.635477 v 0.81633 z" />
    <path
       id="path1378"
       style="fill:#4f4c4d;fill-opacity:1;fill-rule:nonzero;stroke:none;stroke-width:0.35277775"
       d="m 26.871312,278.03857 h 0.443794 c 0.422628,0 0.633942,-0.13617 0.633942,-0.40816 0,-0.13617 -0.05186,-0.23248 -0.155222,-0.28928 -0.103717,-0.0568 -0.263172,-0.085 -0.47872,-0.085 h -0.443794 z m 0,-1.49683 h 0.367594 c 0.177448,0 0.308681,-0.0339 0.392995,-0.10195 0.08467,-0.0681 0.127,-0.15875 0.127,-0.27235 0,-0.11324 -0.04233,-0.19438 -0.127,-0.24377 -0.08431,-0.049 -0.215547,-0.0737 -0.392995,-0.0737 h -0.367594 z m -1.090083,2.24543 v -3.68547 h 1.483077 c 0.215548,0 0.418395,0.0141 0.608542,0.0423 0.190147,0.0286 0.355247,0.0769 0.494594,0.14464 0.139348,0.0681 0.250473,0.16157 0.33267,0.28081 0.08255,0.11889 0.123825,0.26953 0.123825,0.4505 0,0.0797 -0.0127,0.15981 -0.03845,0.2413 -0.02505,0.0811 -0.05997,0.15875 -0.104422,0.23248 -0.04445,0.0734 -0.09807,0.139 -0.161572,0.19544 -0.06315,0.0568 -0.135114,0.0984 -0.215548,0.12453 v 0.0229 c 0.198614,0.0529 0.366537,0.14852 0.50412,0.28611 0.13723,0.13828 0.20567,0.3302 0.20567,0.57573 0,0.18909 -0.04304,0.35242 -0.129823,0.49036 -0.08678,0.13794 -0.202847,0.25153 -0.348544,0.34043 -0.145698,0.0889 -0.318206,0.15381 -0.51682,0.19544 -0.198614,0.0416 -0.407458,0.0624 -0.627239,0.0624 z" />
    <path
       id="path1382"
       style="fill:#4f4c4d;fill-opacity:1;fill-rule:nonzero;stroke:none;stroke-width:0.35277775"
       d="m 28.760437,278.78721 1.255182,-3.68547 h 1.318332 l 1.255183,3.68547 h -1.153583 l -0.202849,-0.78282 h -1.153583 l -0.2032,0.78282 z m 1.584678,-1.79176 -0.06985,0.25541 h 0.760942 l -0.06985,-0.25541 c -0.0508,-0.1778 -0.1016,-0.37042 -0.152048,-0.57856 -0.0508,-0.20778 -0.1016,-0.40428 -0.152048,-0.58949 h -0.02574 c -0.04622,0.18909 -0.09384,0.38664 -0.142523,0.59267 -0.04868,0.20602 -0.09807,0.39758 -0.148871,0.57538" />
    <path
       id="path1386"
       style="fill:#00a650;fill-opacity:1;fill-rule:nonzero;stroke:none;stroke-width:0.35277775"
       d="m 17.492574,283.76674 c -0.303037,0 -0.588434,-0.0406 -0.855839,-0.12277 -0.267406,-0.0815 -0.500239,-0.20532 -0.6985,-0.37042 -0.198614,-0.16545 -0.354542,-0.37288 -0.468136,-0.62195 -0.113595,-0.24941 -0.170745,-0.53939 -0.170745,-0.8703 0,-0.32702 0.05821,-0.61701 0.17392,-0.8703 0.116063,-0.2533 0.27305,-0.46637 0.471311,-0.63959 0.198614,-0.17356 0.42933,-0.30586 0.69215,-0.39793 0.262819,-0.0917 0.539397,-0.13758 0.829027,-0.13758 0.320675,0 0.598312,0.0511 0.832556,0.15275 0.233892,0.1016 0.428978,0.22225 0.584906,0.3616 l -0.601839,0.65757 c -0.106892,-0.0836 -0.219428,-0.15204 -0.337609,-0.20602 -0.11818,-0.054 -0.263877,-0.0808 -0.437797,-0.0808 -0.147108,0 -0.28328,0.0261 -0.407811,0.078 -0.124883,0.0515 -0.233892,0.12524 -0.327731,0.22119 -0.09349,0.0956 -0.166158,0.21308 -0.217311,0.35278 -0.05115,0.1397 -0.07691,0.29704 -0.07691,0.47272 0,0.36654 0.09137,0.6477 0.274108,0.84279 0.182739,0.19579 0.470253,0.29316 0.862542,0.29316 0.06244,0 0.123825,-0.006 0.183797,-0.018 0.06033,-0.012 0.110419,-0.03 0.150636,-0.0536 v -0.53798 h -0.642055 v -0.8375 h 1.658055 v 1.85385 c -0.155575,0.13158 -0.363008,0.24412 -0.621594,0.33796 -0.258586,0.0935 -0.541514,0.14041 -0.849136,0.14041" />
    <path
       id="path1390"
       style="fill:#00a650;fill-opacity:1;fill-rule:nonzero;stroke:none;stroke-width:0.35277775"
       d="m 20.354235,281.57806 h 0.414514 c 0.46355,0 0.695325,-0.17145 0.695325,-0.51435 0,-0.16756 -0.05927,-0.28328 -0.177094,-0.34678 -0.118181,-0.0639 -0.291042,-0.096 -0.518231,-0.096 h -0.414514 z m -1.150055,2.11702 v -3.88761 h 1.64465 c 0.231775,0 0.453672,0.0201 0.665339,0.06 0.211666,0.0402 0.396875,0.10795 0.554919,0.20355 0.158397,0.0956 0.284339,0.22401 0.377825,0.38558 0.09349,0.16158 0.140406,0.36407 0.140406,0.60713 0,0.27905 -0.0635,0.51012 -0.1905,0.69392 -0.127,0.18309 -0.297745,0.32702 -0.511528,0.43039 l 0.942622,1.50706 h -1.283758 l -0.748947,-1.30353 h -0.440973 v 1.30351 z" />
    <path
       id="path1394"
       style="fill:#00a650;fill-opacity:1;fill-rule:nonzero;stroke:none;stroke-width:0.35277775"
       d="m 22.81472,283.69509 v -3.88761 h 2.808111 v 0.86148 h -1.658055 v 0.60995 h 1.417108 v 0.86148 h -1.417108 v 0.69357 h 1.72473 v 0.86113 z" />
    <path
       id="path1398"
       style="fill:#00a650;fill-opacity:1;fill-rule:nonzero;stroke:none;stroke-width:0.35277775"
       d="m 25.930454,283.69509 v -3.88761 h 2.807758 v 0.86148 h -1.657703 v 0.60995 h 1.417108 v 0.86148 h -1.417108 v 0.69357 h 1.724731 v 0.86113 z" />
    <path
       id="path1402"
       style="fill:#00a650;fill-opacity:1;fill-rule:nonzero;stroke:none;stroke-width:0.35277775"
       d="m 29.046043,283.69509 v -3.88761 h 1.176515 l 0.963083,1.7346 0.414515,0.87313 h 0.02646 c -0.01304,-0.10372 -0.02893,-0.21731 -0.04657,-0.34078 -0.01799,-0.12348 -0.03351,-0.25048 -0.04692,-0.37995 -0.01341,-0.12947 -0.0254,-0.25894 -0.03669,-0.3884 -0.01093,-0.12983 -0.01659,-0.25436 -0.01659,-0.37395 v -1.12465 h 1.096433 v 3.88761 h -1.176867 l -0.962731,-1.74061 -0.414512,-0.86713 h -0.02681 c 0.02681,0.22331 0.05786,0.46673 0.09384,0.7299 0.03563,0.26317 0.05327,0.51435 0.05327,0.75318 v 1.12466 z" />
    <path
       id="path1406"
       style="fill:#b3db18;fill-opacity:1;fill-rule:evenodd;stroke:none;stroke-width:0.35277775"
       d="m 22.256979,286.35711 c -0.658284,0.41628 -1.334912,0.73872 -2.164998,2.15547 0,0 -0.643114,-2.71286 2.912886,-2.65077 0,0 0.209903,2.58904 -2.716388,3.08434 0,0 0.262819,-1.25095 1.9685,-2.58904" />
    <path
       id="path1410"
       style="fill:#b3db18;fill-opacity:1;fill-rule:evenodd;stroke:none;stroke-width:0.35277775"
       d="m 18.56897,287.278 c 0.431094,0.27199 0.874183,0.48331 1.417461,1.41076 0,0 0.420511,-1.77588 -1.906764,-1.73531 0,0 -0.137583,1.69474 1.777647,2.0193 0,0 -0.17145,-0.81951 -1.288344,-1.69475" />
  </g>
</svg>
